%TF.GenerationSoftware,KiCad,Pcbnew,8.0.9-8.0.9-0~ubuntu24.04.1*%
%TF.CreationDate,2025-11-19T12:46:58-08:00*%
%TF.ProjectId,rover_monitor_r2,726f7665-725f-46d6-9f6e-69746f725f72,rev?*%
%TF.SameCoordinates,Original*%
%TF.FileFunction,Soldermask,Top*%
%TF.FilePolarity,Negative*%
%FSLAX46Y46*%
G04 Gerber Fmt 4.6, Leading zero omitted, Abs format (unit mm)*
G04 Created by KiCad (PCBNEW 8.0.9-8.0.9-0~ubuntu24.04.1) date 2025-11-19 12:46:58*
%MOMM*%
%LPD*%
G01*
G04 APERTURE LIST*
G04 Aperture macros list*
%AMRoundRect*
0 Rectangle with rounded corners*
0 $1 Rounding radius*
0 $2 $3 $4 $5 $6 $7 $8 $9 X,Y pos of 4 corners*
0 Add a 4 corners polygon primitive as box body*
4,1,4,$2,$3,$4,$5,$6,$7,$8,$9,$2,$3,0*
0 Add four circle primitives for the rounded corners*
1,1,$1+$1,$2,$3*
1,1,$1+$1,$4,$5*
1,1,$1+$1,$6,$7*
1,1,$1+$1,$8,$9*
0 Add four rect primitives between the rounded corners*
20,1,$1+$1,$2,$3,$4,$5,0*
20,1,$1+$1,$4,$5,$6,$7,0*
20,1,$1+$1,$6,$7,$8,$9,0*
20,1,$1+$1,$8,$9,$2,$3,0*%
G04 Aperture macros list end*
%ADD10C,3.600000*%
%ADD11C,5.700000*%
%ADD12R,2.000000X2.000000*%
%ADD13C,2.000000*%
%ADD14RoundRect,0.250001X0.462499X0.624999X-0.462499X0.624999X-0.462499X-0.624999X0.462499X-0.624999X0*%
%ADD15R,1.700000X1.700000*%
%ADD16C,1.700000*%
%ADD17O,1.700000X1.700000*%
%ADD18C,1.500000*%
%ADD19R,1.500000X1.500000*%
%ADD20C,2.800000*%
G04 APERTURE END LIST*
D10*
%TO.C,H1*%
X56043600Y-66623200D03*
D11*
X56043600Y-66623200D03*
%TD*%
D12*
%TO.C,BZ1*%
X52813600Y-136323200D03*
D13*
X52813600Y-143923200D03*
%TD*%
%TO.C,GND1*%
X121313600Y-143723200D03*
%TD*%
%TO.C,Input1*%
X85013600Y-83823200D03*
%TD*%
D14*
%TO.C,D2*%
X54601100Y-131223200D03*
X51626100Y-131223200D03*
%TD*%
D10*
%TO.C,H3*%
X56043600Y-115323200D03*
D11*
X56043600Y-115323200D03*
%TD*%
D13*
%TO.C,GND2*%
X120913600Y-135123200D03*
%TD*%
D15*
%TO.C,SW2*%
X107563600Y-136523200D03*
D16*
X114063600Y-136523200D03*
X107563600Y-141023200D03*
X114063600Y-141023200D03*
%TD*%
D15*
%TO.C,U1*%
X60893600Y-67923200D03*
D17*
X60893600Y-65383200D03*
X63433600Y-67923200D03*
X63433600Y-65383200D03*
X65973600Y-67923200D03*
X65973600Y-65383200D03*
X68513600Y-67923200D03*
X68513600Y-65383200D03*
X71053600Y-67923200D03*
X71053600Y-65383200D03*
X73593600Y-67923200D03*
X73593600Y-65383200D03*
X76133600Y-67923200D03*
X76133600Y-65383200D03*
X78673600Y-67923200D03*
X78673600Y-65383200D03*
X81213600Y-67923200D03*
X81213600Y-65383200D03*
X83753600Y-67923200D03*
X83753600Y-65383200D03*
X86293600Y-67923200D03*
X86293600Y-65383200D03*
X88833600Y-67923200D03*
X88833600Y-65383200D03*
X91373600Y-67923200D03*
X91373600Y-65383200D03*
X93913600Y-67923200D03*
X93913600Y-65383200D03*
X96453600Y-67923200D03*
X96453600Y-65383200D03*
X98993600Y-67923200D03*
X98993600Y-65383200D03*
X101533600Y-67923200D03*
X101533600Y-65383200D03*
X104073600Y-67923200D03*
X104073600Y-65383200D03*
X106613600Y-67923200D03*
X106613600Y-65383200D03*
X109153600Y-67923200D03*
X109153600Y-65383200D03*
%TD*%
D10*
%TO.C,H4*%
X114043600Y-115323200D03*
D11*
X114043600Y-115323200D03*
%TD*%
D13*
%TO.C,Input3*%
X92613600Y-83623200D03*
%TD*%
D10*
%TO.C,H2*%
X114043600Y-66623200D03*
D11*
X114043600Y-66623200D03*
%TD*%
D13*
%TO.C,Input2*%
X89013600Y-83623200D03*
%TD*%
D15*
%TO.C,SW1*%
X71213600Y-136523200D03*
D16*
X77713600Y-136523200D03*
X71213600Y-141023200D03*
X77713600Y-141023200D03*
%TD*%
D14*
%TO.C,D1*%
X75701100Y-131223200D03*
X72726100Y-131223200D03*
%TD*%
D18*
%TO.C,U2*%
X90693600Y-77223200D03*
X88153600Y-77223200D03*
X85613600Y-77223200D03*
X83073600Y-77223200D03*
X80533600Y-77223200D03*
X77993600Y-77223200D03*
D19*
X75453600Y-77223200D03*
D20*
X119513600Y-123763200D03*
X119513600Y-78763200D03*
X50513600Y-123763200D03*
X50513600Y-78763200D03*
%TD*%
M02*
