%TF.GenerationSoftware,KiCad,Pcbnew,8.0.9-8.0.9-0~ubuntu24.04.1*%
%TF.CreationDate,2025-11-19T12:46:58-08:00*%
%TF.ProjectId,rover_monitor_r2,726f7665-725f-46d6-9f6e-69746f725f72,rev?*%
%TF.SameCoordinates,Original*%
%TF.FileFunction,Copper,L2,Bot*%
%TF.FilePolarity,Positive*%
%FSLAX46Y46*%
G04 Gerber Fmt 4.6, Leading zero omitted, Abs format (unit mm)*
G04 Created by KiCad (PCBNEW 8.0.9-8.0.9-0~ubuntu24.04.1) date 2025-11-19 12:46:58*
%MOMM*%
%LPD*%
G01*
G04 APERTURE LIST*
G04 Aperture macros list*
%AMRoundRect*
0 Rectangle with rounded corners*
0 $1 Rounding radius*
0 $2 $3 $4 $5 $6 $7 $8 $9 X,Y pos of 4 corners*
0 Add a 4 corners polygon primitive as box body*
4,1,4,$2,$3,$4,$5,$6,$7,$8,$9,$2,$3,0*
0 Add four circle primitives for the rounded corners*
1,1,$1+$1,$2,$3*
1,1,$1+$1,$4,$5*
1,1,$1+$1,$6,$7*
1,1,$1+$1,$8,$9*
0 Add four rect primitives between the rounded corners*
20,1,$1+$1,$2,$3,$4,$5,0*
20,1,$1+$1,$4,$5,$6,$7,0*
20,1,$1+$1,$6,$7,$8,$9,0*
20,1,$1+$1,$8,$9,$2,$3,0*%
G04 Aperture macros list end*
%TA.AperFunction,ComponentPad*%
%ADD10C,3.600000*%
%TD*%
%TA.AperFunction,ConnectorPad*%
%ADD11C,5.700000*%
%TD*%
%TA.AperFunction,ComponentPad*%
%ADD12R,2.000000X2.000000*%
%TD*%
%TA.AperFunction,ComponentPad*%
%ADD13C,2.000000*%
%TD*%
%TA.AperFunction,SMDPad,CuDef*%
%ADD14RoundRect,0.250000X-0.350000X-0.450000X0.350000X-0.450000X0.350000X0.450000X-0.350000X0.450000X0*%
%TD*%
%TA.AperFunction,SMDPad,CuDef*%
%ADD15RoundRect,0.250000X0.450000X-0.350000X0.450000X0.350000X-0.450000X0.350000X-0.450000X-0.350000X0*%
%TD*%
%TA.AperFunction,SMDPad,CuDef*%
%ADD16RoundRect,0.250000X-0.337500X-0.475000X0.337500X-0.475000X0.337500X0.475000X-0.337500X0.475000X0*%
%TD*%
%TA.AperFunction,SMDPad,CuDef*%
%ADD17RoundRect,0.250000X-0.450000X0.350000X-0.450000X-0.350000X0.450000X-0.350000X0.450000X0.350000X0*%
%TD*%
%TA.AperFunction,ComponentPad*%
%ADD18R,1.700000X1.700000*%
%TD*%
%TA.AperFunction,ComponentPad*%
%ADD19C,1.700000*%
%TD*%
%TA.AperFunction,SMDPad,CuDef*%
%ADD20RoundRect,0.250000X0.337500X0.475000X-0.337500X0.475000X-0.337500X-0.475000X0.337500X-0.475000X0*%
%TD*%
%TA.AperFunction,ComponentPad*%
%ADD21O,1.700000X1.700000*%
%TD*%
%TA.AperFunction,SMDPad,CuDef*%
%ADD22RoundRect,0.225000X0.225000X0.375000X-0.225000X0.375000X-0.225000X-0.375000X0.225000X-0.375000X0*%
%TD*%
%TA.AperFunction,SMDPad,CuDef*%
%ADD23RoundRect,0.150000X0.587500X0.150000X-0.587500X0.150000X-0.587500X-0.150000X0.587500X-0.150000X0*%
%TD*%
%TA.AperFunction,SMDPad,CuDef*%
%ADD24RoundRect,0.150000X-0.587500X-0.150000X0.587500X-0.150000X0.587500X0.150000X-0.587500X0.150000X0*%
%TD*%
%TA.AperFunction,ComponentPad*%
%ADD25C,1.500000*%
%TD*%
%TA.AperFunction,ComponentPad*%
%ADD26R,1.500000X1.500000*%
%TD*%
%TA.AperFunction,ComponentPad*%
%ADD27C,2.800000*%
%TD*%
%TA.AperFunction,ViaPad*%
%ADD28C,0.800000*%
%TD*%
%TA.AperFunction,Conductor*%
%ADD29C,0.250000*%
%TD*%
G04 APERTURE END LIST*
D10*
%TO.P,H1,1,1*%
%TO.N,GND*%
X56043600Y-66623200D03*
D11*
X56043600Y-66623200D03*
%TD*%
D12*
%TO.P,BZ1,1,+*%
%TO.N,+5V*%
X52813600Y-136323200D03*
D13*
%TO.P,BZ1,2,-*%
%TO.N,Net-(BZ1--)*%
X52813600Y-143923200D03*
%TD*%
%TO.P,GND1,1,1*%
%TO.N,GND*%
X121313600Y-143723200D03*
%TD*%
D14*
%TO.P,R9,1*%
%TO.N,+3V3*%
X77013600Y-82923200D03*
%TO.P,R9,2*%
%TO.N,/SCL*%
X79013600Y-82923200D03*
%TD*%
D15*
%TO.P,R7,1*%
%TO.N,Net-(Q3-B)*%
X65313600Y-144923200D03*
%TO.P,R7,2*%
%TO.N,/GPIO16*%
X65313600Y-142923200D03*
%TD*%
D14*
%TO.P,R10,1*%
%TO.N,+3V3*%
X76913600Y-85123200D03*
%TO.P,R10,2*%
%TO.N,/SDA*%
X78913600Y-85123200D03*
%TD*%
D16*
%TO.P,C2,1*%
%TO.N,+3V3*%
X60476100Y-87623200D03*
%TO.P,C2,2*%
%TO.N,GND*%
X62551100Y-87623200D03*
%TD*%
D13*
%TO.P,Input1,1,1*%
%TO.N,Net-(U1-SPI_MOSI)*%
X85013600Y-83823200D03*
%TD*%
D15*
%TO.P,R3,1*%
%TO.N,Net-(Q1-B)*%
X100813600Y-136123200D03*
%TO.P,R3,2*%
%TO.N,/GPIO13*%
X100813600Y-134123200D03*
%TD*%
D17*
%TO.P,R2,1*%
%TO.N,+3V3*%
X103913600Y-140423200D03*
%TO.P,R2,2*%
%TO.N,/GPIO19*%
X103913600Y-142423200D03*
%TD*%
D10*
%TO.P,H3,1,1*%
%TO.N,GND*%
X56043600Y-115323200D03*
D11*
X56043600Y-115323200D03*
%TD*%
D13*
%TO.P,GND2,1,1*%
%TO.N,GND*%
X120913600Y-135123200D03*
%TD*%
D18*
%TO.P,SW2,1,1*%
%TO.N,GND*%
X107563600Y-136523200D03*
D19*
X114063600Y-136523200D03*
%TO.P,SW2,2,2*%
%TO.N,/GPIO19*%
X107563600Y-141023200D03*
X114063600Y-141023200D03*
%TD*%
D17*
%TO.P,R4,1*%
%TO.N,Net-(D1-K)*%
X94113600Y-134023200D03*
%TO.P,R4,2*%
%TO.N,Net-(Q1-C)*%
X94113600Y-136023200D03*
%TD*%
D15*
%TO.P,R5,1*%
%TO.N,Net-(Q2-B)*%
X63013600Y-132523200D03*
%TO.P,R5,2*%
%TO.N,/GPIO20*%
X63013600Y-130523200D03*
%TD*%
D20*
%TO.P,C3,1*%
%TO.N,Net-(D3-K)*%
X62551100Y-92323200D03*
%TO.P,C3,2*%
%TO.N,GND*%
X60476100Y-92323200D03*
%TD*%
D18*
%TO.P,U1,1,3V3*%
%TO.N,+3V3*%
X60893600Y-67923200D03*
D21*
%TO.P,U1,2,5V0*%
%TO.N,+5V*%
X60893600Y-65383200D03*
%TO.P,U1,3,SDA*%
%TO.N,/SDA*%
X63433600Y-67923200D03*
%TO.P,U1,4,5V0*%
%TO.N,+5V*%
X63433600Y-65383200D03*
%TO.P,U1,5,SCL*%
%TO.N,/SCL*%
X65973600Y-67923200D03*
%TO.P,U1,6,GND*%
%TO.N,GND*%
X65973600Y-65383200D03*
%TO.P,U1,7,GPIO4*%
%TO.N,unconnected-(U1-GPIO4-Pad7)*%
X68513600Y-67923200D03*
%TO.P,U1,8,GPIO14*%
%TO.N,unconnected-(U1-GPIO14-Pad8)*%
X68513600Y-65383200D03*
%TO.P,U1,9,GND*%
%TO.N,GND*%
X71053600Y-67923200D03*
%TO.P,U1,10,GPIO15*%
%TO.N,unconnected-(U1-GPIO15-Pad10)*%
X71053600Y-65383200D03*
%TO.P,U1,11,GPIO17*%
%TO.N,unconnected-(U1-GPIO17-Pad11)*%
X73593600Y-67923200D03*
%TO.P,U1,12,GPIO18*%
%TO.N,unconnected-(U1-GPIO18-Pad12)*%
X73593600Y-65383200D03*
%TO.P,U1,13,GPIO27*%
%TO.N,unconnected-(U1-GPIO27-Pad13)*%
X76133600Y-67923200D03*
%TO.P,U1,14,GND*%
%TO.N,GND*%
X76133600Y-65383200D03*
%TO.P,U1,15,GPIO22*%
%TO.N,unconnected-(U1-GPIO22-Pad15)*%
X78673600Y-67923200D03*
%TO.P,U1,16,GPIO23*%
%TO.N,unconnected-(U1-GPIO23-Pad16)*%
X78673600Y-65383200D03*
%TO.P,U1,17,3V3*%
%TO.N,unconnected-(U1-3V3-Pad17)*%
X81213600Y-67923200D03*
%TO.P,U1,18,GPIO24*%
%TO.N,unconnected-(U1-GPIO24-Pad18)*%
X81213600Y-65383200D03*
%TO.P,U1,19,SPI_MOSI*%
%TO.N,Net-(U1-SPI_MOSI)*%
X83753600Y-67923200D03*
%TO.P,U1,20,GND*%
%TO.N,GND*%
X83753600Y-65383200D03*
%TO.P,U1,21,SPI_MISO*%
%TO.N,Net-(U1-SPI_MISO)*%
X86293600Y-67923200D03*
%TO.P,U1,22,GPIO25*%
%TO.N,Net-(JP1-A)*%
X86293600Y-65383200D03*
%TO.P,U1,23,SPI_SCLK*%
%TO.N,Net-(U1-SPI_SCLK)*%
X88833600Y-67923200D03*
%TO.P,U1,24,/SPI_CE0*%
%TO.N,Net-(JP2-A)*%
X88833600Y-65383200D03*
%TO.P,U1,25,GND*%
%TO.N,GND*%
X91373600Y-67923200D03*
%TO.P,U1,26,/SPI_CE1*%
%TO.N,unconnected-(U1-{slash}SPI_CE1-Pad26)*%
X91373600Y-65383200D03*
%TO.P,U1,27,EEDATA*%
%TO.N,unconnected-(U1-EEDATA-Pad27)*%
X93913600Y-67923200D03*
%TO.P,U1,28,EECLK*%
%TO.N,unconnected-(U1-EECLK-Pad28)*%
X93913600Y-65383200D03*
%TO.P,U1,29,GPIO5*%
%TO.N,unconnected-(U1-GPIO5-Pad29)*%
X96453600Y-67923200D03*
%TO.P,U1,30,GND*%
%TO.N,GND*%
X96453600Y-65383200D03*
%TO.P,U1,31,GPIO6*%
%TO.N,unconnected-(U1-GPIO6-Pad31)*%
X98993600Y-67923200D03*
%TO.P,U1,32,GPIO12*%
%TO.N,Net-(D3-K)*%
X98993600Y-65383200D03*
%TO.P,U1,33,GPIO13*%
%TO.N,/GPIO13*%
X101533600Y-67923200D03*
%TO.P,U1,34,GND*%
%TO.N,GND*%
X101533600Y-65383200D03*
%TO.P,U1,35,GPIO19*%
%TO.N,/GPIO19*%
X104073600Y-67923200D03*
%TO.P,U1,36,GPIO16*%
%TO.N,/GPIO16*%
X104073600Y-65383200D03*
%TO.P,U1,37,GPIO26*%
%TO.N,unconnected-(U1-GPIO26-Pad37)*%
X106613600Y-67923200D03*
%TO.P,U1,38,GPIO20*%
%TO.N,/GPIO20*%
X106613600Y-65383200D03*
%TO.P,U1,39,GND*%
%TO.N,GND*%
X109153600Y-67923200D03*
%TO.P,U1,40,GPIO21*%
%TO.N,/GPIO21*%
X109153600Y-65383200D03*
%TD*%
D17*
%TO.P,R1,1*%
%TO.N,+3V3*%
X68813600Y-138223200D03*
%TO.P,R1,2*%
%TO.N,/GPIO21*%
X68813600Y-140223200D03*
%TD*%
D10*
%TO.P,H4,1,1*%
%TO.N,GND*%
X114043600Y-115323200D03*
D11*
X114043600Y-115323200D03*
%TD*%
D13*
%TO.P,Input3,1,1*%
%TO.N,Net-(U1-SPI_SCLK)*%
X92613600Y-83623200D03*
%TD*%
D20*
%TO.P,C1,1*%
%TO.N,GND*%
X62551100Y-85223200D03*
%TO.P,C1,2*%
%TO.N,+3V3*%
X60476100Y-85223200D03*
%TD*%
D10*
%TO.P,H2,1,1*%
%TO.N,GND*%
X114043600Y-66623200D03*
D11*
X114043600Y-66623200D03*
%TD*%
D22*
%TO.P,D3,1,K*%
%TO.N,Net-(D3-K)*%
X62563600Y-94823200D03*
%TO.P,D3,2,A*%
%TO.N,GND*%
X59263600Y-94823200D03*
%TD*%
D23*
%TO.P,Q2,1,B*%
%TO.N,Net-(Q2-B)*%
X60213600Y-132523200D03*
%TO.P,Q2,2,E*%
%TO.N,GND*%
X60213600Y-134423200D03*
%TO.P,Q2,3,C*%
%TO.N,Net-(Q2-C)*%
X58338600Y-133473200D03*
%TD*%
D13*
%TO.P,Input2,1,1*%
%TO.N,Net-(U1-SPI_MISO)*%
X89013600Y-83623200D03*
%TD*%
D18*
%TO.P,SW1,1,1*%
%TO.N,GND*%
X71213600Y-136523200D03*
D19*
X77713600Y-136523200D03*
%TO.P,SW1,2,2*%
%TO.N,/GPIO21*%
X71213600Y-141023200D03*
X77713600Y-141023200D03*
%TD*%
D24*
%TO.P,Q1,1,B*%
%TO.N,Net-(Q1-B)*%
X96613600Y-135973200D03*
%TO.P,Q1,2,E*%
%TO.N,GND*%
X96613600Y-134073200D03*
%TO.P,Q1,3,C*%
%TO.N,Net-(Q1-C)*%
X98488600Y-135023200D03*
%TD*%
D14*
%TO.P,R8,1*%
%TO.N,+3V3*%
X60513600Y-90023200D03*
%TO.P,R8,2*%
%TO.N,Net-(D3-K)*%
X62513600Y-90023200D03*
%TD*%
%TO.P,R6,1*%
%TO.N,Net-(D2-K)*%
X58413600Y-130523200D03*
%TO.P,R6,2*%
%TO.N,Net-(Q2-C)*%
X60413600Y-130523200D03*
%TD*%
D23*
%TO.P,Q3,1,B*%
%TO.N,Net-(Q3-B)*%
X63013600Y-143223200D03*
%TO.P,Q3,2,E*%
%TO.N,GND*%
X63013600Y-145123200D03*
%TO.P,Q3,3,C*%
%TO.N,Net-(BZ1--)*%
X61138600Y-144173200D03*
%TD*%
D25*
%TO.P,U2,7,/CS*%
%TO.N,Net-(JP2-B)*%
X90693600Y-77223200D03*
%TO.P,U2,6,DC*%
%TO.N,Net-(JP1-B)*%
X88153600Y-77223200D03*
%TO.P,U2,5,/Res*%
%TO.N,Net-(D3-K)*%
X85613600Y-77223200D03*
%TO.P,U2,4,SDK*%
%TO.N,/SDA*%
X83073600Y-77223200D03*
%TO.P,U2,3,SCK*%
%TO.N,/SCL*%
X80533600Y-77223200D03*
%TO.P,U2,2,VCC*%
%TO.N,+3V3*%
X77993600Y-77223200D03*
D26*
%TO.P,U2,1,GND*%
%TO.N,GND*%
X75453600Y-77223200D03*
D27*
%TO.P,U2,*%
%TO.N,*%
X119513600Y-123763200D03*
X119513600Y-78763200D03*
X50513600Y-123763200D03*
X50513600Y-78763200D03*
%TD*%
D28*
%TO.N,GND*%
X97213600Y-71223200D03*
%TO.N,Net-(D3-K)*%
X99413600Y-73623200D03*
%TO.N,GND*%
X56613600Y-120023200D03*
X99113600Y-118023200D03*
X104513600Y-116223200D03*
%TO.N,+3V3*%
X68813600Y-135723200D03*
%TO.N,Net-(D3-K)*%
X71213600Y-79553200D03*
%TO.N,Net-(D1-K)*%
X92313600Y-134023200D03*
%TO.N,/GPIO13*%
X100813600Y-132723200D03*
%TO.N,/GPIO16*%
X65313600Y-139623200D03*
%TO.N,+5V*%
X60363600Y-127573200D03*
%TO.N,/GPIO20*%
X63013600Y-129323200D03*
%TO.N,Net-(D2-K)*%
X56113600Y-130523200D03*
%TO.N,+3V3*%
X55813600Y-85323200D03*
%TO.N,GND*%
X65313600Y-86223200D03*
X88513600Y-137823200D03*
X65213600Y-128023200D03*
X76013600Y-63123200D03*
X108713600Y-69923200D03*
X60013600Y-73423200D03*
X83713600Y-62623200D03*
X66713600Y-133523200D03*
X50213600Y-84523200D03*
X71013600Y-69923200D03*
X66013600Y-63223200D03*
X91313600Y-70423200D03*
X47313600Y-130623200D03*
X101513600Y-62623200D03*
X62713600Y-141223200D03*
X81613600Y-134623200D03*
X96413600Y-63023200D03*
X50013600Y-73523200D03*
X106113600Y-62223200D03*
X123513600Y-136023200D03*
X64713600Y-66623200D03*
X60913600Y-71223200D03*
X46913600Y-62423200D03*
X72813600Y-145923200D03*
%TO.N,+5V*%
X57813600Y-73123200D03*
X70813600Y-131523200D03*
%TO.N,+3V3*%
X55913600Y-77823200D03*
X57113600Y-70623200D03*
%TO.N,/GPIO20*%
X69413600Y-74823200D03*
%TO.N,/GPIO16*%
X71013600Y-75823200D03*
%TO.N,/GPIO21*%
X110113600Y-83123200D03*
X110328600Y-70623200D03*
%TO.N,/SCL*%
X66913600Y-71623200D03*
%TD*%
D29*
%TO.N,+5V*%
X70813600Y-131523200D02*
X70713600Y-131423200D01*
X70713600Y-131423200D02*
X66138905Y-131423200D01*
X66138905Y-131423200D02*
X62288905Y-127573200D01*
X62288905Y-127573200D02*
X60363600Y-127573200D01*
%TO.N,Net-(D3-K)*%
X98213600Y-74823200D02*
X88013600Y-74823200D01*
X99413600Y-73623200D02*
X98213600Y-74823200D01*
X88013600Y-74823200D02*
X85613600Y-77223200D01*
%TO.N,Net-(Q1-B)*%
X96613600Y-135973200D02*
X100663600Y-135973200D01*
X100663600Y-135973200D02*
X100813600Y-136123200D01*
%TO.N,+3V3*%
X68813600Y-135723200D02*
X68813600Y-138223200D01*
%TO.N,Net-(D3-K)*%
X71013600Y-79753200D02*
X71013600Y-82623200D01*
X71013600Y-82623200D02*
X62513600Y-91123200D01*
X71213600Y-79553200D02*
X71013600Y-79753200D01*
X62513600Y-90023200D02*
X62513600Y-91123200D01*
X62513600Y-91123200D02*
X62513600Y-92285700D01*
%TO.N,Net-(Q1-C)*%
X98488600Y-135023200D02*
X95113600Y-135023200D01*
X95113600Y-135023200D02*
X94113600Y-136023200D01*
%TO.N,Net-(D1-K)*%
X92313600Y-134023200D02*
X94113600Y-134023200D01*
%TO.N,/GPIO13*%
X100813600Y-134123200D02*
X100813600Y-132723200D01*
%TO.N,/GPIO16*%
X65313600Y-142923200D02*
X65313600Y-139623200D01*
%TO.N,Net-(Q3-B)*%
X63013600Y-143223200D02*
X64713600Y-144923200D01*
X64713600Y-144923200D02*
X65313600Y-144923200D01*
%TO.N,Net-(BZ1--)*%
X61138600Y-144173200D02*
X53063600Y-144173200D01*
X53063600Y-144173200D02*
X52813600Y-143923200D01*
%TO.N,/GPIO20*%
X63013600Y-129323200D02*
X63013600Y-130523200D01*
%TO.N,Net-(D2-K)*%
X56113600Y-130523200D02*
X58413600Y-130523200D01*
%TO.N,Net-(Q2-C)*%
X60413600Y-130523200D02*
X58338600Y-132598200D01*
X58338600Y-132598200D02*
X58338600Y-133473200D01*
%TO.N,Net-(Q2-B)*%
X60213600Y-132523200D02*
X63013600Y-132523200D01*
%TO.N,+3V3*%
X68813600Y-138223200D02*
X72413600Y-138223200D01*
X72413600Y-138223200D02*
X74013600Y-139823200D01*
X74013600Y-139823200D02*
X75513600Y-139823200D01*
X75513600Y-139823200D02*
X75538600Y-139848200D01*
X75538600Y-139848200D02*
X88538600Y-139848200D01*
X88538600Y-139848200D02*
X89113600Y-140423200D01*
X103913600Y-140423200D02*
X89113600Y-140423200D01*
%TO.N,/GPIO21*%
X71213600Y-141023200D02*
X69613600Y-141023200D01*
X69613600Y-141023200D02*
X68813600Y-140223200D01*
%TO.N,/GPIO19*%
X103913600Y-142423200D02*
X106163600Y-142423200D01*
X106163600Y-142423200D02*
X107563600Y-141023200D01*
%TO.N,/GPIO21*%
X110113600Y-83123200D02*
X110213600Y-83023200D01*
X110213600Y-83023200D02*
X110213600Y-70738200D01*
X110213600Y-70738200D02*
X110328600Y-70623200D01*
%TO.N,+5V*%
X57813600Y-73123200D02*
X57813600Y-73023200D01*
X57813600Y-73023200D02*
X59513600Y-71323200D01*
X59513600Y-71323200D02*
X59513600Y-66023200D01*
X59513600Y-66023200D02*
X60153600Y-65383200D01*
X60153600Y-65383200D02*
X60893600Y-65383200D01*
%TO.N,+3V3*%
X57113600Y-70623200D02*
X55813600Y-71923200D01*
X55813600Y-71923200D02*
X55813600Y-77723200D01*
X55813600Y-77723200D02*
X55913600Y-77823200D01*
X55813600Y-85323200D02*
X55913600Y-85323200D01*
X55913600Y-85323200D02*
X56013600Y-85223200D01*
X56013600Y-85223200D02*
X60476100Y-85223200D01*
%TO.N,Net-(D3-K)*%
X62551100Y-92323200D02*
X62551100Y-94810700D01*
X62551100Y-94810700D02*
X62563600Y-94823200D01*
X62513600Y-92285700D02*
X62551100Y-92323200D01*
%TO.N,+3V3*%
X60476100Y-87623200D02*
X60476100Y-85223200D01*
X60513600Y-90023200D02*
X60513600Y-87660700D01*
X60513600Y-87660700D02*
X60476100Y-87623200D01*
%TO.N,/SDA*%
X78913600Y-85123200D02*
X79813600Y-85123200D01*
X79813600Y-85123200D02*
X81513600Y-83423200D01*
X81513600Y-83423200D02*
X81513600Y-78783200D01*
X81513600Y-78783200D02*
X83073600Y-77223200D01*
%TO.N,/SCL*%
X79013600Y-82923200D02*
X79013600Y-78743200D01*
X79013600Y-78743200D02*
X80533600Y-77223200D01*
%TO.N,+3V3*%
X76913600Y-85123200D02*
X76913600Y-83023200D01*
X76913600Y-83023200D02*
X77013600Y-82923200D01*
X77213600Y-80723200D02*
X77213600Y-77223200D01*
X77213600Y-80923200D02*
X77213600Y-80723200D01*
X77213600Y-80723200D02*
X77013600Y-80923200D01*
X77013600Y-80923200D02*
X77013600Y-82923200D01*
%TO.N,GND*%
X71013600Y-67963200D02*
X71053600Y-67923200D01*
X64713600Y-66623200D02*
X64733600Y-66623200D01*
X71013600Y-69923200D02*
X71013600Y-67963200D01*
X64733600Y-66623200D02*
X65973600Y-65383200D01*
%TO.N,/GPIO20*%
X98313600Y-64123200D02*
X98398600Y-64208200D01*
X97628600Y-68409901D02*
X97628600Y-64808200D01*
X69413600Y-74823200D02*
X71513600Y-72723200D01*
X93315301Y-72723200D02*
X97628600Y-68409901D01*
X71513600Y-72723200D02*
X93315301Y-72723200D01*
X98398600Y-64208200D02*
X105438600Y-64208200D01*
X97628600Y-64808200D02*
X98313600Y-64123200D01*
X105438600Y-64208200D02*
X106613600Y-65383200D01*
%TO.N,/GPIO16*%
X97213600Y-73904901D02*
X102713600Y-68404901D01*
X102713600Y-66743200D02*
X104073600Y-65383200D01*
X97213600Y-73923200D02*
X97213600Y-73904901D01*
X71013600Y-75823200D02*
X72913600Y-73923200D01*
X72913600Y-73923200D02*
X97213600Y-73923200D01*
X102713600Y-68404901D02*
X102713600Y-66743200D01*
%TO.N,/SCL*%
X65973600Y-70683200D02*
X65973600Y-67923200D01*
X66913600Y-71623200D02*
X65973600Y-70683200D01*
%TD*%
%TA.AperFunction,Conductor*%
%TO.N,GND*%
G36*
X69816251Y-136086848D02*
G01*
X69856780Y-136143762D01*
X69863600Y-136184319D01*
X69863600Y-136273200D01*
X70780588Y-136273200D01*
X70747675Y-136330207D01*
X70713600Y-136457374D01*
X70713600Y-136589026D01*
X70747675Y-136716193D01*
X70780588Y-136773200D01*
X69863600Y-136773200D01*
X69863600Y-137129927D01*
X69843915Y-137196966D01*
X69791111Y-137242721D01*
X69721953Y-137252665D01*
X69674503Y-137235466D01*
X69668397Y-137231700D01*
X69586338Y-137181085D01*
X69532093Y-137163110D01*
X69474651Y-137123338D01*
X69447828Y-137058822D01*
X69447100Y-137045405D01*
X69447100Y-136424956D01*
X69466785Y-136357917D01*
X69478946Y-136341988D01*
X69552640Y-136260144D01*
X69632214Y-136122318D01*
X69682780Y-136074104D01*
X69751387Y-136060880D01*
X69816251Y-136086848D01*
G37*
%TD.AperFunction*%
%TA.AperFunction,Conductor*%
G36*
X100345505Y-68596715D02*
G01*
X100367404Y-68621987D01*
X100457878Y-68760468D01*
X100457883Y-68760473D01*
X100457884Y-68760476D01*
X100610356Y-68926102D01*
X100610361Y-68926107D01*
X100638326Y-68947873D01*
X100788024Y-69064389D01*
X100788025Y-69064389D01*
X100788027Y-69064391D01*
X100881966Y-69115228D01*
X100931557Y-69164447D01*
X100946665Y-69232664D01*
X100922495Y-69298220D01*
X100910630Y-69311964D01*
X96969216Y-73253381D01*
X96907893Y-73286866D01*
X96881535Y-73289700D01*
X93944068Y-73289700D01*
X93877029Y-73270015D01*
X93831274Y-73217211D01*
X93821330Y-73148053D01*
X93850355Y-73084497D01*
X93856387Y-73078019D01*
X97219704Y-69714700D01*
X97958032Y-68976371D01*
X98019353Y-68942888D01*
X98089045Y-68947872D01*
X98121872Y-68966199D01*
X98248024Y-69064389D01*
X98248025Y-69064389D01*
X98248027Y-69064391D01*
X98360099Y-69125041D01*
X98446026Y-69171542D01*
X98658965Y-69244644D01*
X98881031Y-69281700D01*
X99106169Y-69281700D01*
X99328235Y-69244644D01*
X99541174Y-69171542D01*
X99739176Y-69064389D01*
X99916840Y-68926106D01*
X100024944Y-68808675D01*
X100069315Y-68760476D01*
X100069315Y-68760475D01*
X100069322Y-68760468D01*
X100159793Y-68621990D01*
X100212938Y-68576637D01*
X100282169Y-68567213D01*
X100345505Y-68596715D01*
G37*
%TD.AperFunction*%
%TA.AperFunction,Conductor*%
G36*
X64789061Y-66051272D02*
G01*
X64808730Y-66073248D01*
X64935490Y-66254278D01*
X65102517Y-66421305D01*
X65283402Y-66547963D01*
X65327027Y-66602540D01*
X65334219Y-66672039D01*
X65302697Y-66734393D01*
X65271297Y-66758592D01*
X65228027Y-66782009D01*
X65228022Y-66782012D01*
X65050361Y-66920292D01*
X65050356Y-66920297D01*
X64897884Y-67085923D01*
X64897876Y-67085934D01*
X64807408Y-67224406D01*
X64754262Y-67269762D01*
X64685031Y-67279186D01*
X64621695Y-67249684D01*
X64599792Y-67224406D01*
X64509323Y-67085934D01*
X64509315Y-67085923D01*
X64356843Y-66920297D01*
X64356838Y-66920292D01*
X64179177Y-66782012D01*
X64179178Y-66782012D01*
X64179176Y-66782011D01*
X64142670Y-66762255D01*
X64093079Y-66713036D01*
X64077971Y-66644819D01*
X64102141Y-66579264D01*
X64142670Y-66544145D01*
X64142684Y-66544136D01*
X64179176Y-66524389D01*
X64356840Y-66386106D01*
X64478194Y-66254282D01*
X64509315Y-66220476D01*
X64509315Y-66220475D01*
X64509322Y-66220468D01*
X64603349Y-66076547D01*
X64656494Y-66031194D01*
X64725725Y-66021770D01*
X64789061Y-66051272D01*
G37*
%TD.AperFunction*%
%TA.AperFunction,Conductor*%
G36*
X125556639Y-61242885D02*
G01*
X125602394Y-61295689D01*
X125613600Y-61347200D01*
X125613600Y-147399200D01*
X125593915Y-147466239D01*
X125541111Y-147511994D01*
X125489600Y-147523200D01*
X45437600Y-147523200D01*
X45370561Y-147503515D01*
X45324806Y-147450711D01*
X45313600Y-147399200D01*
X45313600Y-143923200D01*
X51300435Y-143923200D01*
X51319065Y-144159914D01*
X51374495Y-144390795D01*
X51374495Y-144390797D01*
X51465357Y-144610159D01*
X51465359Y-144610162D01*
X51589420Y-144812610D01*
X51589421Y-144812613D01*
X51619344Y-144847648D01*
X51743631Y-144993169D01*
X51870545Y-145101564D01*
X51924186Y-145147378D01*
X51924189Y-145147379D01*
X52126637Y-145271440D01*
X52126640Y-145271442D01*
X52346003Y-145362304D01*
X52346004Y-145362304D01*
X52346006Y-145362305D01*
X52576889Y-145417735D01*
X52813600Y-145436365D01*
X53050311Y-145417735D01*
X53235809Y-145373201D01*
X61778804Y-145373201D01*
X61778999Y-145375686D01*
X61824818Y-145533398D01*
X61908414Y-145674752D01*
X61908421Y-145674761D01*
X62024538Y-145790878D01*
X62024547Y-145790885D01*
X62165903Y-145874482D01*
X62165906Y-145874483D01*
X62323604Y-145920299D01*
X62323610Y-145920300D01*
X62360450Y-145923199D01*
X62360466Y-145923200D01*
X62763600Y-145923200D01*
X62763600Y-145373200D01*
X61778805Y-145373200D01*
X61778804Y-145373201D01*
X53235809Y-145373201D01*
X53281194Y-145362305D01*
X53281196Y-145362304D01*
X53281197Y-145362304D01*
X53500559Y-145271442D01*
X53500560Y-145271441D01*
X53500563Y-145271440D01*
X53703016Y-145147376D01*
X53883569Y-144993169D01*
X54005704Y-144850167D01*
X54064210Y-144811975D01*
X54099993Y-144806700D01*
X60051977Y-144806700D01*
X60119016Y-144826385D01*
X60139658Y-144843019D01*
X60144287Y-144847648D01*
X60144296Y-144847655D01*
X60195265Y-144877798D01*
X60287499Y-144932345D01*
X60329630Y-144944585D01*
X60447264Y-144978761D01*
X60447267Y-144978761D01*
X60447269Y-144978762D01*
X60484598Y-144981700D01*
X60484604Y-144981700D01*
X61792596Y-144981700D01*
X61792602Y-144981700D01*
X61829931Y-144978762D01*
X61829933Y-144978761D01*
X61829935Y-144978761D01*
X61872062Y-144966521D01*
X61989701Y-144932345D01*
X62060512Y-144890466D01*
X62123631Y-144873200D01*
X62763600Y-144873200D01*
X62763600Y-144323200D01*
X62508600Y-144323200D01*
X62441561Y-144303515D01*
X62395806Y-144250711D01*
X62384600Y-144199200D01*
X62384600Y-144155700D01*
X62404285Y-144088661D01*
X62457089Y-144042906D01*
X62508600Y-144031700D01*
X62874834Y-144031700D01*
X62941873Y-144051385D01*
X62962515Y-144068019D01*
X63227281Y-144332785D01*
X63260766Y-144394108D01*
X63263600Y-144420466D01*
X63263600Y-145923200D01*
X63666734Y-145923200D01*
X63666749Y-145923199D01*
X63703589Y-145920300D01*
X63703595Y-145920299D01*
X63861293Y-145874483D01*
X63861296Y-145874482D01*
X64002652Y-145790885D01*
X64002657Y-145790881D01*
X64070556Y-145722982D01*
X64131879Y-145689497D01*
X64201571Y-145694481D01*
X64257505Y-145736352D01*
X64263774Y-145745561D01*
X64264570Y-145746852D01*
X64389948Y-145872230D01*
X64540862Y-145965315D01*
X64709174Y-146021087D01*
X64813055Y-146031700D01*
X65814144Y-146031699D01*
X65918026Y-146021087D01*
X66086338Y-145965315D01*
X66237252Y-145872230D01*
X66362630Y-145746852D01*
X66455715Y-145595938D01*
X66511487Y-145427626D01*
X66522100Y-145323745D01*
X66522099Y-144522656D01*
X66511487Y-144418774D01*
X66455715Y-144250462D01*
X66362630Y-144099548D01*
X66273963Y-144010881D01*
X66240478Y-143949558D01*
X66245462Y-143879866D01*
X66273963Y-143835519D01*
X66362630Y-143746852D01*
X66377222Y-143723194D01*
X119808459Y-143723194D01*
X119808459Y-143723205D01*
X119828985Y-143970929D01*
X119828987Y-143970938D01*
X119890012Y-144211917D01*
X119989867Y-144439567D01*
X120090162Y-144593081D01*
X120830637Y-143852608D01*
X120847675Y-143916193D01*
X120913501Y-144030207D01*
X121006593Y-144123299D01*
X121120607Y-144189125D01*
X121184191Y-144206162D01*
X120443543Y-144946809D01*
X120490368Y-144983255D01*
X120490371Y-144983257D01*
X120708985Y-145101564D01*
X120708996Y-145101569D01*
X120944106Y-145182283D01*
X121189307Y-145223200D01*
X121437893Y-145223200D01*
X121683093Y-145182283D01*
X121918203Y-145101569D01*
X121918214Y-145101564D01*
X122136830Y-144983256D01*
X122136836Y-144983251D01*
X122183655Y-144946810D01*
X122183656Y-144946809D01*
X121443008Y-144206162D01*
X121506593Y-144189125D01*
X121620607Y-144123299D01*
X121713699Y-144030207D01*
X121779525Y-143916193D01*
X121796562Y-143852609D01*
X122537035Y-144593082D01*
X122637333Y-144439564D01*
X122737187Y-144211917D01*
X122798212Y-143970938D01*
X122798214Y-143970929D01*
X122818741Y-143723205D01*
X122818741Y-143723194D01*
X122798214Y-143475470D01*
X122798212Y-143475461D01*
X122737187Y-143234482D01*
X122637332Y-143006832D01*
X122537035Y-142853316D01*
X121796562Y-143593790D01*
X121779525Y-143530207D01*
X121713699Y-143416193D01*
X121620607Y-143323101D01*
X121506593Y-143257275D01*
X121443009Y-143240237D01*
X122183655Y-142499589D01*
X122183655Y-142499588D01*
X122136836Y-142463147D01*
X122136831Y-142463144D01*
X121918214Y-142344835D01*
X121918203Y-142344830D01*
X121683093Y-142264116D01*
X121437893Y-142223200D01*
X121189307Y-142223200D01*
X120944106Y-142264116D01*
X120708996Y-142344830D01*
X120708985Y-142344835D01*
X120490370Y-142463143D01*
X120443543Y-142499589D01*
X121184191Y-143240237D01*
X121120607Y-143257275D01*
X121006593Y-143323101D01*
X120913501Y-143416193D01*
X120847675Y-143530207D01*
X120830637Y-143593791D01*
X120090163Y-142853317D01*
X119989867Y-143006833D01*
X119989865Y-143006837D01*
X119890012Y-143234482D01*
X119828987Y-143475461D01*
X119828985Y-143475470D01*
X119808459Y-143723194D01*
X66377222Y-143723194D01*
X66455715Y-143595938D01*
X66511487Y-143427626D01*
X66522100Y-143323745D01*
X66522099Y-142522656D01*
X66511487Y-142418774D01*
X66455715Y-142250462D01*
X66362630Y-142099548D01*
X66237252Y-141974170D01*
X66086338Y-141881085D01*
X66032093Y-141863110D01*
X65974651Y-141823338D01*
X65947828Y-141758822D01*
X65947100Y-141745405D01*
X65947100Y-140324956D01*
X65966785Y-140257917D01*
X65978946Y-140241988D01*
X66052640Y-140160144D01*
X66148127Y-139994756D01*
X66207142Y-139813128D01*
X66227104Y-139623200D01*
X66207142Y-139433272D01*
X66148127Y-139251644D01*
X66052640Y-139086256D01*
X65924853Y-138944334D01*
X65770352Y-138832082D01*
X65595888Y-138754406D01*
X65595886Y-138754405D01*
X65409087Y-138714700D01*
X65218113Y-138714700D01*
X65031314Y-138754405D01*
X64856846Y-138832083D01*
X64702345Y-138944335D01*
X64574559Y-139086257D01*
X64479073Y-139251643D01*
X64479070Y-139251650D01*
X64420059Y-139433268D01*
X64420058Y-139433272D01*
X64400096Y-139623200D01*
X64420058Y-139813128D01*
X64420059Y-139813131D01*
X64479070Y-139994749D01*
X64479073Y-139994756D01*
X64495184Y-140022662D01*
X64574560Y-140160144D01*
X64648249Y-140241984D01*
X64678480Y-140304975D01*
X64680100Y-140324956D01*
X64680100Y-141745405D01*
X64660415Y-141812444D01*
X64607611Y-141858199D01*
X64595111Y-141863108D01*
X64540862Y-141881085D01*
X64540859Y-141881086D01*
X64389946Y-141974171D01*
X64264571Y-142099546D01*
X64171486Y-142250459D01*
X64171484Y-142250464D01*
X64115709Y-142418783D01*
X64114965Y-142422260D01*
X64113916Y-142424195D01*
X64113583Y-142425201D01*
X64113403Y-142425141D01*
X64081678Y-142483690D01*
X64020463Y-142517373D01*
X63950756Y-142512613D01*
X63930594Y-142503024D01*
X63864701Y-142464055D01*
X63864696Y-142464053D01*
X63704935Y-142417638D01*
X63704929Y-142417637D01*
X63667607Y-142414700D01*
X63667602Y-142414700D01*
X62359598Y-142414700D01*
X62359592Y-142414700D01*
X62322270Y-142417637D01*
X62322264Y-142417638D01*
X62162503Y-142464053D01*
X62162498Y-142464055D01*
X62019296Y-142548744D01*
X62019287Y-142548751D01*
X61901651Y-142666387D01*
X61901644Y-142666396D01*
X61816955Y-142809598D01*
X61816953Y-142809603D01*
X61770538Y-142969364D01*
X61770537Y-142969370D01*
X61767600Y-143006692D01*
X61767600Y-143240700D01*
X61747915Y-143307739D01*
X61695111Y-143353494D01*
X61643600Y-143364700D01*
X60484592Y-143364700D01*
X60447270Y-143367637D01*
X60447264Y-143367638D01*
X60287503Y-143414053D01*
X60287498Y-143414055D01*
X60144296Y-143498744D01*
X60144287Y-143498751D01*
X60139658Y-143503381D01*
X60078335Y-143536866D01*
X60051977Y-143539700D01*
X54370120Y-143539700D01*
X54303081Y-143520015D01*
X54257326Y-143467211D01*
X54254411Y-143459724D01*
X54161842Y-143236240D01*
X54161840Y-143236237D01*
X54037779Y-143033789D01*
X54037778Y-143033786D01*
X53936556Y-142915271D01*
X53883569Y-142853231D01*
X53764196Y-142751276D01*
X53703013Y-142699021D01*
X53703010Y-142699020D01*
X53500562Y-142574959D01*
X53500559Y-142574957D01*
X53281196Y-142484095D01*
X53050314Y-142428665D01*
X52813600Y-142410035D01*
X52576885Y-142428665D01*
X52346004Y-142484095D01*
X52346002Y-142484095D01*
X52126640Y-142574957D01*
X52126637Y-142574959D01*
X51924189Y-142699020D01*
X51924186Y-142699021D01*
X51743631Y-142853231D01*
X51589421Y-143033786D01*
X51589420Y-143033789D01*
X51465359Y-143236237D01*
X51465357Y-143236240D01*
X51374495Y-143455602D01*
X51374495Y-143455604D01*
X51319065Y-143686485D01*
X51300435Y-143923200D01*
X45313600Y-143923200D01*
X45313600Y-135274545D01*
X51305100Y-135274545D01*
X51305100Y-137371854D01*
X51311611Y-137432402D01*
X51311611Y-137432404D01*
X51330818Y-137483897D01*
X51362711Y-137569404D01*
X51450339Y-137686461D01*
X51567396Y-137774089D01*
X51681237Y-137816550D01*
X51697583Y-137822647D01*
X51704399Y-137825189D01*
X51731650Y-137828118D01*
X51764945Y-137831699D01*
X51764962Y-137831700D01*
X53862238Y-137831700D01*
X53862254Y-137831699D01*
X53889292Y-137828791D01*
X53922801Y-137825189D01*
X53929616Y-137822647D01*
X67605100Y-137822647D01*
X67605100Y-138623737D01*
X67605101Y-138623753D01*
X67615713Y-138727627D01*
X67671484Y-138895935D01*
X67671486Y-138895940D01*
X67764571Y-139046853D01*
X67853237Y-139135519D01*
X67886722Y-139196842D01*
X67881738Y-139266534D01*
X67853237Y-139310881D01*
X67764571Y-139399546D01*
X67671486Y-139550459D01*
X67671484Y-139550464D01*
X67615713Y-139718772D01*
X67605100Y-139822647D01*
X67605100Y-140623737D01*
X67605101Y-140623753D01*
X67615713Y-140727627D01*
X67671484Y-140895935D01*
X67671486Y-140895940D01*
X67683410Y-140915272D01*
X67764570Y-141046852D01*
X67889948Y-141172230D01*
X68040862Y-141265315D01*
X68209174Y-141321087D01*
X68313055Y-141331700D01*
X68974832Y-141331699D01*
X69041871Y-141351383D01*
X69062513Y-141368018D01*
X69209763Y-141515268D01*
X69209767Y-141515271D01*
X69313518Y-141584596D01*
X69313524Y-141584599D01*
X69313525Y-141584600D01*
X69428815Y-141632355D01*
X69551201Y-141656699D01*
X69551205Y-141656700D01*
X69551206Y-141656700D01*
X69675994Y-141656700D01*
X69937644Y-141656700D01*
X70004683Y-141676385D01*
X70041452Y-141712878D01*
X70137876Y-141860465D01*
X70137884Y-141860476D01*
X70287183Y-142022655D01*
X70290360Y-142026106D01*
X70468024Y-142164389D01*
X70468025Y-142164389D01*
X70468027Y-142164391D01*
X70594735Y-142232961D01*
X70666026Y-142271542D01*
X70878965Y-142344644D01*
X71101031Y-142381700D01*
X71326169Y-142381700D01*
X71548235Y-142344644D01*
X71761174Y-142271542D01*
X71959176Y-142164389D01*
X72136840Y-142026106D01*
X72289322Y-141860468D01*
X72412460Y-141671991D01*
X72502896Y-141465816D01*
X72558164Y-141247568D01*
X72558224Y-141246853D01*
X72576756Y-141023200D01*
X72576756Y-141023194D01*
X72558165Y-140798840D01*
X72558163Y-140798828D01*
X72513828Y-140623753D01*
X72502896Y-140580584D01*
X72412460Y-140374409D01*
X72289322Y-140185932D01*
X72289319Y-140185929D01*
X72289315Y-140185923D01*
X72136843Y-140020297D01*
X72136838Y-140020292D01*
X71959177Y-139882012D01*
X71959172Y-139882008D01*
X71761180Y-139774861D01*
X71761177Y-139774859D01*
X71761174Y-139774858D01*
X71761171Y-139774857D01*
X71761169Y-139774856D01*
X71548237Y-139701756D01*
X71326169Y-139664700D01*
X71101031Y-139664700D01*
X70878962Y-139701756D01*
X70666030Y-139774856D01*
X70666019Y-139774861D01*
X70468027Y-139882008D01*
X70468022Y-139882012D01*
X70290361Y-140020292D01*
X70237328Y-140077902D01*
X70177441Y-140113892D01*
X70107603Y-140111791D01*
X70049987Y-140072267D01*
X70022886Y-140007867D01*
X70022099Y-139993918D01*
X70022099Y-139822662D01*
X70022098Y-139822646D01*
X70017488Y-139777522D01*
X70011487Y-139718774D01*
X69955715Y-139550462D01*
X69862630Y-139399548D01*
X69773963Y-139310881D01*
X69740478Y-139249558D01*
X69745462Y-139179866D01*
X69773963Y-139135519D01*
X69862630Y-139046852D01*
X69943586Y-138915602D01*
X69995533Y-138868878D01*
X70049124Y-138856700D01*
X72099834Y-138856700D01*
X72166873Y-138876385D01*
X72187515Y-138893019D01*
X73609763Y-140315269D01*
X73609766Y-140315272D01*
X73713519Y-140384597D01*
X73713525Y-140384601D01*
X73728627Y-140390856D01*
X73784604Y-140414043D01*
X73784609Y-140414044D01*
X73784611Y-140414045D01*
X73828815Y-140432355D01*
X73951201Y-140456699D01*
X73951205Y-140456700D01*
X73951206Y-140456700D01*
X73951207Y-140456700D01*
X74075994Y-140456700D01*
X75338307Y-140456700D01*
X75362498Y-140459083D01*
X75476201Y-140481699D01*
X75476205Y-140481700D01*
X75476206Y-140481700D01*
X76290029Y-140481700D01*
X76357068Y-140501385D01*
X76402823Y-140554189D01*
X76412767Y-140623347D01*
X76410235Y-140636140D01*
X76369036Y-140798828D01*
X76369034Y-140798840D01*
X76350444Y-141023194D01*
X76350444Y-141023200D01*
X76369034Y-141247559D01*
X76369036Y-141247571D01*
X76424303Y-141465814D01*
X76514740Y-141671992D01*
X76637876Y-141860465D01*
X76637884Y-141860476D01*
X76787183Y-142022655D01*
X76790360Y-142026106D01*
X76968024Y-142164389D01*
X76968025Y-142164389D01*
X76968027Y-142164391D01*
X77094735Y-142232961D01*
X77166026Y-142271542D01*
X77378965Y-142344644D01*
X77601031Y-142381700D01*
X77826169Y-142381700D01*
X78048235Y-142344644D01*
X78261174Y-142271542D01*
X78459176Y-142164389D01*
X78636840Y-142026106D01*
X78789322Y-141860468D01*
X78912460Y-141671991D01*
X79002896Y-141465816D01*
X79058164Y-141247568D01*
X79058224Y-141246853D01*
X79076756Y-141023200D01*
X79076756Y-141023194D01*
X79058165Y-140798840D01*
X79058163Y-140798828D01*
X79016965Y-140636140D01*
X79019590Y-140566320D01*
X79059546Y-140509002D01*
X79124148Y-140482386D01*
X79137171Y-140481700D01*
X88224834Y-140481700D01*
X88291873Y-140501385D01*
X88312515Y-140518019D01*
X88709763Y-140915269D01*
X88709767Y-140915272D01*
X88813520Y-140984598D01*
X88813521Y-140984598D01*
X88813525Y-140984601D01*
X88906713Y-141023200D01*
X88928815Y-141032355D01*
X89001697Y-141046852D01*
X89051201Y-141056699D01*
X89051205Y-141056700D01*
X89051206Y-141056700D01*
X102678076Y-141056700D01*
X102745115Y-141076385D01*
X102783613Y-141115601D01*
X102818543Y-141172230D01*
X102864571Y-141246853D01*
X102953237Y-141335519D01*
X102986722Y-141396842D01*
X102981738Y-141466534D01*
X102953237Y-141510881D01*
X102864571Y-141599546D01*
X102771486Y-141750459D01*
X102771484Y-141750464D01*
X102715713Y-141918772D01*
X102705100Y-142022647D01*
X102705100Y-142823737D01*
X102705101Y-142823753D01*
X102715713Y-142927627D01*
X102771484Y-143095935D01*
X102771486Y-143095940D01*
X102806742Y-143153098D01*
X102864570Y-143246852D01*
X102989948Y-143372230D01*
X103140862Y-143465315D01*
X103309174Y-143521087D01*
X103413055Y-143531700D01*
X104414144Y-143531699D01*
X104518026Y-143521087D01*
X104686338Y-143465315D01*
X104837252Y-143372230D01*
X104962630Y-143246852D01*
X105043586Y-143115602D01*
X105095533Y-143068878D01*
X105149124Y-143056700D01*
X106225995Y-143056700D01*
X106225996Y-143056699D01*
X106348385Y-143032355D01*
X106463675Y-142984600D01*
X106567433Y-142915271D01*
X107106609Y-142376093D01*
X107167930Y-142342610D01*
X107224743Y-142343574D01*
X107228956Y-142344641D01*
X107228965Y-142344644D01*
X107451031Y-142381700D01*
X107676169Y-142381700D01*
X107898235Y-142344644D01*
X108111174Y-142271542D01*
X108309176Y-142164389D01*
X108486840Y-142026106D01*
X108639322Y-141860468D01*
X108762460Y-141671991D01*
X108852896Y-141465816D01*
X108908164Y-141247568D01*
X108908224Y-141246853D01*
X108926756Y-141023200D01*
X108926756Y-141023194D01*
X112700444Y-141023194D01*
X112700444Y-141023200D01*
X112719034Y-141247559D01*
X112719036Y-141247571D01*
X112774303Y-141465814D01*
X112864740Y-141671992D01*
X112987876Y-141860465D01*
X112987884Y-141860476D01*
X113137183Y-142022655D01*
X113140360Y-142026106D01*
X113318024Y-142164389D01*
X113318025Y-142164389D01*
X113318027Y-142164391D01*
X113444735Y-142232961D01*
X113516026Y-142271542D01*
X113728965Y-142344644D01*
X113951031Y-142381700D01*
X114176169Y-142381700D01*
X114398235Y-142344644D01*
X114611174Y-142271542D01*
X114809176Y-142164389D01*
X114986840Y-142026106D01*
X115139322Y-141860468D01*
X115262460Y-141671991D01*
X115352896Y-141465816D01*
X115408164Y-141247568D01*
X115408224Y-141246853D01*
X115426756Y-141023200D01*
X115426756Y-141023194D01*
X115408165Y-140798840D01*
X115408163Y-140798828D01*
X115363828Y-140623753D01*
X115352896Y-140580584D01*
X115262460Y-140374409D01*
X115139322Y-140185932D01*
X115139319Y-140185929D01*
X115139315Y-140185923D01*
X114986843Y-140020297D01*
X114986838Y-140020292D01*
X114809177Y-139882012D01*
X114809172Y-139882008D01*
X114611180Y-139774861D01*
X114611177Y-139774859D01*
X114611174Y-139774858D01*
X114611171Y-139774857D01*
X114611169Y-139774856D01*
X114398237Y-139701756D01*
X114176169Y-139664700D01*
X113951031Y-139664700D01*
X113728962Y-139701756D01*
X113516030Y-139774856D01*
X113516019Y-139774861D01*
X113318027Y-139882008D01*
X113318022Y-139882012D01*
X113140361Y-140020292D01*
X113140356Y-140020297D01*
X112987884Y-140185923D01*
X112987876Y-140185934D01*
X112864740Y-140374407D01*
X112774303Y-140580585D01*
X112719036Y-140798828D01*
X112719034Y-140798840D01*
X112700444Y-141023194D01*
X108926756Y-141023194D01*
X108908165Y-140798840D01*
X108908163Y-140798828D01*
X108863828Y-140623753D01*
X108852896Y-140580584D01*
X108762460Y-140374409D01*
X108639322Y-140185932D01*
X108639319Y-140185929D01*
X108639315Y-140185923D01*
X108486843Y-140020297D01*
X108486838Y-140020292D01*
X108309177Y-139882012D01*
X108309172Y-139882008D01*
X108111180Y-139774861D01*
X108111177Y-139774859D01*
X108111174Y-139774858D01*
X108111171Y-139774857D01*
X108111169Y-139774856D01*
X107898237Y-139701756D01*
X107676169Y-139664700D01*
X107451031Y-139664700D01*
X107228962Y-139701756D01*
X107016030Y-139774856D01*
X107016019Y-139774861D01*
X106818027Y-139882008D01*
X106818022Y-139882012D01*
X106640361Y-140020292D01*
X106640356Y-140020297D01*
X106487884Y-140185923D01*
X106487876Y-140185934D01*
X106364740Y-140374407D01*
X106274303Y-140580585D01*
X106219036Y-140798828D01*
X106219034Y-140798840D01*
X106200444Y-141023194D01*
X106200444Y-141023200D01*
X106219035Y-141247564D01*
X106247061Y-141358237D01*
X106244436Y-141428057D01*
X106214536Y-141476358D01*
X105937513Y-141753382D01*
X105876193Y-141786866D01*
X105849834Y-141789700D01*
X105149124Y-141789700D01*
X105082085Y-141770015D01*
X105043585Y-141730797D01*
X104962630Y-141599548D01*
X104873963Y-141510881D01*
X104840478Y-141449558D01*
X104845462Y-141379866D01*
X104873963Y-141335519D01*
X104888396Y-141321086D01*
X104962630Y-141246852D01*
X105055715Y-141095938D01*
X105111487Y-140927626D01*
X105122100Y-140823745D01*
X105122099Y-140022656D01*
X105111487Y-139918774D01*
X105055715Y-139750462D01*
X104962630Y-139599548D01*
X104837252Y-139474170D01*
X104686338Y-139381085D01*
X104686335Y-139381084D01*
X104518027Y-139325313D01*
X104414146Y-139314700D01*
X103413062Y-139314700D01*
X103413046Y-139314701D01*
X103309172Y-139325313D01*
X103140864Y-139381084D01*
X103140859Y-139381086D01*
X102989946Y-139474171D01*
X102864571Y-139599546D01*
X102864570Y-139599548D01*
X102791031Y-139718774D01*
X102783615Y-139730797D01*
X102731667Y-139777522D01*
X102678076Y-139789700D01*
X89427367Y-139789700D01*
X89360328Y-139770015D01*
X89339686Y-139753381D01*
X88942436Y-139356131D01*
X88942432Y-139356128D01*
X88838681Y-139286803D01*
X88838672Y-139286798D01*
X88723385Y-139239045D01*
X88723377Y-139239043D01*
X88600998Y-139214700D01*
X88600994Y-139214700D01*
X75713893Y-139214700D01*
X75689702Y-139212317D01*
X75575998Y-139189700D01*
X75575994Y-139189700D01*
X74327367Y-139189700D01*
X74260328Y-139170015D01*
X74239686Y-139153381D01*
X72817436Y-137731131D01*
X72817432Y-137731128D01*
X72713681Y-137661803D01*
X72713671Y-137661798D01*
X72629632Y-137626988D01*
X72575229Y-137583147D01*
X72553164Y-137516853D01*
X72556412Y-137483897D01*
X72557199Y-137480567D01*
X72563599Y-137421044D01*
X72563600Y-137421027D01*
X72563600Y-136773200D01*
X71646612Y-136773200D01*
X71679525Y-136716193D01*
X71713600Y-136589026D01*
X71713600Y-136523198D01*
X76358443Y-136523198D01*
X76358443Y-136523201D01*
X76379030Y-136758515D01*
X76379032Y-136758526D01*
X76440166Y-136986683D01*
X76440170Y-136986692D01*
X76539998Y-137200776D01*
X76598673Y-137284572D01*
X77230637Y-136652608D01*
X77247675Y-136716193D01*
X77313501Y-136830207D01*
X77406593Y-136923299D01*
X77520607Y-136989125D01*
X77584191Y-137006162D01*
X76952226Y-137638126D01*
X77036017Y-137696798D01*
X77036021Y-137696800D01*
X77250107Y-137796629D01*
X77250116Y-137796633D01*
X77478273Y-137857767D01*
X77478284Y-137857769D01*
X77713598Y-137878357D01*
X77713602Y-137878357D01*
X77948915Y-137857769D01*
X77948926Y-137857767D01*
X78177083Y-137796633D01*
X78177092Y-137796629D01*
X78391180Y-137696799D01*
X78474971Y-137638125D01*
X77843008Y-137006162D01*
X77906593Y-136989125D01*
X78020607Y-136923299D01*
X78113699Y-136830207D01*
X78179525Y-136716193D01*
X78196562Y-136652608D01*
X78828525Y-137284571D01*
X78887199Y-137200780D01*
X78987029Y-136986692D01*
X78987033Y-136986683D01*
X79048167Y-136758526D01*
X79048169Y-136758515D01*
X79068757Y-136523201D01*
X79068757Y-136523198D01*
X79048169Y-136287884D01*
X79048167Y-136287873D01*
X78987033Y-136059716D01*
X78987029Y-136059707D01*
X78887201Y-135845624D01*
X78828525Y-135761826D01*
X78196562Y-136393790D01*
X78179525Y-136330207D01*
X78113699Y-136216193D01*
X78020607Y-136123101D01*
X77906593Y-136057275D01*
X77843009Y-136040237D01*
X78474972Y-135408273D01*
X78391176Y-135349598D01*
X78177092Y-135249770D01*
X78177083Y-135249766D01*
X77948926Y-135188632D01*
X77948915Y-135188630D01*
X77713602Y-135168043D01*
X77713598Y-135168043D01*
X77478284Y-135188630D01*
X77478273Y-135188632D01*
X77250116Y-135249766D01*
X77250107Y-135249770D01*
X77036023Y-135349599D01*
X77036021Y-135349600D01*
X76952227Y-135408273D01*
X76952226Y-135408273D01*
X77584191Y-136040237D01*
X77520607Y-136057275D01*
X77406593Y-136123101D01*
X77313501Y-136216193D01*
X77247675Y-136330207D01*
X77230637Y-136393790D01*
X76598673Y-135761826D01*
X76598673Y-135761827D01*
X76540000Y-135845621D01*
X76539999Y-135845623D01*
X76440170Y-136059707D01*
X76440166Y-136059716D01*
X76379032Y-136287873D01*
X76379030Y-136287884D01*
X76358443Y-136523198D01*
X71713600Y-136523198D01*
X71713600Y-136457374D01*
X71679525Y-136330207D01*
X71646612Y-136273200D01*
X72563600Y-136273200D01*
X72563600Y-135625372D01*
X72563599Y-135625355D01*
X72557198Y-135565827D01*
X72557196Y-135565820D01*
X72506954Y-135431113D01*
X72506950Y-135431106D01*
X72420790Y-135316012D01*
X72420787Y-135316009D01*
X72305693Y-135229849D01*
X72305686Y-135229845D01*
X72170979Y-135179603D01*
X72170972Y-135179601D01*
X72111444Y-135173200D01*
X71463600Y-135173200D01*
X71463600Y-136090188D01*
X71406593Y-136057275D01*
X71279426Y-136023200D01*
X71147774Y-136023200D01*
X71020607Y-136057275D01*
X70963600Y-136090188D01*
X70963600Y-135173200D01*
X70315755Y-135173200D01*
X70256227Y-135179601D01*
X70256220Y-135179603D01*
X70121513Y-135229845D01*
X70121506Y-135229849D01*
X70006412Y-135316009D01*
X70006409Y-135316012D01*
X69920249Y-135431106D01*
X69920244Y-135431116D01*
X69912862Y-135450908D01*
X69870990Y-135506841D01*
X69805526Y-135531257D01*
X69737253Y-135516404D01*
X69687848Y-135466999D01*
X69678750Y-135445891D01*
X69648129Y-135351649D01*
X69648126Y-135351643D01*
X69552640Y-135186256D01*
X69424853Y-135044334D01*
X69270352Y-134932082D01*
X69095888Y-134854406D01*
X69095886Y-134854405D01*
X68909087Y-134814700D01*
X68718113Y-134814700D01*
X68531314Y-134854405D01*
X68484021Y-134875461D01*
X68361060Y-134930207D01*
X68356846Y-134932083D01*
X68202345Y-135044335D01*
X68074559Y-135186257D01*
X67979073Y-135351643D01*
X67979070Y-135351650D01*
X67920059Y-135533268D01*
X67920058Y-135533272D01*
X67900096Y-135723200D01*
X67920058Y-135913128D01*
X67920059Y-135913131D01*
X67979070Y-136094749D01*
X67979073Y-136094756D01*
X67994986Y-136122319D01*
X68074560Y-136260144D01*
X68148249Y-136341984D01*
X68178480Y-136404975D01*
X68180100Y-136424956D01*
X68180100Y-137045405D01*
X68160415Y-137112444D01*
X68107611Y-137158199D01*
X68095111Y-137163108D01*
X68040862Y-137181085D01*
X68040859Y-137181086D01*
X67889946Y-137274171D01*
X67764571Y-137399546D01*
X67671486Y-137550459D01*
X67671484Y-137550464D01*
X67615713Y-137718772D01*
X67605100Y-137822647D01*
X53929616Y-137822647D01*
X54059804Y-137774089D01*
X54176861Y-137686461D01*
X54264489Y-137569404D01*
X54315589Y-137432401D01*
X54319191Y-137398892D01*
X54322099Y-137371854D01*
X54322100Y-137371837D01*
X54322100Y-135274562D01*
X54322099Y-135274545D01*
X54317293Y-135229849D01*
X54315589Y-135213999D01*
X54314426Y-135210881D01*
X54293122Y-135153764D01*
X54264489Y-135076996D01*
X54176861Y-134959939D01*
X54059804Y-134872311D01*
X53922803Y-134821211D01*
X53862254Y-134814700D01*
X53862238Y-134814700D01*
X51764962Y-134814700D01*
X51764945Y-134814700D01*
X51704397Y-134821211D01*
X51704395Y-134821211D01*
X51567395Y-134872311D01*
X51450339Y-134959939D01*
X51362711Y-135076995D01*
X51311611Y-135213995D01*
X51311611Y-135213997D01*
X51305100Y-135274545D01*
X45313600Y-135274545D01*
X45313600Y-134673201D01*
X58978804Y-134673201D01*
X58978999Y-134675686D01*
X59024818Y-134833398D01*
X59108414Y-134974752D01*
X59108421Y-134974761D01*
X59224538Y-135090878D01*
X59224547Y-135090885D01*
X59365903Y-135174482D01*
X59365906Y-135174483D01*
X59523604Y-135220299D01*
X59523610Y-135220300D01*
X59560450Y-135223199D01*
X59560466Y-135223200D01*
X59963600Y-135223200D01*
X60463600Y-135223200D01*
X60866734Y-135223200D01*
X60866749Y-135223199D01*
X60903589Y-135220300D01*
X60903595Y-135220299D01*
X61061293Y-135174483D01*
X61061296Y-135174482D01*
X61202652Y-135090885D01*
X61202661Y-135090878D01*
X61318778Y-134974761D01*
X61318785Y-134974752D01*
X61402381Y-134833398D01*
X61448200Y-134675686D01*
X61448395Y-134673201D01*
X61448395Y-134673200D01*
X60463600Y-134673200D01*
X60463600Y-135223200D01*
X59963600Y-135223200D01*
X59963600Y-134673200D01*
X58978805Y-134673200D01*
X58978804Y-134673201D01*
X45313600Y-134673201D01*
X45313600Y-130523200D01*
X55200096Y-130523200D01*
X55220058Y-130713128D01*
X55220059Y-130713131D01*
X55279070Y-130894749D01*
X55279073Y-130894756D01*
X55374560Y-131060144D01*
X55435321Y-131127626D01*
X55496826Y-131195935D01*
X55502347Y-131202066D01*
X55656848Y-131314318D01*
X55831312Y-131391994D01*
X56018113Y-131431700D01*
X56209087Y-131431700D01*
X56395888Y-131391994D01*
X56570352Y-131314318D01*
X56724853Y-131202066D01*
X56728760Y-131197727D01*
X56788246Y-131161079D01*
X56820909Y-131156700D01*
X57235805Y-131156700D01*
X57302844Y-131176385D01*
X57348599Y-131229189D01*
X57353511Y-131241697D01*
X57371482Y-131295933D01*
X57371484Y-131295937D01*
X57371485Y-131295938D01*
X57464570Y-131446852D01*
X57589948Y-131572230D01*
X57740862Y-131665315D01*
X57909174Y-131721087D01*
X58013055Y-131731700D01*
X58013055Y-131731699D01*
X58013056Y-131731700D01*
X58016124Y-131731856D01*
X58082079Y-131754914D01*
X58125097Y-131809971D01*
X58131521Y-131879545D01*
X58099310Y-131941547D01*
X58097518Y-131943377D01*
X58056300Y-131984596D01*
X57934767Y-132106129D01*
X57890647Y-132150249D01*
X57846527Y-132194368D01*
X57777203Y-132298118D01*
X57777198Y-132298127D01*
X57729445Y-132413414D01*
X57729443Y-132413422D01*
X57705100Y-132535801D01*
X57705100Y-132557734D01*
X57685415Y-132624773D01*
X57632611Y-132670528D01*
X57615695Y-132676810D01*
X57487504Y-132714053D01*
X57487498Y-132714055D01*
X57344296Y-132798744D01*
X57344287Y-132798751D01*
X57226651Y-132916387D01*
X57226644Y-132916396D01*
X57141955Y-133059598D01*
X57141953Y-133059603D01*
X57095538Y-133219364D01*
X57095537Y-133219370D01*
X57092600Y-133256692D01*
X57092600Y-133689707D01*
X57095537Y-133727029D01*
X57095538Y-133727035D01*
X57141953Y-133886796D01*
X57141955Y-133886801D01*
X57226644Y-134030003D01*
X57226651Y-134030012D01*
X57344287Y-134147648D01*
X57344296Y-134147655D01*
X57395265Y-134177798D01*
X57487499Y-134232345D01*
X57529630Y-134244585D01*
X57647264Y-134278761D01*
X57647267Y-134278761D01*
X57647269Y-134278762D01*
X57684598Y-134281700D01*
X57684604Y-134281700D01*
X58992596Y-134281700D01*
X58992602Y-134281700D01*
X59029931Y-134278762D01*
X59029933Y-134278761D01*
X59029935Y-134278761D01*
X59117514Y-134253317D01*
X59189701Y-134232345D01*
X59260512Y-134190466D01*
X59323631Y-134173200D01*
X59963600Y-134173200D01*
X60463600Y-134173200D01*
X61448395Y-134173200D01*
X61448395Y-134173198D01*
X61448200Y-134170713D01*
X61405344Y-134023200D01*
X91400096Y-134023200D01*
X91420058Y-134213128D01*
X91420059Y-134213131D01*
X91479070Y-134394749D01*
X91479073Y-134394756D01*
X91574560Y-134560144D01*
X91702347Y-134702066D01*
X91856848Y-134814318D01*
X92031312Y-134891994D01*
X92218113Y-134931700D01*
X92409087Y-134931700D01*
X92595888Y-134891994D01*
X92770352Y-134814318D01*
X92851456Y-134755391D01*
X92917262Y-134731911D01*
X92985316Y-134747736D01*
X93029880Y-134790612D01*
X93064567Y-134846848D01*
X93064570Y-134846852D01*
X93153237Y-134935519D01*
X93186722Y-134996842D01*
X93181738Y-135066534D01*
X93153237Y-135110881D01*
X93064571Y-135199546D01*
X92971486Y-135350459D01*
X92971484Y-135350464D01*
X92915713Y-135518772D01*
X92905100Y-135622647D01*
X92905100Y-136423737D01*
X92905101Y-136423753D01*
X92915713Y-136527627D01*
X92971484Y-136695935D01*
X92971486Y-136695940D01*
X92993941Y-136732345D01*
X93064570Y-136846852D01*
X93189948Y-136972230D01*
X93340862Y-137065315D01*
X93509174Y-137121087D01*
X93613055Y-137131700D01*
X94614144Y-137131699D01*
X94718026Y-137121087D01*
X94886338Y-137065315D01*
X95037252Y-136972230D01*
X95162630Y-136846852D01*
X95255715Y-136695938D01*
X95294989Y-136577415D01*
X95334761Y-136519969D01*
X95399277Y-136493146D01*
X95468053Y-136505461D01*
X95500376Y-136528737D01*
X95619287Y-136647648D01*
X95619291Y-136647651D01*
X95619293Y-136647653D01*
X95762499Y-136732345D01*
X95804630Y-136744585D01*
X95922264Y-136778761D01*
X95922267Y-136778761D01*
X95922269Y-136778762D01*
X95959598Y-136781700D01*
X95959604Y-136781700D01*
X97267596Y-136781700D01*
X97267602Y-136781700D01*
X97304931Y-136778762D01*
X97304933Y-136778761D01*
X97304935Y-136778761D01*
X97374622Y-136758515D01*
X97464701Y-136732345D01*
X97607907Y-136647653D01*
X97607912Y-136647648D01*
X97612542Y-136643019D01*
X97673865Y-136609534D01*
X97700223Y-136606700D01*
X99519237Y-136606700D01*
X99586276Y-136626385D01*
X99632031Y-136679189D01*
X99636943Y-136691696D01*
X99666767Y-136781699D01*
X99671485Y-136795938D01*
X99764570Y-136946852D01*
X99889948Y-137072230D01*
X100040862Y-137165315D01*
X100209174Y-137221087D01*
X100313055Y-137231700D01*
X101314144Y-137231699D01*
X101418026Y-137221087D01*
X101586338Y-137165315D01*
X101737252Y-137072230D01*
X101862630Y-136946852D01*
X101955715Y-136795938D01*
X102011487Y-136627626D01*
X102022100Y-136523745D01*
X102022099Y-135722656D01*
X102012159Y-135625355D01*
X106213600Y-135625355D01*
X106213600Y-136273200D01*
X107130588Y-136273200D01*
X107097675Y-136330207D01*
X107063600Y-136457374D01*
X107063600Y-136589026D01*
X107097675Y-136716193D01*
X107130588Y-136773200D01*
X106213600Y-136773200D01*
X106213600Y-137421044D01*
X106220001Y-137480572D01*
X106220003Y-137480579D01*
X106270245Y-137615286D01*
X106270249Y-137615293D01*
X106356409Y-137730387D01*
X106356412Y-137730390D01*
X106471506Y-137816550D01*
X106471513Y-137816554D01*
X106606220Y-137866796D01*
X106606227Y-137866798D01*
X106665755Y-137873199D01*
X106665772Y-137873200D01*
X107313600Y-137873200D01*
X107313600Y-136956212D01*
X107370607Y-136989125D01*
X107497774Y-137023200D01*
X107629426Y-137023200D01*
X107756593Y-136989125D01*
X107813600Y-136956212D01*
X107813600Y-137873200D01*
X108461428Y-137873200D01*
X108461444Y-137873199D01*
X108520972Y-137866798D01*
X108520979Y-137866796D01*
X108655686Y-137816554D01*
X108655693Y-137816550D01*
X108770787Y-137730390D01*
X108770790Y-137730387D01*
X108856950Y-137615293D01*
X108856954Y-137615286D01*
X108907196Y-137480579D01*
X108907198Y-137480572D01*
X108913599Y-137421044D01*
X108913600Y-137421027D01*
X108913600Y-136773200D01*
X107996612Y-136773200D01*
X108029525Y-136716193D01*
X108063600Y-136589026D01*
X108063600Y-136523198D01*
X112708443Y-136523198D01*
X112708443Y-136523201D01*
X112729030Y-136758515D01*
X112729032Y-136758526D01*
X112790166Y-136986683D01*
X112790170Y-136986692D01*
X112889998Y-137200776D01*
X112948673Y-137284572D01*
X113580637Y-136652608D01*
X113597675Y-136716193D01*
X113663501Y-136830207D01*
X113756593Y-136923299D01*
X113870607Y-136989125D01*
X113934191Y-137006162D01*
X113302226Y-137638126D01*
X113386017Y-137696798D01*
X113386021Y-137696800D01*
X113600107Y-137796629D01*
X113600116Y-137796633D01*
X113828273Y-137857767D01*
X113828284Y-137857769D01*
X114063598Y-137878357D01*
X114063602Y-137878357D01*
X114298915Y-137857769D01*
X114298926Y-137857767D01*
X114527083Y-137796633D01*
X114527092Y-137796629D01*
X114741180Y-137696799D01*
X114824971Y-137638125D01*
X114193008Y-137006162D01*
X114256593Y-136989125D01*
X114370607Y-136923299D01*
X114463699Y-136830207D01*
X114529525Y-136716193D01*
X114546562Y-136652608D01*
X115178525Y-137284571D01*
X115237199Y-137200780D01*
X115337029Y-136986692D01*
X115337033Y-136986683D01*
X115398167Y-136758526D01*
X115398169Y-136758515D01*
X115418757Y-136523201D01*
X115418757Y-136523198D01*
X115398169Y-136287884D01*
X115398167Y-136287873D01*
X115337033Y-136059716D01*
X115337029Y-136059707D01*
X115237201Y-135845624D01*
X115178525Y-135761826D01*
X114546562Y-136393790D01*
X114529525Y-136330207D01*
X114463699Y-136216193D01*
X114370607Y-136123101D01*
X114256593Y-136057275D01*
X114193009Y-136040237D01*
X114824972Y-135408273D01*
X114741176Y-135349598D01*
X114527092Y-135249770D01*
X114527083Y-135249766D01*
X114298926Y-135188632D01*
X114298915Y-135188630D01*
X114063602Y-135168043D01*
X114063598Y-135168043D01*
X113828284Y-135188630D01*
X113828273Y-135188632D01*
X113600116Y-135249766D01*
X113600107Y-135249770D01*
X113386023Y-135349599D01*
X113386021Y-135349600D01*
X113302227Y-135408273D01*
X113302226Y-135408273D01*
X113934191Y-136040237D01*
X113870607Y-136057275D01*
X113756593Y-136123101D01*
X113663501Y-136216193D01*
X113597675Y-136330207D01*
X113580637Y-136393790D01*
X112948673Y-135761826D01*
X112948673Y-135761827D01*
X112890000Y-135845621D01*
X112889999Y-135845623D01*
X112790170Y-136059707D01*
X112790166Y-136059716D01*
X112729032Y-136287873D01*
X112729030Y-136287884D01*
X112708443Y-136523198D01*
X108063600Y-136523198D01*
X108063600Y-136457374D01*
X108029525Y-136330207D01*
X107996612Y-136273200D01*
X108913600Y-136273200D01*
X108913600Y-135625372D01*
X108913599Y-135625355D01*
X108907198Y-135565827D01*
X108907196Y-135565820D01*
X108856954Y-135431113D01*
X108856950Y-135431106D01*
X108770790Y-135316012D01*
X108770787Y-135316009D01*
X108655693Y-135229849D01*
X108655686Y-135229845D01*
X108520979Y-135179603D01*
X108520972Y-135179601D01*
X108461444Y-135173200D01*
X107813600Y-135173200D01*
X107813600Y-136090188D01*
X107756593Y-136057275D01*
X107629426Y-136023200D01*
X107497774Y-136023200D01*
X107370607Y-136057275D01*
X107313600Y-136090188D01*
X107313600Y-135173200D01*
X106665755Y-135173200D01*
X106606227Y-135179601D01*
X106606220Y-135179603D01*
X106471513Y-135229845D01*
X106471506Y-135229849D01*
X106356412Y-135316009D01*
X106356409Y-135316012D01*
X106270249Y-135431106D01*
X106270245Y-135431113D01*
X106220003Y-135565820D01*
X106220001Y-135565827D01*
X106213600Y-135625355D01*
X102012159Y-135625355D01*
X102011487Y-135618774D01*
X101955715Y-135450462D01*
X101862630Y-135299548D01*
X101773963Y-135210881D01*
X101740478Y-135149558D01*
X101742363Y-135123194D01*
X119408459Y-135123194D01*
X119408459Y-135123205D01*
X119428985Y-135370929D01*
X119428987Y-135370938D01*
X119490012Y-135611917D01*
X119589867Y-135839567D01*
X119690162Y-135993081D01*
X120430637Y-135252608D01*
X120447675Y-135316193D01*
X120513501Y-135430207D01*
X120606593Y-135523299D01*
X120720607Y-135589125D01*
X120784191Y-135606162D01*
X120043543Y-136346809D01*
X120090368Y-136383255D01*
X120090371Y-136383257D01*
X120308985Y-136501564D01*
X120308996Y-136501569D01*
X120544106Y-136582283D01*
X120789307Y-136623200D01*
X121037893Y-136623200D01*
X121283093Y-136582283D01*
X121518203Y-136501569D01*
X121518214Y-136501564D01*
X121736830Y-136383256D01*
X121736836Y-136383251D01*
X121783655Y-136346810D01*
X121783656Y-136346809D01*
X121043008Y-135606162D01*
X121106593Y-135589125D01*
X121220607Y-135523299D01*
X121313699Y-135430207D01*
X121379525Y-135316193D01*
X121396562Y-135252609D01*
X122137035Y-135993082D01*
X122237333Y-135839564D01*
X122337187Y-135611917D01*
X122398212Y-135370938D01*
X122398214Y-135370929D01*
X122418741Y-135123205D01*
X122418741Y-135123194D01*
X122398214Y-134875470D01*
X122398212Y-134875461D01*
X122337187Y-134634482D01*
X122237332Y-134406832D01*
X122137035Y-134253316D01*
X121396562Y-134993790D01*
X121379525Y-134930207D01*
X121313699Y-134816193D01*
X121220607Y-134723101D01*
X121106593Y-134657275D01*
X121043009Y-134640237D01*
X121783655Y-133899589D01*
X121783655Y-133899588D01*
X121736836Y-133863147D01*
X121736831Y-133863144D01*
X121518214Y-133744835D01*
X121518203Y-133744830D01*
X121283093Y-133664116D01*
X121037893Y-133623200D01*
X120789307Y-133623200D01*
X120544106Y-133664116D01*
X120308996Y-133744830D01*
X120308985Y-133744835D01*
X120090370Y-133863143D01*
X120043543Y-133899589D01*
X120784191Y-134640237D01*
X120720607Y-134657275D01*
X120606593Y-134723101D01*
X120513501Y-134816193D01*
X120447675Y-134930207D01*
X120430637Y-134993791D01*
X119690163Y-134253317D01*
X119589867Y-134406833D01*
X119589865Y-134406837D01*
X119490012Y-134634482D01*
X119428987Y-134875461D01*
X119428985Y-134875470D01*
X119408459Y-135123194D01*
X101742363Y-135123194D01*
X101745462Y-135079866D01*
X101773963Y-135035519D01*
X101812640Y-134996842D01*
X101862630Y-134946852D01*
X101955715Y-134795938D01*
X102011487Y-134627626D01*
X102022100Y-134523745D01*
X102022099Y-133722656D01*
X102011487Y-133618774D01*
X101955715Y-133450462D01*
X101862630Y-133299548D01*
X101737252Y-133174170D01*
X101737249Y-133174168D01*
X101737248Y-133174167D01*
X101724460Y-133166279D01*
X101677736Y-133114330D01*
X101666516Y-133045368D01*
X101671623Y-133022440D01*
X101707142Y-132913128D01*
X101727104Y-132723200D01*
X101707142Y-132533272D01*
X101648127Y-132351644D01*
X101552640Y-132186256D01*
X101424853Y-132044334D01*
X101270352Y-131932082D01*
X101095888Y-131854406D01*
X101095886Y-131854405D01*
X100909087Y-131814700D01*
X100718113Y-131814700D01*
X100531314Y-131854405D01*
X100356846Y-131932083D01*
X100202345Y-132044335D01*
X100074559Y-132186257D01*
X99979073Y-132351643D01*
X99979070Y-132351650D01*
X99920059Y-132533268D01*
X99920058Y-132533272D01*
X99900096Y-132723200D01*
X99920058Y-132913128D01*
X99920059Y-132913131D01*
X99955570Y-133022424D01*
X99957565Y-133092265D01*
X99921484Y-133152098D01*
X99902741Y-133166278D01*
X99889949Y-133174168D01*
X99764569Y-133299549D01*
X99671486Y-133450459D01*
X99671484Y-133450464D01*
X99615713Y-133618772D01*
X99605100Y-133722647D01*
X99605100Y-134203616D01*
X99585415Y-134270655D01*
X99532611Y-134316410D01*
X99463453Y-134326354D01*
X99417980Y-134310348D01*
X99339705Y-134264057D01*
X99339696Y-134264053D01*
X99179935Y-134217638D01*
X99179929Y-134217637D01*
X99142607Y-134214700D01*
X99142602Y-134214700D01*
X97834598Y-134214700D01*
X97834592Y-134214700D01*
X97797270Y-134217637D01*
X97797264Y-134217638D01*
X97637503Y-134264053D01*
X97637502Y-134264053D01*
X97626339Y-134270655D01*
X97566687Y-134305933D01*
X97503569Y-134323200D01*
X96737600Y-134323200D01*
X96670561Y-134303515D01*
X96624806Y-134250711D01*
X96613600Y-134199200D01*
X96613600Y-134073200D01*
X96487600Y-134073200D01*
X96420561Y-134053515D01*
X96374806Y-134000711D01*
X96363600Y-133949200D01*
X96363600Y-133823200D01*
X96863600Y-133823200D01*
X97848395Y-133823200D01*
X97848395Y-133823198D01*
X97848200Y-133820713D01*
X97802381Y-133663001D01*
X97718785Y-133521647D01*
X97718778Y-133521638D01*
X97602661Y-133405521D01*
X97602652Y-133405514D01*
X97461296Y-133321917D01*
X97461293Y-133321916D01*
X97303595Y-133276100D01*
X97303589Y-133276099D01*
X97266749Y-133273200D01*
X96863600Y-133273200D01*
X96863600Y-133823200D01*
X96363600Y-133823200D01*
X96363600Y-133273200D01*
X95960450Y-133273200D01*
X95923610Y-133276099D01*
X95923604Y-133276100D01*
X95765906Y-133321916D01*
X95765903Y-133321917D01*
X95624547Y-133405514D01*
X95624542Y-133405518D01*
X95503368Y-133526692D01*
X95442045Y-133560176D01*
X95372353Y-133555192D01*
X95316420Y-133513320D01*
X95297981Y-133478014D01*
X95273957Y-133405514D01*
X95255715Y-133350462D01*
X95162630Y-133199548D01*
X95037252Y-133074170D01*
X94886338Y-132981085D01*
X94886335Y-132981084D01*
X94718027Y-132925313D01*
X94614146Y-132914700D01*
X93613062Y-132914700D01*
X93613046Y-132914701D01*
X93509172Y-132925313D01*
X93340864Y-132981084D01*
X93340859Y-132981086D01*
X93189946Y-133074171D01*
X93064569Y-133199548D01*
X93029880Y-133255788D01*
X92977931Y-133302512D01*
X92908969Y-133313733D01*
X92851456Y-133291008D01*
X92839534Y-133282346D01*
X92770352Y-133232082D01*
X92595888Y-133154406D01*
X92595886Y-133154405D01*
X92409087Y-133114700D01*
X92218113Y-133114700D01*
X92031314Y-133154405D01*
X91856846Y-133232083D01*
X91702345Y-133344335D01*
X91574559Y-133486257D01*
X91479073Y-133651643D01*
X91479070Y-133651650D01*
X91420059Y-133833268D01*
X91420058Y-133833272D01*
X91400096Y-134023200D01*
X61405344Y-134023200D01*
X61402381Y-134013001D01*
X61318785Y-133871647D01*
X61318778Y-133871638D01*
X61202661Y-133755521D01*
X61202652Y-133755514D01*
X61061296Y-133671917D01*
X61061293Y-133671916D01*
X60903595Y-133626100D01*
X60903589Y-133626099D01*
X60866749Y-133623200D01*
X60463600Y-133623200D01*
X60463600Y-134173200D01*
X59963600Y-134173200D01*
X59963600Y-133623200D01*
X59708600Y-133623200D01*
X59641561Y-133603515D01*
X59595806Y-133550711D01*
X59584600Y-133499200D01*
X59584600Y-133455700D01*
X59604285Y-133388661D01*
X59657089Y-133342906D01*
X59708600Y-133331700D01*
X60867596Y-133331700D01*
X60867602Y-133331700D01*
X60904931Y-133328762D01*
X60904933Y-133328761D01*
X60904935Y-133328761D01*
X60956662Y-133313733D01*
X61064701Y-133282345D01*
X61207907Y-133197653D01*
X61209625Y-133195935D01*
X61212542Y-133193019D01*
X61273865Y-133159534D01*
X61300223Y-133156700D01*
X61778076Y-133156700D01*
X61845115Y-133176385D01*
X61883613Y-133215601D01*
X61964570Y-133346852D01*
X62089948Y-133472230D01*
X62240862Y-133565315D01*
X62409174Y-133621087D01*
X62513055Y-133631700D01*
X63514144Y-133631699D01*
X63618026Y-133621087D01*
X63786338Y-133565315D01*
X63937252Y-133472230D01*
X64062630Y-133346852D01*
X64155715Y-133195938D01*
X64211487Y-133027626D01*
X64222100Y-132923745D01*
X64222099Y-132122656D01*
X64211487Y-132018774D01*
X64155715Y-131850462D01*
X64062630Y-131699548D01*
X63973963Y-131610881D01*
X63940478Y-131549558D01*
X63945462Y-131479866D01*
X63973963Y-131435519D01*
X64017488Y-131391994D01*
X64062630Y-131346852D01*
X64155715Y-131195938D01*
X64211487Y-131027626D01*
X64222100Y-130923745D01*
X64222099Y-130701659D01*
X64241783Y-130634621D01*
X64294587Y-130588866D01*
X64363745Y-130578922D01*
X64427301Y-130607947D01*
X64433780Y-130613979D01*
X65735068Y-131915268D01*
X65735072Y-131915271D01*
X65838823Y-131984596D01*
X65838829Y-131984599D01*
X65838830Y-131984600D01*
X65954120Y-132032355D01*
X66076506Y-132056699D01*
X66076510Y-132056700D01*
X66076511Y-132056700D01*
X66201299Y-132056700D01*
X70016251Y-132056700D01*
X70083290Y-132076385D01*
X70108399Y-132097727D01*
X70160889Y-132156022D01*
X70188112Y-132186257D01*
X70202347Y-132202066D01*
X70356848Y-132314318D01*
X70531312Y-132391994D01*
X70718113Y-132431700D01*
X70909087Y-132431700D01*
X71095888Y-132391994D01*
X71270352Y-132314318D01*
X71424853Y-132202066D01*
X71552640Y-132060144D01*
X71648127Y-131894756D01*
X71707142Y-131713128D01*
X71727104Y-131523200D01*
X71707142Y-131333272D01*
X71648127Y-131151644D01*
X71552640Y-130986256D01*
X71424853Y-130844334D01*
X71270352Y-130732082D01*
X71095888Y-130654406D01*
X71095886Y-130654405D01*
X70909087Y-130614700D01*
X70718113Y-130614700D01*
X70531314Y-130654405D01*
X70356843Y-130732084D01*
X70310138Y-130766018D01*
X70244332Y-130789498D01*
X70237253Y-130789700D01*
X66452671Y-130789700D01*
X66385632Y-130770015D01*
X66364990Y-130753381D01*
X62692741Y-127081131D01*
X62692737Y-127081128D01*
X62588986Y-127011803D01*
X62588977Y-127011798D01*
X62473690Y-126964045D01*
X62473682Y-126964043D01*
X62351303Y-126939700D01*
X62351299Y-126939700D01*
X61070909Y-126939700D01*
X61003870Y-126920015D01*
X60978760Y-126898673D01*
X60974854Y-126894335D01*
X60820353Y-126782083D01*
X60820352Y-126782082D01*
X60645888Y-126704406D01*
X60645886Y-126704405D01*
X60459087Y-126664700D01*
X60268113Y-126664700D01*
X60081314Y-126704405D01*
X59906846Y-126782083D01*
X59752345Y-126894335D01*
X59624559Y-127036257D01*
X59529073Y-127201643D01*
X59529070Y-127201650D01*
X59470059Y-127383268D01*
X59470058Y-127383272D01*
X59450096Y-127573200D01*
X59470058Y-127763128D01*
X59470059Y-127763131D01*
X59529070Y-127944749D01*
X59529073Y-127944756D01*
X59624560Y-128110144D01*
X59752347Y-128252066D01*
X59906848Y-128364318D01*
X60081312Y-128441994D01*
X60268113Y-128481700D01*
X60459087Y-128481700D01*
X60645888Y-128441994D01*
X60820352Y-128364318D01*
X60974853Y-128252066D01*
X60978760Y-128247727D01*
X61038246Y-128211079D01*
X61070909Y-128206700D01*
X61975139Y-128206700D01*
X62042178Y-128226385D01*
X62062820Y-128243019D01*
X62348415Y-128528614D01*
X62381900Y-128589937D01*
X62376916Y-128659629D01*
X62352885Y-128699266D01*
X62274558Y-128786257D01*
X62179073Y-128951643D01*
X62179070Y-128951650D01*
X62120059Y-129133268D01*
X62120058Y-129133272D01*
X62100096Y-129323200D01*
X62116817Y-129482297D01*
X62104249Y-129551025D01*
X62081179Y-129582938D01*
X61964569Y-129699549D01*
X61871486Y-129850459D01*
X61871484Y-129850464D01*
X61815713Y-130018772D01*
X61805100Y-130122647D01*
X61805100Y-130923737D01*
X61805101Y-130923753D01*
X61815713Y-131027627D01*
X61871484Y-131195935D01*
X61871486Y-131195940D01*
X61906742Y-131253098D01*
X61956191Y-131333268D01*
X61964571Y-131346853D01*
X62053237Y-131435519D01*
X62086722Y-131496842D01*
X62081738Y-131566534D01*
X62053237Y-131610881D01*
X61964571Y-131699546D01*
X61951228Y-131721179D01*
X61893544Y-131814700D01*
X61883615Y-131830797D01*
X61831667Y-131877522D01*
X61778076Y-131889700D01*
X61300223Y-131889700D01*
X61233184Y-131870015D01*
X61212542Y-131853381D01*
X61207912Y-131848751D01*
X61207903Y-131848744D01*
X61170721Y-131826755D01*
X61123037Y-131775686D01*
X61110534Y-131706944D01*
X61137179Y-131642355D01*
X61168741Y-131614487D01*
X61237252Y-131572230D01*
X61362630Y-131446852D01*
X61455715Y-131295938D01*
X61511487Y-131127626D01*
X61522100Y-131023745D01*
X61522099Y-130022656D01*
X61511487Y-129918774D01*
X61455715Y-129750462D01*
X61362630Y-129599548D01*
X61237252Y-129474170D01*
X61086338Y-129381085D01*
X61086335Y-129381084D01*
X60918027Y-129325313D01*
X60814146Y-129314700D01*
X60013062Y-129314700D01*
X60013046Y-129314701D01*
X59909172Y-129325313D01*
X59740864Y-129381084D01*
X59740859Y-129381086D01*
X59589946Y-129474171D01*
X59501281Y-129562837D01*
X59439958Y-129596322D01*
X59370266Y-129591338D01*
X59325919Y-129562837D01*
X59237253Y-129474171D01*
X59237252Y-129474170D01*
X59086338Y-129381085D01*
X59086335Y-129381084D01*
X58918027Y-129325313D01*
X58814146Y-129314700D01*
X58013062Y-129314700D01*
X58013046Y-129314701D01*
X57909172Y-129325313D01*
X57740864Y-129381084D01*
X57740859Y-129381086D01*
X57589946Y-129474171D01*
X57464571Y-129599546D01*
X57371482Y-129750466D01*
X57353511Y-129804703D01*
X57313739Y-129862148D01*
X57249224Y-129888972D01*
X57235805Y-129889700D01*
X56820909Y-129889700D01*
X56753870Y-129870015D01*
X56728760Y-129848673D01*
X56724854Y-129844335D01*
X56670306Y-129804703D01*
X56570352Y-129732082D01*
X56395888Y-129654406D01*
X56395886Y-129654405D01*
X56209087Y-129614700D01*
X56018113Y-129614700D01*
X55831314Y-129654405D01*
X55656846Y-129732083D01*
X55502345Y-129844335D01*
X55374559Y-129986257D01*
X55279073Y-130151643D01*
X55279070Y-130151650D01*
X55220059Y-130333268D01*
X55220058Y-130333272D01*
X55200096Y-130523200D01*
X45313600Y-130523200D01*
X45313600Y-123763198D01*
X48600225Y-123763198D01*
X48600225Y-123763201D01*
X48619700Y-124035507D01*
X48677728Y-124302253D01*
X48677730Y-124302260D01*
X48736964Y-124461073D01*
X48773133Y-124558046D01*
X48773135Y-124558050D01*
X48903963Y-124797643D01*
X48903968Y-124797651D01*
X49067561Y-125016186D01*
X49067577Y-125016204D01*
X49260595Y-125209222D01*
X49260613Y-125209238D01*
X49479148Y-125372831D01*
X49479156Y-125372836D01*
X49718749Y-125503664D01*
X49718753Y-125503666D01*
X49718755Y-125503667D01*
X49974540Y-125599070D01*
X50107919Y-125628085D01*
X50241292Y-125657099D01*
X50241294Y-125657099D01*
X50241298Y-125657100D01*
X50483282Y-125674406D01*
X50513599Y-125676575D01*
X50513600Y-125676575D01*
X50513601Y-125676575D01*
X50540880Y-125674623D01*
X50785902Y-125657100D01*
X51052660Y-125599070D01*
X51308445Y-125503667D01*
X51548049Y-125372833D01*
X51766594Y-125209232D01*
X51959632Y-125016194D01*
X52123233Y-124797649D01*
X52254067Y-124558045D01*
X52349470Y-124302260D01*
X52407500Y-124035502D01*
X52426975Y-123763200D01*
X52426975Y-123763198D01*
X117600225Y-123763198D01*
X117600225Y-123763201D01*
X117619700Y-124035507D01*
X117677728Y-124302253D01*
X117677730Y-124302260D01*
X117736964Y-124461073D01*
X117773133Y-124558046D01*
X117773135Y-124558050D01*
X117903963Y-124797643D01*
X117903968Y-124797651D01*
X118067561Y-125016186D01*
X118067577Y-125016204D01*
X118260595Y-125209222D01*
X118260613Y-125209238D01*
X118479148Y-125372831D01*
X118479156Y-125372836D01*
X118718749Y-125503664D01*
X118718753Y-125503666D01*
X118718755Y-125503667D01*
X118974540Y-125599070D01*
X119107919Y-125628085D01*
X119241292Y-125657099D01*
X119241294Y-125657099D01*
X119241298Y-125657100D01*
X119483282Y-125674406D01*
X119513599Y-125676575D01*
X119513600Y-125676575D01*
X119513601Y-125676575D01*
X119540880Y-125674623D01*
X119785902Y-125657100D01*
X120052660Y-125599070D01*
X120308445Y-125503667D01*
X120548049Y-125372833D01*
X120766594Y-125209232D01*
X120959632Y-125016194D01*
X121123233Y-124797649D01*
X121254067Y-124558045D01*
X121349470Y-124302260D01*
X121407500Y-124035502D01*
X121426975Y-123763200D01*
X121407500Y-123490898D01*
X121349470Y-123224140D01*
X121254067Y-122968355D01*
X121123233Y-122728751D01*
X121123231Y-122728748D01*
X120959638Y-122510213D01*
X120959622Y-122510195D01*
X120766604Y-122317177D01*
X120766586Y-122317161D01*
X120548051Y-122153568D01*
X120548043Y-122153563D01*
X120308450Y-122022735D01*
X120308446Y-122022733D01*
X120211473Y-121986564D01*
X120052660Y-121927330D01*
X120052656Y-121927329D01*
X120052653Y-121927328D01*
X119785907Y-121869300D01*
X119513601Y-121849825D01*
X119513599Y-121849825D01*
X119241292Y-121869300D01*
X118974546Y-121927328D01*
X118974541Y-121927329D01*
X118974540Y-121927330D01*
X118912697Y-121950396D01*
X118718753Y-122022733D01*
X118718749Y-122022735D01*
X118479156Y-122153563D01*
X118479148Y-122153568D01*
X118260613Y-122317161D01*
X118260595Y-122317177D01*
X118067577Y-122510195D01*
X118067561Y-122510213D01*
X117903968Y-122728748D01*
X117903963Y-122728756D01*
X117773135Y-122968349D01*
X117773133Y-122968353D01*
X117677728Y-123224146D01*
X117619700Y-123490892D01*
X117600225Y-123763198D01*
X52426975Y-123763198D01*
X52407500Y-123490898D01*
X52349470Y-123224140D01*
X52254067Y-122968355D01*
X52123233Y-122728751D01*
X52123231Y-122728748D01*
X51959638Y-122510213D01*
X51959622Y-122510195D01*
X51766604Y-122317177D01*
X51766586Y-122317161D01*
X51548051Y-122153568D01*
X51548043Y-122153563D01*
X51308450Y-122022735D01*
X51308446Y-122022733D01*
X51211473Y-121986564D01*
X51052660Y-121927330D01*
X51052656Y-121927329D01*
X51052653Y-121927328D01*
X50785907Y-121869300D01*
X50513601Y-121849825D01*
X50513599Y-121849825D01*
X50241292Y-121869300D01*
X49974546Y-121927328D01*
X49974541Y-121927329D01*
X49974540Y-121927330D01*
X49912697Y-121950396D01*
X49718753Y-122022733D01*
X49718749Y-122022735D01*
X49479156Y-122153563D01*
X49479148Y-122153568D01*
X49260613Y-122317161D01*
X49260595Y-122317177D01*
X49067577Y-122510195D01*
X49067561Y-122510213D01*
X48903968Y-122728748D01*
X48903963Y-122728756D01*
X48773135Y-122968349D01*
X48773133Y-122968353D01*
X48677728Y-123224146D01*
X48619700Y-123490892D01*
X48600225Y-123763198D01*
X45313600Y-123763198D01*
X45313600Y-115323197D01*
X52688680Y-115323197D01*
X52688680Y-115323202D01*
X52708346Y-115685928D01*
X52767117Y-116044414D01*
X52767119Y-116044422D01*
X52864295Y-116394420D01*
X52864297Y-116394427D01*
X52998752Y-116731884D01*
X52998761Y-116731902D01*
X53168916Y-117052847D01*
X53168918Y-117052851D01*
X53372770Y-117353509D01*
X53372777Y-117353519D01*
X53504569Y-117508675D01*
X53504570Y-117508675D01*
X54749347Y-116263897D01*
X54823188Y-116365530D01*
X55001270Y-116543612D01*
X55102900Y-116617451D01*
X53855488Y-117864862D01*
X53855488Y-117864864D01*
X53871670Y-117880192D01*
X53871671Y-117880193D01*
X54160866Y-118100032D01*
X54160882Y-118100043D01*
X54472122Y-118287309D01*
X54472135Y-118287316D01*
X54801805Y-118439839D01*
X54801810Y-118439840D01*
X55146061Y-118555832D01*
X55500835Y-118633924D01*
X55861966Y-118673199D01*
X55861974Y-118673200D01*
X56225226Y-118673200D01*
X56225233Y-118673199D01*
X56586364Y-118633924D01*
X56941138Y-118555832D01*
X57285389Y-118439840D01*
X57285394Y-118439839D01*
X57615064Y-118287316D01*
X57615077Y-118287309D01*
X57926317Y-118100043D01*
X57926333Y-118100032D01*
X58215529Y-117880192D01*
X58231710Y-117864864D01*
X58231710Y-117864863D01*
X56984298Y-116617451D01*
X57085930Y-116543612D01*
X57264012Y-116365530D01*
X57337851Y-116263898D01*
X58582628Y-117508675D01*
X58582629Y-117508675D01*
X58714427Y-117353511D01*
X58714438Y-117353497D01*
X58918281Y-117052851D01*
X58918283Y-117052847D01*
X59088438Y-116731902D01*
X59088447Y-116731884D01*
X59222902Y-116394427D01*
X59222904Y-116394420D01*
X59320080Y-116044422D01*
X59320082Y-116044414D01*
X59378853Y-115685928D01*
X59398520Y-115323202D01*
X59398520Y-115323197D01*
X110688680Y-115323197D01*
X110688680Y-115323202D01*
X110708346Y-115685928D01*
X110767117Y-116044414D01*
X110767119Y-116044422D01*
X110864295Y-116394420D01*
X110864297Y-116394427D01*
X110998752Y-116731884D01*
X110998761Y-116731902D01*
X111168916Y-117052847D01*
X111168918Y-117052851D01*
X111372770Y-117353509D01*
X111372777Y-117353519D01*
X111504569Y-117508675D01*
X111504570Y-117508675D01*
X112749347Y-116263897D01*
X112823188Y-116365530D01*
X113001270Y-116543612D01*
X113102900Y-116617451D01*
X111855488Y-117864862D01*
X111855488Y-117864864D01*
X111871670Y-117880192D01*
X111871671Y-117880193D01*
X112160866Y-118100032D01*
X112160882Y-118100043D01*
X112472122Y-118287309D01*
X112472135Y-118287316D01*
X112801805Y-118439839D01*
X112801810Y-118439840D01*
X113146061Y-118555832D01*
X113500835Y-118633924D01*
X113861966Y-118673199D01*
X113861974Y-118673200D01*
X114225226Y-118673200D01*
X114225233Y-118673199D01*
X114586364Y-118633924D01*
X114941138Y-118555832D01*
X115285389Y-118439840D01*
X115285394Y-118439839D01*
X115615064Y-118287316D01*
X115615077Y-118287309D01*
X115926317Y-118100043D01*
X115926333Y-118100032D01*
X116215529Y-117880192D01*
X116231710Y-117864864D01*
X116231710Y-117864863D01*
X114984298Y-116617451D01*
X115085930Y-116543612D01*
X115264012Y-116365530D01*
X115337851Y-116263898D01*
X116582628Y-117508675D01*
X116582629Y-117508675D01*
X116714427Y-117353511D01*
X116714438Y-117353497D01*
X116918281Y-117052851D01*
X116918283Y-117052847D01*
X117088438Y-116731902D01*
X117088447Y-116731884D01*
X117222902Y-116394427D01*
X117222904Y-116394420D01*
X117320080Y-116044422D01*
X117320082Y-116044414D01*
X117378853Y-115685928D01*
X117398520Y-115323202D01*
X117398520Y-115323197D01*
X117378853Y-114960471D01*
X117320082Y-114601985D01*
X117320080Y-114601977D01*
X117222904Y-114251979D01*
X117222902Y-114251972D01*
X117088447Y-113914515D01*
X117088438Y-113914497D01*
X116918283Y-113593552D01*
X116918281Y-113593548D01*
X116714429Y-113292890D01*
X116714422Y-113292880D01*
X116582629Y-113137723D01*
X116582628Y-113137723D01*
X115337851Y-114382500D01*
X115264012Y-114280870D01*
X115085930Y-114102788D01*
X114984297Y-114028947D01*
X116231710Y-112781536D01*
X116231710Y-112781534D01*
X116215529Y-112766207D01*
X116215528Y-112766206D01*
X115926333Y-112546367D01*
X115926317Y-112546356D01*
X115615077Y-112359090D01*
X115615064Y-112359083D01*
X115285394Y-112206560D01*
X115285389Y-112206559D01*
X114941138Y-112090567D01*
X114586364Y-112012475D01*
X114225233Y-111973200D01*
X113861966Y-111973200D01*
X113500835Y-112012475D01*
X113146061Y-112090567D01*
X112801810Y-112206559D01*
X112801805Y-112206560D01*
X112472135Y-112359083D01*
X112472122Y-112359090D01*
X112160882Y-112546356D01*
X112160866Y-112546367D01*
X111871675Y-112766202D01*
X111855488Y-112781535D01*
X111855487Y-112781535D01*
X113102901Y-114028948D01*
X113001270Y-114102788D01*
X112823188Y-114280870D01*
X112749348Y-114382501D01*
X111504570Y-113137722D01*
X111504569Y-113137723D01*
X111372777Y-113292880D01*
X111372770Y-113292890D01*
X111168918Y-113593548D01*
X111168916Y-113593552D01*
X110998761Y-113914497D01*
X110998752Y-113914515D01*
X110864297Y-114251972D01*
X110864295Y-114251979D01*
X110767119Y-114601977D01*
X110767117Y-114601985D01*
X110708346Y-114960471D01*
X110688680Y-115323197D01*
X59398520Y-115323197D01*
X59378853Y-114960471D01*
X59320082Y-114601985D01*
X59320080Y-114601977D01*
X59222904Y-114251979D01*
X59222902Y-114251972D01*
X59088447Y-113914515D01*
X59088438Y-113914497D01*
X58918283Y-113593552D01*
X58918281Y-113593548D01*
X58714429Y-113292890D01*
X58714422Y-113292880D01*
X58582629Y-113137723D01*
X58582628Y-113137723D01*
X57337851Y-114382500D01*
X57264012Y-114280870D01*
X57085930Y-114102788D01*
X56984297Y-114028947D01*
X58231710Y-112781536D01*
X58231710Y-112781534D01*
X58215529Y-112766207D01*
X58215528Y-112766206D01*
X57926333Y-112546367D01*
X57926317Y-112546356D01*
X57615077Y-112359090D01*
X57615064Y-112359083D01*
X57285394Y-112206560D01*
X57285389Y-112206559D01*
X56941138Y-112090567D01*
X56586364Y-112012475D01*
X56225233Y-111973200D01*
X55861966Y-111973200D01*
X55500835Y-112012475D01*
X55146061Y-112090567D01*
X54801810Y-112206559D01*
X54801805Y-112206560D01*
X54472135Y-112359083D01*
X54472122Y-112359090D01*
X54160882Y-112546356D01*
X54160866Y-112546367D01*
X53871675Y-112766202D01*
X53855488Y-112781535D01*
X53855487Y-112781535D01*
X55102901Y-114028948D01*
X55001270Y-114102788D01*
X54823188Y-114280870D01*
X54749348Y-114382501D01*
X53504570Y-113137722D01*
X53504569Y-113137723D01*
X53372777Y-113292880D01*
X53372770Y-113292890D01*
X53168918Y-113593548D01*
X53168916Y-113593552D01*
X52998761Y-113914497D01*
X52998752Y-113914515D01*
X52864297Y-114251972D01*
X52864295Y-114251979D01*
X52767119Y-114601977D01*
X52767117Y-114601985D01*
X52708346Y-114960471D01*
X52688680Y-115323197D01*
X45313600Y-115323197D01*
X45313600Y-95246522D01*
X58313601Y-95246522D01*
X58323744Y-95345807D01*
X58377052Y-95506681D01*
X58377057Y-95506692D01*
X58466024Y-95650928D01*
X58466027Y-95650932D01*
X58585867Y-95770772D01*
X58585871Y-95770775D01*
X58730107Y-95859742D01*
X58730118Y-95859747D01*
X58890993Y-95913055D01*
X58990283Y-95923199D01*
X59513600Y-95923199D01*
X59536908Y-95923199D01*
X59536922Y-95923198D01*
X59636207Y-95913055D01*
X59797081Y-95859747D01*
X59797092Y-95859742D01*
X59941328Y-95770775D01*
X59941332Y-95770772D01*
X60061172Y-95650932D01*
X60061175Y-95650928D01*
X60150142Y-95506692D01*
X60150147Y-95506681D01*
X60203455Y-95345806D01*
X60213599Y-95246522D01*
X60213600Y-95246509D01*
X60213600Y-95073200D01*
X59513600Y-95073200D01*
X59513600Y-95923199D01*
X58990283Y-95923199D01*
X59013600Y-95923198D01*
X59013600Y-95073200D01*
X58313601Y-95073200D01*
X58313601Y-95246522D01*
X45313600Y-95246522D01*
X45313600Y-94399877D01*
X58313600Y-94399877D01*
X58313600Y-94573200D01*
X59013600Y-94573200D01*
X59513600Y-94573200D01*
X60213599Y-94573200D01*
X60213599Y-94399892D01*
X60213598Y-94399877D01*
X60203455Y-94300592D01*
X60150147Y-94139718D01*
X60150142Y-94139707D01*
X60061175Y-93995471D01*
X60061172Y-93995467D01*
X59941332Y-93875627D01*
X59941328Y-93875624D01*
X59797092Y-93786657D01*
X59797081Y-93786652D01*
X59636206Y-93733344D01*
X59536922Y-93723200D01*
X59513600Y-93723200D01*
X59513600Y-94573200D01*
X59013600Y-94573200D01*
X59013600Y-93723199D01*
X58990293Y-93723200D01*
X58990274Y-93723201D01*
X58890992Y-93733344D01*
X58730118Y-93786652D01*
X58730107Y-93786657D01*
X58585871Y-93875624D01*
X58585867Y-93875627D01*
X58466027Y-93995467D01*
X58466024Y-93995471D01*
X58377057Y-94139707D01*
X58377052Y-94139718D01*
X58323744Y-94300593D01*
X58313600Y-94399877D01*
X45313600Y-94399877D01*
X45313600Y-92848186D01*
X59388601Y-92848186D01*
X59399094Y-92950897D01*
X59454241Y-93117319D01*
X59454243Y-93117324D01*
X59546284Y-93266545D01*
X59670254Y-93390515D01*
X59819475Y-93482556D01*
X59819480Y-93482558D01*
X59985902Y-93537705D01*
X59985909Y-93537706D01*
X60088619Y-93548199D01*
X60226099Y-93548199D01*
X60226100Y-93548198D01*
X60226100Y-92573200D01*
X59388601Y-92573200D01*
X59388601Y-92848186D01*
X45313600Y-92848186D01*
X45313600Y-85323200D01*
X54900096Y-85323200D01*
X54920058Y-85513128D01*
X54920059Y-85513131D01*
X54979070Y-85694749D01*
X54979073Y-85694756D01*
X55074560Y-85860144D01*
X55202347Y-86002066D01*
X55356848Y-86114318D01*
X55531312Y-86191994D01*
X55718113Y-86231700D01*
X55909087Y-86231700D01*
X56095888Y-86191994D01*
X56270352Y-86114318D01*
X56424853Y-86002066D01*
X56518799Y-85897727D01*
X56578285Y-85861079D01*
X56610949Y-85856700D01*
X59302521Y-85856700D01*
X59369560Y-85876385D01*
X59415315Y-85929189D01*
X59420227Y-85941697D01*
X59446482Y-86020933D01*
X59446484Y-86020937D01*
X59446485Y-86020938D01*
X59538922Y-86170802D01*
X59539571Y-86171853D01*
X59664948Y-86297230D01*
X59698073Y-86317662D01*
X59744797Y-86369610D01*
X59756018Y-86438573D01*
X59728175Y-86502655D01*
X59698073Y-86528738D01*
X59664948Y-86549169D01*
X59539571Y-86674546D01*
X59446486Y-86825459D01*
X59446484Y-86825464D01*
X59390713Y-86993772D01*
X59380100Y-87097647D01*
X59380100Y-88148737D01*
X59380101Y-88148753D01*
X59390536Y-88250890D01*
X59390713Y-88252626D01*
X59446485Y-88420938D01*
X59539570Y-88571852D01*
X59664948Y-88697230D01*
X59730839Y-88737872D01*
X59777563Y-88789819D01*
X59788784Y-88858782D01*
X59760941Y-88922864D01*
X59730838Y-88948948D01*
X59689951Y-88974167D01*
X59689947Y-88974170D01*
X59564571Y-89099546D01*
X59471486Y-89250459D01*
X59471484Y-89250464D01*
X59415713Y-89418772D01*
X59405100Y-89522647D01*
X59405100Y-90523737D01*
X59405101Y-90523753D01*
X59415713Y-90627627D01*
X59471484Y-90795935D01*
X59471486Y-90795940D01*
X59564571Y-90946853D01*
X59685285Y-91067567D01*
X59718770Y-91128890D01*
X59713786Y-91198582D01*
X59674523Y-91252507D01*
X59670262Y-91255876D01*
X59546284Y-91379854D01*
X59454243Y-91529075D01*
X59454241Y-91529080D01*
X59399094Y-91695502D01*
X59399093Y-91695509D01*
X59388600Y-91798213D01*
X59388600Y-92073200D01*
X60352100Y-92073200D01*
X60419139Y-92092885D01*
X60464894Y-92145689D01*
X60476100Y-92197200D01*
X60476100Y-92323200D01*
X60602100Y-92323200D01*
X60669139Y-92342885D01*
X60714894Y-92395689D01*
X60726100Y-92447200D01*
X60726100Y-93548199D01*
X60863572Y-93548199D01*
X60863586Y-93548198D01*
X60966297Y-93537705D01*
X61132719Y-93482558D01*
X61132724Y-93482556D01*
X61281945Y-93390515D01*
X61405916Y-93266544D01*
X61410398Y-93260877D01*
X61412591Y-93262611D01*
X61454957Y-93224465D01*
X61523914Y-93213208D01*
X61588010Y-93241018D01*
X61609934Y-93266306D01*
X61610089Y-93266185D01*
X61612783Y-93269592D01*
X61614145Y-93271163D01*
X61614569Y-93271851D01*
X61739947Y-93397229D01*
X61739951Y-93397232D01*
X61858697Y-93470476D01*
X61905422Y-93522424D01*
X61917600Y-93576014D01*
X61917600Y-93780512D01*
X61897915Y-93847551D01*
X61881282Y-93868193D01*
X61759312Y-93990163D01*
X61669302Y-94136090D01*
X61669297Y-94136101D01*
X61615364Y-94298863D01*
X61605100Y-94399320D01*
X61605100Y-95247079D01*
X61615364Y-95347536D01*
X61669297Y-95510298D01*
X61669302Y-95510309D01*
X61759312Y-95656236D01*
X61759315Y-95656240D01*
X61880559Y-95777484D01*
X61880563Y-95777487D01*
X62026490Y-95867497D01*
X62026493Y-95867498D01*
X62026499Y-95867502D01*
X62189264Y-95921436D01*
X62289728Y-95931700D01*
X62289733Y-95931700D01*
X62837467Y-95931700D01*
X62837472Y-95931700D01*
X62937936Y-95921436D01*
X63100701Y-95867502D01*
X63246640Y-95777485D01*
X63367885Y-95656240D01*
X63457902Y-95510301D01*
X63511836Y-95347536D01*
X63522100Y-95247072D01*
X63522100Y-94399328D01*
X63511836Y-94298864D01*
X63457902Y-94136099D01*
X63457898Y-94136093D01*
X63457897Y-94136090D01*
X63367887Y-93990163D01*
X63367886Y-93990162D01*
X63367885Y-93990160D01*
X63246640Y-93868915D01*
X63243495Y-93866975D01*
X63241793Y-93865083D01*
X63240979Y-93864439D01*
X63241089Y-93864299D01*
X63196775Y-93815023D01*
X63184600Y-93761441D01*
X63184600Y-93576014D01*
X63204285Y-93508975D01*
X63243503Y-93470476D01*
X63312017Y-93428214D01*
X63362252Y-93397230D01*
X63487630Y-93271852D01*
X63580715Y-93120938D01*
X63636487Y-92952626D01*
X63647100Y-92848745D01*
X63647099Y-91797656D01*
X63636487Y-91693774D01*
X63580715Y-91525462D01*
X63487630Y-91374548D01*
X63410573Y-91297491D01*
X63377088Y-91236168D01*
X63382072Y-91166476D01*
X63410571Y-91122131D01*
X71505671Y-83027033D01*
X71575000Y-82923275D01*
X71622755Y-82807985D01*
X71647100Y-82685594D01*
X71647100Y-82560807D01*
X71647100Y-80424392D01*
X71666785Y-80357353D01*
X71698215Y-80324074D01*
X71824853Y-80232066D01*
X71952640Y-80090144D01*
X72048127Y-79924756D01*
X72107142Y-79743128D01*
X72127104Y-79553200D01*
X72107142Y-79363272D01*
X72048127Y-79181644D01*
X71952640Y-79016256D01*
X71824853Y-78874334D01*
X71670352Y-78762082D01*
X71495888Y-78684406D01*
X71495886Y-78684405D01*
X71309087Y-78644700D01*
X71118113Y-78644700D01*
X70931314Y-78684405D01*
X70756846Y-78762083D01*
X70602345Y-78874335D01*
X70474559Y-79016257D01*
X70379073Y-79181643D01*
X70379070Y-79181650D01*
X70339884Y-79302253D01*
X70320058Y-79363272D01*
X70300096Y-79553200D01*
X70320058Y-79743128D01*
X70320059Y-79743131D01*
X70374031Y-79909239D01*
X70380100Y-79947557D01*
X70380100Y-82309433D01*
X70360415Y-82376472D01*
X70343781Y-82397114D01*
X63639669Y-89101225D01*
X63578346Y-89134710D01*
X63508654Y-89129726D01*
X63464307Y-89101225D01*
X63337253Y-88974171D01*
X63337252Y-88974170D01*
X63288263Y-88943953D01*
X63241541Y-88892007D01*
X63230318Y-88823044D01*
X63258162Y-88758962D01*
X63288266Y-88732877D01*
X63356943Y-88690517D01*
X63480915Y-88566545D01*
X63572956Y-88417324D01*
X63572958Y-88417319D01*
X63628105Y-88250897D01*
X63628106Y-88250890D01*
X63638599Y-88148186D01*
X63638600Y-88148173D01*
X63638600Y-87873200D01*
X62675100Y-87873200D01*
X62608061Y-87853515D01*
X62562306Y-87800711D01*
X62551100Y-87749200D01*
X62551100Y-87623200D01*
X62425100Y-87623200D01*
X62358061Y-87603515D01*
X62312306Y-87550711D01*
X62301100Y-87499200D01*
X62301100Y-87373200D01*
X62801100Y-87373200D01*
X63638599Y-87373200D01*
X63638599Y-87098228D01*
X63638598Y-87098213D01*
X63628105Y-86995502D01*
X63572958Y-86829080D01*
X63572956Y-86829075D01*
X63480915Y-86679854D01*
X63356943Y-86555882D01*
X63312936Y-86528739D01*
X63266211Y-86476792D01*
X63254988Y-86407829D01*
X63282831Y-86343747D01*
X63312936Y-86317661D01*
X63356943Y-86290517D01*
X63480915Y-86166545D01*
X63572956Y-86017324D01*
X63572958Y-86017319D01*
X63628105Y-85850897D01*
X63628106Y-85850890D01*
X63638599Y-85748186D01*
X63638600Y-85748173D01*
X63638600Y-85473200D01*
X62801100Y-85473200D01*
X62801100Y-87373200D01*
X62301100Y-87373200D01*
X62301100Y-84973200D01*
X62801100Y-84973200D01*
X63638599Y-84973200D01*
X63638599Y-84698228D01*
X63638598Y-84698213D01*
X63628105Y-84595502D01*
X63572958Y-84429080D01*
X63572956Y-84429075D01*
X63480915Y-84279854D01*
X63356945Y-84155884D01*
X63207724Y-84063843D01*
X63207719Y-84063841D01*
X63041297Y-84008694D01*
X63041290Y-84008693D01*
X62938586Y-83998200D01*
X62801100Y-83998200D01*
X62801100Y-84973200D01*
X62301100Y-84973200D01*
X62301100Y-83998200D01*
X62163627Y-83998200D01*
X62163612Y-83998201D01*
X62060902Y-84008694D01*
X61894480Y-84063841D01*
X61894475Y-84063843D01*
X61745254Y-84155884D01*
X61621283Y-84279855D01*
X61616802Y-84285523D01*
X61614621Y-84283798D01*
X61572156Y-84321975D01*
X61503191Y-84333180D01*
X61439116Y-84305321D01*
X61417263Y-84280094D01*
X61417111Y-84280215D01*
X61414416Y-84276806D01*
X61413051Y-84275231D01*
X61412629Y-84274547D01*
X61287253Y-84149171D01*
X61287252Y-84149170D01*
X61165658Y-84074170D01*
X61136340Y-84056086D01*
X61136335Y-84056084D01*
X60968027Y-84000313D01*
X60864146Y-83989700D01*
X60088062Y-83989700D01*
X60088046Y-83989701D01*
X59984172Y-84000313D01*
X59815864Y-84056084D01*
X59815859Y-84056086D01*
X59664946Y-84149171D01*
X59539571Y-84274546D01*
X59446482Y-84425466D01*
X59420227Y-84504703D01*
X59380455Y-84562148D01*
X59315940Y-84588972D01*
X59302521Y-84589700D01*
X56389947Y-84589700D01*
X56322908Y-84570015D01*
X56317062Y-84566018D01*
X56270356Y-84532084D01*
X56270352Y-84532082D01*
X56095888Y-84454406D01*
X56095886Y-84454405D01*
X55909087Y-84414700D01*
X55718113Y-84414700D01*
X55531314Y-84454405D01*
X55531312Y-84454406D01*
X55386739Y-84518774D01*
X55356846Y-84532083D01*
X55202345Y-84644335D01*
X55074559Y-84786257D01*
X54979073Y-84951643D01*
X54979070Y-84951650D01*
X54925106Y-85117735D01*
X54920058Y-85133272D01*
X54900096Y-85323200D01*
X45313600Y-85323200D01*
X45313600Y-78763198D01*
X48600225Y-78763198D01*
X48600225Y-78763201D01*
X48619700Y-79035507D01*
X48677728Y-79302253D01*
X48677730Y-79302260D01*
X48736964Y-79461073D01*
X48773133Y-79558046D01*
X48773135Y-79558050D01*
X48903963Y-79797643D01*
X48903968Y-79797651D01*
X49067561Y-80016186D01*
X49067577Y-80016204D01*
X49260595Y-80209222D01*
X49260613Y-80209238D01*
X49479148Y-80372831D01*
X49479156Y-80372836D01*
X49718749Y-80503664D01*
X49718753Y-80503666D01*
X49718755Y-80503667D01*
X49974540Y-80599070D01*
X50085128Y-80623127D01*
X50241292Y-80657099D01*
X50241294Y-80657099D01*
X50241298Y-80657100D01*
X50483282Y-80674406D01*
X50513599Y-80676575D01*
X50513600Y-80676575D01*
X50513601Y-80676575D01*
X50540880Y-80674623D01*
X50785902Y-80657100D01*
X51052660Y-80599070D01*
X51308445Y-80503667D01*
X51548049Y-80372833D01*
X51766594Y-80209232D01*
X51959632Y-80016194D01*
X52123233Y-79797649D01*
X52254067Y-79558045D01*
X52349470Y-79302260D01*
X52407500Y-79035502D01*
X52426975Y-78763200D01*
X52407500Y-78490898D01*
X52406322Y-78485484D01*
X52349471Y-78224146D01*
X52349470Y-78224140D01*
X52254067Y-77968355D01*
X52192088Y-77854850D01*
X52123236Y-77728756D01*
X52123231Y-77728748D01*
X51959638Y-77510213D01*
X51959622Y-77510195D01*
X51766604Y-77317177D01*
X51766586Y-77317161D01*
X51548051Y-77153568D01*
X51548043Y-77153563D01*
X51308450Y-77022735D01*
X51308446Y-77022733D01*
X51175642Y-76973200D01*
X51052660Y-76927330D01*
X51052656Y-76927329D01*
X51052653Y-76927328D01*
X50785907Y-76869300D01*
X50513601Y-76849825D01*
X50513599Y-76849825D01*
X50241292Y-76869300D01*
X49974546Y-76927328D01*
X49974541Y-76927329D01*
X49974540Y-76927330D01*
X49912697Y-76950396D01*
X49718753Y-77022733D01*
X49718749Y-77022735D01*
X49479156Y-77153563D01*
X49479148Y-77153568D01*
X49260613Y-77317161D01*
X49260595Y-77317177D01*
X49067577Y-77510195D01*
X49067561Y-77510213D01*
X48903968Y-77728748D01*
X48903963Y-77728756D01*
X48773135Y-77968349D01*
X48773133Y-77968353D01*
X48700796Y-78162297D01*
X48681033Y-78215286D01*
X48677728Y-78224146D01*
X48619700Y-78490892D01*
X48600225Y-78763198D01*
X45313600Y-78763198D01*
X45313600Y-66623197D01*
X52688680Y-66623197D01*
X52688680Y-66623202D01*
X52708346Y-66985928D01*
X52767117Y-67344414D01*
X52767119Y-67344422D01*
X52864295Y-67694420D01*
X52864297Y-67694427D01*
X52998752Y-68031884D01*
X52998761Y-68031902D01*
X53168916Y-68352847D01*
X53168918Y-68352851D01*
X53372770Y-68653509D01*
X53372777Y-68653519D01*
X53504569Y-68808675D01*
X53504570Y-68808675D01*
X54749347Y-67563897D01*
X54823188Y-67665530D01*
X55001270Y-67843612D01*
X55102900Y-67917451D01*
X53855488Y-69164862D01*
X53855488Y-69164864D01*
X53871670Y-69180192D01*
X53871671Y-69180193D01*
X54160866Y-69400032D01*
X54160882Y-69400043D01*
X54472122Y-69587309D01*
X54472135Y-69587316D01*
X54801805Y-69739839D01*
X54801810Y-69739840D01*
X55146061Y-69855832D01*
X55500835Y-69933924D01*
X55861966Y-69973199D01*
X55861974Y-69973200D01*
X56225059Y-69973200D01*
X56292098Y-69992885D01*
X56337853Y-70045689D01*
X56347797Y-70114847D01*
X56332446Y-70159200D01*
X56279073Y-70251643D01*
X56279070Y-70251650D01*
X56232236Y-70395791D01*
X56220058Y-70433272D01*
X56202619Y-70599195D01*
X56176034Y-70663809D01*
X56166979Y-70673914D01*
X55508580Y-71332316D01*
X55409767Y-71431129D01*
X55365647Y-71475249D01*
X55321527Y-71519368D01*
X55252203Y-71623118D01*
X55252198Y-71623127D01*
X55204445Y-71738414D01*
X55204443Y-71738422D01*
X55180100Y-71860801D01*
X55180100Y-77243434D01*
X55163487Y-77305434D01*
X55079073Y-77451643D01*
X55079070Y-77451650D01*
X55023298Y-77623299D01*
X55020058Y-77633272D01*
X55000096Y-77823200D01*
X55020058Y-78013128D01*
X55020059Y-78013131D01*
X55079070Y-78194749D01*
X55079073Y-78194756D01*
X55174560Y-78360144D01*
X55261972Y-78457225D01*
X55287416Y-78485484D01*
X55302347Y-78502066D01*
X55456848Y-78614318D01*
X55631312Y-78691994D01*
X55818113Y-78731700D01*
X56009087Y-78731700D01*
X56195888Y-78691994D01*
X56370352Y-78614318D01*
X56524853Y-78502066D01*
X56652640Y-78360144D01*
X56748127Y-78194756D01*
X56807142Y-78013128D01*
X56827104Y-77823200D01*
X56807142Y-77633272D01*
X56748127Y-77451644D01*
X56652640Y-77286256D01*
X56524853Y-77144334D01*
X56524845Y-77144327D01*
X56498214Y-77124978D01*
X56455548Y-77069648D01*
X56447100Y-77024661D01*
X56447100Y-72236966D01*
X56466785Y-72169927D01*
X56483419Y-72149285D01*
X57064686Y-71568019D01*
X57126009Y-71534534D01*
X57152367Y-71531700D01*
X57209087Y-71531700D01*
X57395888Y-71491994D01*
X57570352Y-71414318D01*
X57724853Y-71302066D01*
X57852640Y-71160144D01*
X57948127Y-70994756D01*
X58007142Y-70813128D01*
X58027104Y-70623200D01*
X58007142Y-70433272D01*
X57948127Y-70251644D01*
X57852640Y-70086256D01*
X57724853Y-69944334D01*
X57603041Y-69855832D01*
X57570351Y-69832081D01*
X57564729Y-69828836D01*
X57565752Y-69827063D01*
X57519856Y-69788047D01*
X57499539Y-69721197D01*
X57518589Y-69653974D01*
X57570958Y-69607722D01*
X57571469Y-69607485D01*
X57615066Y-69587315D01*
X57615077Y-69587309D01*
X57926317Y-69400043D01*
X57926333Y-69400032D01*
X58215529Y-69180192D01*
X58231710Y-69164864D01*
X58231710Y-69164863D01*
X56984298Y-67917451D01*
X57085930Y-67843612D01*
X57264012Y-67665530D01*
X57337851Y-67563898D01*
X58582628Y-68808675D01*
X58661592Y-68715714D01*
X58719996Y-68677363D01*
X58789862Y-68676675D01*
X58849009Y-68713869D01*
X58878658Y-68777136D01*
X58880100Y-68795990D01*
X58880100Y-71009434D01*
X58860415Y-71076473D01*
X58843781Y-71097115D01*
X57754350Y-72186545D01*
X57693027Y-72220030D01*
X57692451Y-72220154D01*
X57531313Y-72254405D01*
X57356846Y-72332083D01*
X57202345Y-72444335D01*
X57074559Y-72586257D01*
X56979073Y-72751643D01*
X56979070Y-72751650D01*
X56920059Y-72933268D01*
X56920058Y-72933272D01*
X56900096Y-73123200D01*
X56920058Y-73313128D01*
X56920059Y-73313131D01*
X56979070Y-73494749D01*
X56979073Y-73494756D01*
X57074560Y-73660144D01*
X57202347Y-73802066D01*
X57356848Y-73914318D01*
X57531312Y-73991994D01*
X57718113Y-74031700D01*
X57909087Y-74031700D01*
X58095888Y-73991994D01*
X58270352Y-73914318D01*
X58424853Y-73802066D01*
X58552640Y-73660144D01*
X58648127Y-73494756D01*
X58707142Y-73313128D01*
X58727104Y-73123200D01*
X58722101Y-73075602D01*
X58734670Y-73006874D01*
X58757738Y-72974964D01*
X60005671Y-71727033D01*
X60075000Y-71623275D01*
X60122755Y-71507985D01*
X60147100Y-71385594D01*
X60147100Y-71260806D01*
X60147100Y-69405700D01*
X60166785Y-69338661D01*
X60219589Y-69292906D01*
X60271100Y-69281700D01*
X61792238Y-69281700D01*
X61792254Y-69281699D01*
X61819292Y-69278791D01*
X61852801Y-69275189D01*
X61989804Y-69224089D01*
X62106861Y-69136461D01*
X62194489Y-69019404D01*
X62239738Y-68898087D01*
X62281609Y-68842156D01*
X62347074Y-68817739D01*
X62415346Y-68832591D01*
X62447145Y-68857436D01*
X62510360Y-68926106D01*
X62688024Y-69064389D01*
X62688025Y-69064389D01*
X62688027Y-69064391D01*
X62800099Y-69125041D01*
X62886026Y-69171542D01*
X63098965Y-69244644D01*
X63321031Y-69281700D01*
X63546169Y-69281700D01*
X63768235Y-69244644D01*
X63981174Y-69171542D01*
X64179176Y-69064389D01*
X64356840Y-68926106D01*
X64464944Y-68808675D01*
X64509315Y-68760476D01*
X64509315Y-68760475D01*
X64509322Y-68760468D01*
X64599793Y-68621990D01*
X64652938Y-68576637D01*
X64722169Y-68567213D01*
X64785505Y-68596715D01*
X64807404Y-68621987D01*
X64897878Y-68760468D01*
X64897883Y-68760473D01*
X64897884Y-68760476D01*
X65024568Y-68898089D01*
X65050360Y-68926106D01*
X65228024Y-69064389D01*
X65228026Y-69064390D01*
X65228033Y-69064395D01*
X65275116Y-69089874D01*
X65324707Y-69139092D01*
X65340100Y-69198929D01*
X65340100Y-70745598D01*
X65364443Y-70867977D01*
X65364445Y-70867985D01*
X65412198Y-70983272D01*
X65412203Y-70983281D01*
X65481528Y-71087032D01*
X65481531Y-71087036D01*
X65966979Y-71572484D01*
X66000464Y-71633807D01*
X66002618Y-71647199D01*
X66020058Y-71813128D01*
X66020059Y-71813131D01*
X66079070Y-71994749D01*
X66079073Y-71994756D01*
X66174560Y-72160144D01*
X66302347Y-72302066D01*
X66456848Y-72414318D01*
X66631312Y-72491994D01*
X66818113Y-72531700D01*
X67009087Y-72531700D01*
X67195888Y-72491994D01*
X67370352Y-72414318D01*
X67524853Y-72302066D01*
X67652640Y-72160144D01*
X67748127Y-71994756D01*
X67807142Y-71813128D01*
X67827104Y-71623200D01*
X67807142Y-71433272D01*
X67748127Y-71251644D01*
X67652640Y-71086256D01*
X67524853Y-70944334D01*
X67370352Y-70832082D01*
X67195888Y-70754406D01*
X67195886Y-70754405D01*
X67009087Y-70714700D01*
X66952367Y-70714700D01*
X66885328Y-70695015D01*
X66864686Y-70678381D01*
X66643419Y-70457114D01*
X66609934Y-70395791D01*
X66607100Y-70369433D01*
X66607100Y-69198929D01*
X66626785Y-69131890D01*
X66672084Y-69089874D01*
X66719166Y-69064395D01*
X66719172Y-69064391D01*
X66719176Y-69064389D01*
X66896840Y-68926106D01*
X67004944Y-68808675D01*
X67049315Y-68760476D01*
X67049315Y-68760475D01*
X67049322Y-68760468D01*
X67139793Y-68621990D01*
X67192938Y-68576637D01*
X67262169Y-68567213D01*
X67325505Y-68596715D01*
X67347404Y-68621987D01*
X67437878Y-68760468D01*
X67437883Y-68760473D01*
X67437884Y-68760476D01*
X67590356Y-68926102D01*
X67590361Y-68926107D01*
X67618326Y-68947873D01*
X67768024Y-69064389D01*
X67768025Y-69064389D01*
X67768027Y-69064391D01*
X67880099Y-69125041D01*
X67966026Y-69171542D01*
X68178965Y-69244644D01*
X68401031Y-69281700D01*
X68626169Y-69281700D01*
X68848235Y-69244644D01*
X69061174Y-69171542D01*
X69259176Y-69064389D01*
X69436840Y-68926106D01*
X69544944Y-68808675D01*
X69589315Y-68760476D01*
X69589315Y-68760475D01*
X69589322Y-68760468D01*
X69683349Y-68616547D01*
X69736494Y-68571194D01*
X69805725Y-68561770D01*
X69869061Y-68591272D01*
X69888730Y-68613248D01*
X70015490Y-68794278D01*
X70182517Y-68961305D01*
X70376021Y-69096800D01*
X70590107Y-69196629D01*
X70590116Y-69196633D01*
X70803600Y-69253834D01*
X70803600Y-68356212D01*
X70860607Y-68389125D01*
X70987774Y-68423200D01*
X71119426Y-68423200D01*
X71246593Y-68389125D01*
X71303600Y-68356212D01*
X71303600Y-69253834D01*
X71517083Y-69196633D01*
X71517092Y-69196629D01*
X71731178Y-69096800D01*
X71924682Y-68961305D01*
X72091705Y-68794282D01*
X72218468Y-68613248D01*
X72273045Y-68569623D01*
X72342544Y-68562431D01*
X72404898Y-68593953D01*
X72423851Y-68616550D01*
X72517876Y-68760465D01*
X72517884Y-68760476D01*
X72670356Y-68926102D01*
X72670361Y-68926107D01*
X72698326Y-68947873D01*
X72848024Y-69064389D01*
X72848025Y-69064389D01*
X72848027Y-69064391D01*
X72960099Y-69125041D01*
X73046026Y-69171542D01*
X73258965Y-69244644D01*
X73481031Y-69281700D01*
X73706169Y-69281700D01*
X73928235Y-69244644D01*
X74141174Y-69171542D01*
X74339176Y-69064389D01*
X74516840Y-68926106D01*
X74624944Y-68808675D01*
X74669315Y-68760476D01*
X74669315Y-68760475D01*
X74669322Y-68760468D01*
X74759793Y-68621990D01*
X74812938Y-68576637D01*
X74882169Y-68567213D01*
X74945505Y-68596715D01*
X74967404Y-68621987D01*
X75057878Y-68760468D01*
X75057883Y-68760473D01*
X75057884Y-68760476D01*
X75210356Y-68926102D01*
X75210361Y-68926107D01*
X75238326Y-68947873D01*
X75388024Y-69064389D01*
X75388025Y-69064389D01*
X75388027Y-69064391D01*
X75500099Y-69125041D01*
X75586026Y-69171542D01*
X75798965Y-69244644D01*
X76021031Y-69281700D01*
X76246169Y-69281700D01*
X76468235Y-69244644D01*
X76681174Y-69171542D01*
X76879176Y-69064389D01*
X77056840Y-68926106D01*
X77164944Y-68808675D01*
X77209315Y-68760476D01*
X77209315Y-68760475D01*
X77209322Y-68760468D01*
X77299793Y-68621990D01*
X77352938Y-68576637D01*
X77422169Y-68567213D01*
X77485505Y-68596715D01*
X77507404Y-68621987D01*
X77597878Y-68760468D01*
X77597883Y-68760473D01*
X77597884Y-68760476D01*
X77750356Y-68926102D01*
X77750361Y-68926107D01*
X77778326Y-68947873D01*
X77928024Y-69064389D01*
X77928025Y-69064389D01*
X77928027Y-69064391D01*
X78040099Y-69125041D01*
X78126026Y-69171542D01*
X78338965Y-69244644D01*
X78561031Y-69281700D01*
X78786169Y-69281700D01*
X79008235Y-69244644D01*
X79221174Y-69171542D01*
X79419176Y-69064389D01*
X79596840Y-68926106D01*
X79704944Y-68808675D01*
X79749315Y-68760476D01*
X79749315Y-68760475D01*
X79749322Y-68760468D01*
X79839793Y-68621990D01*
X79892938Y-68576637D01*
X79962169Y-68567213D01*
X80025505Y-68596715D01*
X80047404Y-68621987D01*
X80137878Y-68760468D01*
X80137883Y-68760473D01*
X80137884Y-68760476D01*
X80290356Y-68926102D01*
X80290361Y-68926107D01*
X80318326Y-68947873D01*
X80468024Y-69064389D01*
X80468025Y-69064389D01*
X80468027Y-69064391D01*
X80580099Y-69125041D01*
X80666026Y-69171542D01*
X80878965Y-69244644D01*
X81101031Y-69281700D01*
X81326169Y-69281700D01*
X81548235Y-69244644D01*
X81761174Y-69171542D01*
X81959176Y-69064389D01*
X82136840Y-68926106D01*
X82244944Y-68808675D01*
X82289315Y-68760476D01*
X82289315Y-68760475D01*
X82289322Y-68760468D01*
X82379793Y-68621990D01*
X82432938Y-68576637D01*
X82502169Y-68567213D01*
X82565505Y-68596715D01*
X82587404Y-68621987D01*
X82677878Y-68760468D01*
X82677883Y-68760473D01*
X82677884Y-68760476D01*
X82830356Y-68926102D01*
X82830361Y-68926107D01*
X82858326Y-68947873D01*
X83008024Y-69064389D01*
X83008025Y-69064389D01*
X83008027Y-69064391D01*
X83120099Y-69125041D01*
X83206026Y-69171542D01*
X83418965Y-69244644D01*
X83641031Y-69281700D01*
X83866169Y-69281700D01*
X84088235Y-69244644D01*
X84301174Y-69171542D01*
X84499176Y-69064389D01*
X84676840Y-68926106D01*
X84784944Y-68808675D01*
X84829315Y-68760476D01*
X84829315Y-68760475D01*
X84829322Y-68760468D01*
X84919793Y-68621990D01*
X84972938Y-68576637D01*
X85042169Y-68567213D01*
X85105505Y-68596715D01*
X85127404Y-68621987D01*
X85217878Y-68760468D01*
X85217883Y-68760473D01*
X85217884Y-68760476D01*
X85370356Y-68926102D01*
X85370361Y-68926107D01*
X85398326Y-68947873D01*
X85548024Y-69064389D01*
X85548025Y-69064389D01*
X85548027Y-69064391D01*
X85660099Y-69125041D01*
X85746026Y-69171542D01*
X85958965Y-69244644D01*
X86181031Y-69281700D01*
X86406169Y-69281700D01*
X86628235Y-69244644D01*
X86841174Y-69171542D01*
X87039176Y-69064389D01*
X87216840Y-68926106D01*
X87324944Y-68808675D01*
X87369315Y-68760476D01*
X87369315Y-68760475D01*
X87369322Y-68760468D01*
X87459793Y-68621990D01*
X87512938Y-68576637D01*
X87582169Y-68567213D01*
X87645505Y-68596715D01*
X87667404Y-68621987D01*
X87757878Y-68760468D01*
X87757883Y-68760473D01*
X87757884Y-68760476D01*
X87910356Y-68926102D01*
X87910361Y-68926107D01*
X87938326Y-68947873D01*
X88088024Y-69064389D01*
X88088025Y-69064389D01*
X88088027Y-69064391D01*
X88200099Y-69125041D01*
X88286026Y-69171542D01*
X88498965Y-69244644D01*
X88721031Y-69281700D01*
X88946169Y-69281700D01*
X89168235Y-69244644D01*
X89381174Y-69171542D01*
X89579176Y-69064389D01*
X89756840Y-68926106D01*
X89864944Y-68808675D01*
X89909315Y-68760476D01*
X89909315Y-68760475D01*
X89909322Y-68760468D01*
X90003349Y-68616547D01*
X90056494Y-68571194D01*
X90125725Y-68561770D01*
X90189061Y-68591272D01*
X90208730Y-68613248D01*
X90335490Y-68794278D01*
X90502517Y-68961305D01*
X90696021Y-69096800D01*
X90910107Y-69196629D01*
X90910116Y-69196633D01*
X91123600Y-69253834D01*
X91123600Y-68356212D01*
X91180607Y-68389125D01*
X91307774Y-68423200D01*
X91439426Y-68423200D01*
X91566593Y-68389125D01*
X91623600Y-68356212D01*
X91623600Y-69253833D01*
X91837083Y-69196633D01*
X91837092Y-69196629D01*
X92051178Y-69096800D01*
X92244682Y-68961305D01*
X92411705Y-68794282D01*
X92538468Y-68613248D01*
X92593045Y-68569623D01*
X92662544Y-68562431D01*
X92724898Y-68593953D01*
X92743851Y-68616550D01*
X92837876Y-68760465D01*
X92837884Y-68760476D01*
X92990356Y-68926102D01*
X92990361Y-68926107D01*
X93018326Y-68947873D01*
X93168024Y-69064389D01*
X93168025Y-69064389D01*
X93168027Y-69064391D01*
X93280099Y-69125041D01*
X93366026Y-69171542D01*
X93578965Y-69244644D01*
X93801031Y-69281700D01*
X94026169Y-69281700D01*
X94248235Y-69244644D01*
X94461174Y-69171542D01*
X94659176Y-69064389D01*
X94836840Y-68926106D01*
X94944944Y-68808675D01*
X94989315Y-68760476D01*
X94989315Y-68760475D01*
X94989322Y-68760468D01*
X95079793Y-68621990D01*
X95132938Y-68576637D01*
X95202169Y-68567213D01*
X95265505Y-68596715D01*
X95287404Y-68621987D01*
X95377878Y-68760468D01*
X95377883Y-68760473D01*
X95377884Y-68760476D01*
X95530356Y-68926102D01*
X95530361Y-68926107D01*
X95558326Y-68947873D01*
X95708024Y-69064389D01*
X95801967Y-69115228D01*
X95851558Y-69164447D01*
X95866666Y-69232664D01*
X95842496Y-69298219D01*
X95830631Y-69311964D01*
X93089216Y-72053381D01*
X93027893Y-72086866D01*
X93001535Y-72089700D01*
X71451201Y-72089700D01*
X71328822Y-72114043D01*
X71328814Y-72114045D01*
X71217523Y-72160144D01*
X71213523Y-72161800D01*
X71213521Y-72161801D01*
X71109767Y-72231128D01*
X71109763Y-72231131D01*
X69462515Y-73878381D01*
X69401192Y-73911866D01*
X69374834Y-73914700D01*
X69318113Y-73914700D01*
X69131314Y-73954405D01*
X68956846Y-74032083D01*
X68802345Y-74144335D01*
X68674559Y-74286257D01*
X68579073Y-74451643D01*
X68579070Y-74451650D01*
X68520059Y-74633268D01*
X68520058Y-74633272D01*
X68500096Y-74823200D01*
X68520058Y-75013128D01*
X68520059Y-75013131D01*
X68579070Y-75194749D01*
X68579073Y-75194756D01*
X68674560Y-75360144D01*
X68802347Y-75502066D01*
X68956848Y-75614318D01*
X69131312Y-75691994D01*
X69318113Y-75731700D01*
X69509087Y-75731700D01*
X69695888Y-75691994D01*
X69870352Y-75614318D01*
X69917542Y-75580032D01*
X69983346Y-75556552D01*
X70051401Y-75572377D01*
X70100096Y-75622482D01*
X70113972Y-75690960D01*
X70113750Y-75693282D01*
X70100096Y-75823200D01*
X70120058Y-76013128D01*
X70120059Y-76013131D01*
X70179070Y-76194749D01*
X70179073Y-76194756D01*
X70274560Y-76360144D01*
X70402347Y-76502066D01*
X70556848Y-76614318D01*
X70731312Y-76691994D01*
X70918113Y-76731700D01*
X71109087Y-76731700D01*
X71295888Y-76691994D01*
X71470352Y-76614318D01*
X71624853Y-76502066D01*
X71752640Y-76360144D01*
X71848127Y-76194756D01*
X71907142Y-76013128D01*
X71924581Y-75847199D01*
X71951164Y-75782588D01*
X71960211Y-75772492D01*
X73139686Y-74593019D01*
X73201009Y-74559534D01*
X73227367Y-74556700D01*
X87084833Y-74556700D01*
X87151872Y-74576385D01*
X87197627Y-74629189D01*
X87207571Y-74698347D01*
X87178546Y-74761903D01*
X87172514Y-74768381D01*
X85985206Y-75955688D01*
X85923883Y-75989173D01*
X85865434Y-75987783D01*
X85832972Y-75979085D01*
X85832965Y-75979084D01*
X85613602Y-75959893D01*
X85613598Y-75959893D01*
X85394234Y-75979084D01*
X85394227Y-75979085D01*
X85181520Y-76036081D01*
X84981946Y-76129144D01*
X84981942Y-76129146D01*
X84801567Y-76255447D01*
X84801560Y-76255452D01*
X84645852Y-76411160D01*
X84645847Y-76411167D01*
X84519546Y-76591542D01*
X84519544Y-76591546D01*
X84475277Y-76686477D01*
X84458154Y-76723200D01*
X84455982Y-76727857D01*
X84409810Y-76780296D01*
X84342616Y-76799448D01*
X84275735Y-76779232D01*
X84231218Y-76727857D01*
X84167656Y-76591547D01*
X84167654Y-76591544D01*
X84167653Y-76591542D01*
X84051287Y-76425355D01*
X84041349Y-76411162D01*
X83885638Y-76255451D01*
X83705254Y-76129144D01*
X83677086Y-76116009D01*
X83505681Y-76036082D01*
X83505679Y-76036081D01*
X83505676Y-76036080D01*
X83354377Y-75995539D01*
X83292972Y-75979085D01*
X83292965Y-75979084D01*
X83073602Y-75959893D01*
X83073598Y-75959893D01*
X82854234Y-75979084D01*
X82854227Y-75979085D01*
X82641520Y-76036081D01*
X82441946Y-76129144D01*
X82441942Y-76129146D01*
X82261567Y-76255447D01*
X82261560Y-76255452D01*
X82105852Y-76411160D01*
X82105847Y-76411167D01*
X81979546Y-76591542D01*
X81979544Y-76591546D01*
X81935277Y-76686477D01*
X81918154Y-76723200D01*
X81915982Y-76727857D01*
X81869810Y-76780296D01*
X81802616Y-76799448D01*
X81735735Y-76779232D01*
X81691218Y-76727857D01*
X81627656Y-76591547D01*
X81627654Y-76591544D01*
X81627653Y-76591542D01*
X81511287Y-76425355D01*
X81501349Y-76411162D01*
X81345638Y-76255451D01*
X81165254Y-76129144D01*
X81137086Y-76116009D01*
X80965681Y-76036082D01*
X80965679Y-76036081D01*
X80965676Y-76036080D01*
X80814377Y-75995539D01*
X80752972Y-75979085D01*
X80752965Y-75979084D01*
X80533602Y-75959893D01*
X80533598Y-75959893D01*
X80314234Y-75979084D01*
X80314227Y-75979085D01*
X80101520Y-76036081D01*
X79901946Y-76129144D01*
X79901942Y-76129146D01*
X79721567Y-76255447D01*
X79721560Y-76255452D01*
X79565852Y-76411160D01*
X79565847Y-76411167D01*
X79439546Y-76591542D01*
X79439544Y-76591546D01*
X79395277Y-76686477D01*
X79378154Y-76723200D01*
X79375982Y-76727857D01*
X79329810Y-76780296D01*
X79262616Y-76799448D01*
X79195735Y-76779232D01*
X79151218Y-76727857D01*
X79087656Y-76591547D01*
X79087654Y-76591544D01*
X79087653Y-76591542D01*
X78971287Y-76425355D01*
X78961349Y-76411162D01*
X78805638Y-76255451D01*
X78625254Y-76129144D01*
X78597086Y-76116009D01*
X78425681Y-76036082D01*
X78425679Y-76036081D01*
X78425676Y-76036080D01*
X78274377Y-75995539D01*
X78212972Y-75979085D01*
X78212965Y-75979084D01*
X77993602Y-75959893D01*
X77993598Y-75959893D01*
X77774234Y-75979084D01*
X77774227Y-75979085D01*
X77561520Y-76036081D01*
X77361946Y-76129144D01*
X77361942Y-76129146D01*
X77181567Y-76255447D01*
X77181560Y-76255452D01*
X77025852Y-76411160D01*
X77025847Y-76411167D01*
X76929175Y-76549229D01*
X76874598Y-76592854D01*
X76805100Y-76600047D01*
X76742745Y-76568525D01*
X76707331Y-76508295D01*
X76703600Y-76478106D01*
X76703600Y-76425372D01*
X76703599Y-76425355D01*
X76697198Y-76365827D01*
X76697196Y-76365820D01*
X76646954Y-76231113D01*
X76646950Y-76231106D01*
X76560790Y-76116012D01*
X76560787Y-76116009D01*
X76445693Y-76029849D01*
X76445686Y-76029845D01*
X76310979Y-75979603D01*
X76310972Y-75979601D01*
X76251444Y-75973200D01*
X75703600Y-75973200D01*
X75703600Y-76790188D01*
X75646593Y-76757275D01*
X75519426Y-76723200D01*
X75387774Y-76723200D01*
X75260607Y-76757275D01*
X75203600Y-76790188D01*
X75203600Y-75973200D01*
X74655755Y-75973200D01*
X74596227Y-75979601D01*
X74596220Y-75979603D01*
X74461513Y-76029845D01*
X74461506Y-76029849D01*
X74346412Y-76116009D01*
X74346409Y-76116012D01*
X74260249Y-76231106D01*
X74260245Y-76231113D01*
X74210003Y-76365820D01*
X74210001Y-76365827D01*
X74203600Y-76425355D01*
X74203600Y-76973200D01*
X75020588Y-76973200D01*
X74987675Y-77030207D01*
X74953600Y-77157374D01*
X74953600Y-77289026D01*
X74987675Y-77416193D01*
X75020588Y-77473200D01*
X74203600Y-77473200D01*
X74203600Y-78021044D01*
X74210001Y-78080572D01*
X74210003Y-78080579D01*
X74260245Y-78215286D01*
X74260249Y-78215293D01*
X74346409Y-78330387D01*
X74346412Y-78330390D01*
X74461506Y-78416550D01*
X74461513Y-78416554D01*
X74596220Y-78466796D01*
X74596227Y-78466798D01*
X74655755Y-78473199D01*
X74655772Y-78473200D01*
X75203600Y-78473200D01*
X75203600Y-77656212D01*
X75260607Y-77689125D01*
X75387774Y-77723200D01*
X75519426Y-77723200D01*
X75646593Y-77689125D01*
X75703600Y-77656212D01*
X75703600Y-78473200D01*
X76251428Y-78473200D01*
X76251444Y-78473199D01*
X76310972Y-78466798D01*
X76310976Y-78466797D01*
X76412766Y-78428832D01*
X76482458Y-78423848D01*
X76543781Y-78457333D01*
X76577266Y-78518656D01*
X76580100Y-78545014D01*
X76580100Y-80409433D01*
X76560415Y-80476472D01*
X76543781Y-80497114D01*
X76521531Y-80519363D01*
X76521528Y-80519367D01*
X76452203Y-80623118D01*
X76452198Y-80623127D01*
X76404445Y-80738414D01*
X76404443Y-80738422D01*
X76380100Y-80860801D01*
X76380100Y-81687676D01*
X76360415Y-81754715D01*
X76321198Y-81793213D01*
X76233786Y-81847130D01*
X76189946Y-81874171D01*
X76064571Y-81999546D01*
X75971486Y-82150459D01*
X75971484Y-82150464D01*
X75915713Y-82318772D01*
X75905100Y-82422647D01*
X75905100Y-83423737D01*
X75905101Y-83423753D01*
X75915713Y-83527627D01*
X75935218Y-83586489D01*
X75971485Y-83695938D01*
X76052347Y-83827036D01*
X76064571Y-83846853D01*
X76104193Y-83886475D01*
X76137678Y-83947798D01*
X76132694Y-84017490D01*
X76093425Y-84071420D01*
X76089950Y-84074167D01*
X75964571Y-84199546D01*
X75871486Y-84350459D01*
X75871484Y-84350464D01*
X75815713Y-84518772D01*
X75805100Y-84622647D01*
X75805100Y-85623737D01*
X75805101Y-85623753D01*
X75815713Y-85727627D01*
X75871484Y-85895935D01*
X75871486Y-85895940D01*
X75906742Y-85953098D01*
X75964570Y-86046852D01*
X76089948Y-86172230D01*
X76240862Y-86265315D01*
X76409174Y-86321087D01*
X76513055Y-86331700D01*
X77314144Y-86331699D01*
X77418026Y-86321087D01*
X77586338Y-86265315D01*
X77737252Y-86172230D01*
X77825919Y-86083563D01*
X77887242Y-86050078D01*
X77956934Y-86055062D01*
X78001281Y-86083563D01*
X78089948Y-86172230D01*
X78240862Y-86265315D01*
X78409174Y-86321087D01*
X78513055Y-86331700D01*
X79314144Y-86331699D01*
X79418026Y-86321087D01*
X79586338Y-86265315D01*
X79737252Y-86172230D01*
X79862630Y-86046852D01*
X79955715Y-85895938D01*
X79993912Y-85780662D01*
X80033682Y-85723220D01*
X80064162Y-85705108D01*
X80113675Y-85684600D01*
X80217433Y-85615271D01*
X82005671Y-83827033D01*
X82008232Y-83823200D01*
X83500435Y-83823200D01*
X83519065Y-84059914D01*
X83574495Y-84290795D01*
X83574495Y-84290797D01*
X83665357Y-84510159D01*
X83665359Y-84510162D01*
X83789420Y-84712610D01*
X83789421Y-84712613D01*
X83789424Y-84712616D01*
X83943631Y-84893169D01*
X84083397Y-85012540D01*
X84124186Y-85047378D01*
X84124189Y-85047379D01*
X84326637Y-85171440D01*
X84326640Y-85171442D01*
X84546003Y-85262304D01*
X84546004Y-85262304D01*
X84546006Y-85262305D01*
X84776889Y-85317735D01*
X85013600Y-85336365D01*
X85250311Y-85317735D01*
X85481194Y-85262305D01*
X85481196Y-85262304D01*
X85481197Y-85262304D01*
X85700559Y-85171442D01*
X85700560Y-85171441D01*
X85700563Y-85171440D01*
X85903016Y-85047376D01*
X86083569Y-84893169D01*
X86237776Y-84712616D01*
X86361840Y-84510163D01*
X86395426Y-84429080D01*
X86452704Y-84290797D01*
X86452704Y-84290796D01*
X86452705Y-84290794D01*
X86508135Y-84059911D01*
X86526765Y-83823200D01*
X86511024Y-83623200D01*
X87500435Y-83623200D01*
X87519065Y-83859914D01*
X87574495Y-84090795D01*
X87574495Y-84090797D01*
X87665357Y-84310159D01*
X87665359Y-84310162D01*
X87789420Y-84512610D01*
X87789421Y-84512613D01*
X87806050Y-84532083D01*
X87943631Y-84693169D01*
X88052622Y-84786256D01*
X88124186Y-84847378D01*
X88124189Y-84847379D01*
X88326637Y-84971440D01*
X88326640Y-84971442D01*
X88546003Y-85062304D01*
X88546004Y-85062304D01*
X88546006Y-85062305D01*
X88776889Y-85117735D01*
X89013600Y-85136365D01*
X89250311Y-85117735D01*
X89481194Y-85062305D01*
X89481196Y-85062304D01*
X89481197Y-85062304D01*
X89700559Y-84971442D01*
X89700560Y-84971441D01*
X89700563Y-84971440D01*
X89903016Y-84847376D01*
X90083569Y-84693169D01*
X90237776Y-84512616D01*
X90361840Y-84310163D01*
X90369863Y-84290795D01*
X90452704Y-84090797D01*
X90452704Y-84090796D01*
X90452705Y-84090794D01*
X90508135Y-83859911D01*
X90526765Y-83623200D01*
X91100435Y-83623200D01*
X91119065Y-83859914D01*
X91174495Y-84090795D01*
X91174495Y-84090797D01*
X91265357Y-84310159D01*
X91265359Y-84310162D01*
X91389420Y-84512610D01*
X91389421Y-84512613D01*
X91406050Y-84532083D01*
X91543631Y-84693169D01*
X91652622Y-84786256D01*
X91724186Y-84847378D01*
X91724189Y-84847379D01*
X91926637Y-84971440D01*
X91926640Y-84971442D01*
X92146003Y-85062304D01*
X92146004Y-85062304D01*
X92146006Y-85062305D01*
X92376889Y-85117735D01*
X92613600Y-85136365D01*
X92850311Y-85117735D01*
X93081194Y-85062305D01*
X93081196Y-85062304D01*
X93081197Y-85062304D01*
X93300559Y-84971442D01*
X93300560Y-84971441D01*
X93300563Y-84971440D01*
X93503016Y-84847376D01*
X93683569Y-84693169D01*
X93837776Y-84512616D01*
X93961840Y-84310163D01*
X93969863Y-84290795D01*
X94052704Y-84090797D01*
X94052704Y-84090796D01*
X94052705Y-84090794D01*
X94108135Y-83859911D01*
X94126765Y-83623200D01*
X94108135Y-83386489D01*
X94052705Y-83155606D01*
X94052704Y-83155603D01*
X94052704Y-83155602D01*
X94039283Y-83123200D01*
X109200096Y-83123200D01*
X109220058Y-83313128D01*
X109220059Y-83313131D01*
X109279070Y-83494749D01*
X109279073Y-83494756D01*
X109374560Y-83660144D01*
X109431409Y-83723281D01*
X109488844Y-83787070D01*
X109502347Y-83802066D01*
X109656848Y-83914318D01*
X109831312Y-83991994D01*
X110018113Y-84031700D01*
X110209087Y-84031700D01*
X110395888Y-83991994D01*
X110570352Y-83914318D01*
X110724853Y-83802066D01*
X110852640Y-83660144D01*
X110948127Y-83494756D01*
X111007142Y-83313128D01*
X111027104Y-83123200D01*
X111007142Y-82933272D01*
X110948127Y-82751644D01*
X110909993Y-82685594D01*
X110863713Y-82605434D01*
X110847100Y-82543434D01*
X110847100Y-78763198D01*
X117600225Y-78763198D01*
X117600225Y-78763201D01*
X117619700Y-79035507D01*
X117677728Y-79302253D01*
X117677730Y-79302260D01*
X117736964Y-79461073D01*
X117773133Y-79558046D01*
X117773135Y-79558050D01*
X117903963Y-79797643D01*
X117903968Y-79797651D01*
X118067561Y-80016186D01*
X118067577Y-80016204D01*
X118260595Y-80209222D01*
X118260613Y-80209238D01*
X118479148Y-80372831D01*
X118479156Y-80372836D01*
X118718749Y-80503664D01*
X118718753Y-80503666D01*
X118718755Y-80503667D01*
X118974540Y-80599070D01*
X119085128Y-80623127D01*
X119241292Y-80657099D01*
X119241294Y-80657099D01*
X119241298Y-80657100D01*
X119483282Y-80674406D01*
X119513599Y-80676575D01*
X119513600Y-80676575D01*
X119513601Y-80676575D01*
X119540880Y-80674623D01*
X119785902Y-80657100D01*
X120052660Y-80599070D01*
X120308445Y-80503667D01*
X120548049Y-80372833D01*
X120766594Y-80209232D01*
X120959632Y-80016194D01*
X121123233Y-79797649D01*
X121254067Y-79558045D01*
X121349470Y-79302260D01*
X121407500Y-79035502D01*
X121426975Y-78763200D01*
X121407500Y-78490898D01*
X121406322Y-78485484D01*
X121349471Y-78224146D01*
X121349470Y-78224140D01*
X121254067Y-77968355D01*
X121192088Y-77854850D01*
X121123236Y-77728756D01*
X121123231Y-77728748D01*
X120959638Y-77510213D01*
X120959622Y-77510195D01*
X120766604Y-77317177D01*
X120766586Y-77317161D01*
X120548051Y-77153568D01*
X120548043Y-77153563D01*
X120308450Y-77022735D01*
X120308446Y-77022733D01*
X120175642Y-76973200D01*
X120052660Y-76927330D01*
X120052656Y-76927329D01*
X120052653Y-76927328D01*
X119785907Y-76869300D01*
X119513601Y-76849825D01*
X119513599Y-76849825D01*
X119241292Y-76869300D01*
X118974546Y-76927328D01*
X118974541Y-76927329D01*
X118974540Y-76927330D01*
X118912697Y-76950396D01*
X118718753Y-77022733D01*
X118718749Y-77022735D01*
X118479156Y-77153563D01*
X118479148Y-77153568D01*
X118260613Y-77317161D01*
X118260595Y-77317177D01*
X118067577Y-77510195D01*
X118067561Y-77510213D01*
X117903968Y-77728748D01*
X117903963Y-77728756D01*
X117773135Y-77968349D01*
X117773133Y-77968353D01*
X117700796Y-78162297D01*
X117681033Y-78215286D01*
X117677728Y-78224146D01*
X117619700Y-78490892D01*
X117600225Y-78763198D01*
X110847100Y-78763198D01*
X110847100Y-71432635D01*
X110866785Y-71365596D01*
X110898212Y-71332319D01*
X110939853Y-71302066D01*
X111067640Y-71160144D01*
X111163127Y-70994756D01*
X111222142Y-70813128D01*
X111242104Y-70623200D01*
X111222142Y-70433272D01*
X111163127Y-70251644D01*
X111067640Y-70086256D01*
X110939853Y-69944334D01*
X110785352Y-69832082D01*
X110610888Y-69754406D01*
X110610886Y-69754405D01*
X110424087Y-69714700D01*
X110233113Y-69714700D01*
X110046314Y-69754405D01*
X109871846Y-69832083D01*
X109717345Y-69944335D01*
X109589559Y-70086257D01*
X109494073Y-70251643D01*
X109494070Y-70251650D01*
X109447236Y-70395791D01*
X109435058Y-70433272D01*
X109415096Y-70623200D01*
X109435058Y-70813128D01*
X109435059Y-70813131D01*
X109494070Y-70994749D01*
X109494073Y-70994756D01*
X109553170Y-71097115D01*
X109563487Y-71114983D01*
X109580100Y-71176983D01*
X109580100Y-82324661D01*
X109560415Y-82391700D01*
X109528986Y-82424978D01*
X109502354Y-82444327D01*
X109502346Y-82444334D01*
X109374559Y-82586257D01*
X109279073Y-82751643D01*
X109279070Y-82751650D01*
X109223307Y-82923272D01*
X109220058Y-82933272D01*
X109200096Y-83123200D01*
X94039283Y-83123200D01*
X93961842Y-82936240D01*
X93961840Y-82936237D01*
X93837779Y-82733789D01*
X93837778Y-82733786D01*
X93796618Y-82685594D01*
X93683569Y-82553231D01*
X93530693Y-82422662D01*
X93503013Y-82399021D01*
X93503010Y-82399020D01*
X93300562Y-82274959D01*
X93300559Y-82274957D01*
X93081196Y-82184095D01*
X92850314Y-82128665D01*
X92613600Y-82110035D01*
X92376885Y-82128665D01*
X92146004Y-82184095D01*
X92146002Y-82184095D01*
X91926640Y-82274957D01*
X91926637Y-82274959D01*
X91724189Y-82399020D01*
X91724186Y-82399021D01*
X91543631Y-82553231D01*
X91389421Y-82733786D01*
X91389420Y-82733789D01*
X91265359Y-82936237D01*
X91265357Y-82936240D01*
X91174495Y-83155602D01*
X91174495Y-83155604D01*
X91119065Y-83386485D01*
X91100435Y-83623200D01*
X90526765Y-83623200D01*
X90508135Y-83386489D01*
X90452705Y-83155606D01*
X90452704Y-83155603D01*
X90452704Y-83155602D01*
X90361842Y-82936240D01*
X90361840Y-82936237D01*
X90237779Y-82733789D01*
X90237778Y-82733786D01*
X90196618Y-82685594D01*
X90083569Y-82553231D01*
X89930693Y-82422662D01*
X89903013Y-82399021D01*
X89903010Y-82399020D01*
X89700562Y-82274959D01*
X89700559Y-82274957D01*
X89481196Y-82184095D01*
X89250314Y-82128665D01*
X89013600Y-82110035D01*
X88776885Y-82128665D01*
X88546004Y-82184095D01*
X88546002Y-82184095D01*
X88326640Y-82274957D01*
X88326637Y-82274959D01*
X88124189Y-82399020D01*
X88124186Y-82399021D01*
X87943631Y-82553231D01*
X87789421Y-82733786D01*
X87789420Y-82733789D01*
X87665359Y-82936237D01*
X87665357Y-82936240D01*
X87574495Y-83155602D01*
X87574495Y-83155604D01*
X87519065Y-83386485D01*
X87500435Y-83623200D01*
X86511024Y-83623200D01*
X86508135Y-83586489D01*
X86452705Y-83355606D01*
X86452704Y-83355603D01*
X86452704Y-83355602D01*
X86361842Y-83136240D01*
X86361840Y-83136237D01*
X86237779Y-82933789D01*
X86237778Y-82933786D01*
X86130333Y-82807985D01*
X86083569Y-82753231D01*
X85964196Y-82651276D01*
X85903013Y-82599021D01*
X85903010Y-82599020D01*
X85700562Y-82474959D01*
X85700559Y-82474957D01*
X85481196Y-82384095D01*
X85250314Y-82328665D01*
X85013600Y-82310035D01*
X84776885Y-82328665D01*
X84546004Y-82384095D01*
X84546002Y-82384095D01*
X84326640Y-82474957D01*
X84326637Y-82474959D01*
X84124189Y-82599020D01*
X84124186Y-82599021D01*
X83943631Y-82753231D01*
X83789421Y-82933786D01*
X83789420Y-82933789D01*
X83665359Y-83136237D01*
X83665357Y-83136240D01*
X83574495Y-83355602D01*
X83574495Y-83355604D01*
X83519065Y-83586485D01*
X83500435Y-83823200D01*
X82008232Y-83823200D01*
X82075000Y-83723275D01*
X82122755Y-83607985D01*
X82147100Y-83485594D01*
X82147100Y-83360806D01*
X82147100Y-79096965D01*
X82166785Y-79029926D01*
X82183415Y-79009288D01*
X82701994Y-78490708D01*
X82763315Y-78457225D01*
X82821768Y-78458616D01*
X82854229Y-78467315D01*
X83034943Y-78483125D01*
X83073598Y-78486507D01*
X83073600Y-78486507D01*
X83073602Y-78486507D01*
X83128442Y-78481709D01*
X83292971Y-78467315D01*
X83505676Y-78410320D01*
X83705254Y-78317256D01*
X83885638Y-78190949D01*
X84041349Y-78035238D01*
X84167656Y-77854854D01*
X84231218Y-77718544D01*
X84277390Y-77666104D01*
X84344583Y-77646952D01*
X84411465Y-77667167D01*
X84455982Y-77718544D01*
X84504783Y-77823200D01*
X84519544Y-77854854D01*
X84645851Y-78035238D01*
X84801562Y-78190949D01*
X84981946Y-78317256D01*
X85181524Y-78410320D01*
X85394229Y-78467315D01*
X85550922Y-78481023D01*
X85613598Y-78486507D01*
X85613600Y-78486507D01*
X85613602Y-78486507D01*
X85668442Y-78481709D01*
X85832971Y-78467315D01*
X86045676Y-78410320D01*
X86245254Y-78317256D01*
X86425638Y-78190949D01*
X86581349Y-78035238D01*
X86707656Y-77854854D01*
X86771218Y-77718544D01*
X86817390Y-77666104D01*
X86884583Y-77646952D01*
X86951465Y-77667167D01*
X86995982Y-77718544D01*
X87044783Y-77823200D01*
X87059544Y-77854854D01*
X87185851Y-78035238D01*
X87341562Y-78190949D01*
X87521946Y-78317256D01*
X87721524Y-78410320D01*
X87934229Y-78467315D01*
X88090922Y-78481023D01*
X88153598Y-78486507D01*
X88153600Y-78486507D01*
X88153602Y-78486507D01*
X88208442Y-78481709D01*
X88372971Y-78467315D01*
X88585676Y-78410320D01*
X88785254Y-78317256D01*
X88965638Y-78190949D01*
X89121349Y-78035238D01*
X89247656Y-77854854D01*
X89311218Y-77718544D01*
X89357390Y-77666104D01*
X89424583Y-77646952D01*
X89491465Y-77667167D01*
X89535982Y-77718544D01*
X89584783Y-77823200D01*
X89599544Y-77854854D01*
X89725851Y-78035238D01*
X89881562Y-78190949D01*
X90061946Y-78317256D01*
X90261524Y-78410320D01*
X90474229Y-78467315D01*
X90630922Y-78481023D01*
X90693598Y-78486507D01*
X90693600Y-78486507D01*
X90693602Y-78486507D01*
X90748442Y-78481709D01*
X90912971Y-78467315D01*
X91125676Y-78410320D01*
X91325254Y-78317256D01*
X91505638Y-78190949D01*
X91661349Y-78035238D01*
X91787656Y-77854854D01*
X91880720Y-77655276D01*
X91937715Y-77442571D01*
X91956907Y-77223200D01*
X91937715Y-77003829D01*
X91880720Y-76791124D01*
X91787656Y-76591547D01*
X91787654Y-76591544D01*
X91787653Y-76591542D01*
X91671287Y-76425355D01*
X91661349Y-76411162D01*
X91505638Y-76255451D01*
X91325254Y-76129144D01*
X91297086Y-76116009D01*
X91125681Y-76036082D01*
X91125679Y-76036081D01*
X91125676Y-76036080D01*
X90974377Y-75995539D01*
X90912972Y-75979085D01*
X90912965Y-75979084D01*
X90693602Y-75959893D01*
X90693598Y-75959893D01*
X90474234Y-75979084D01*
X90474227Y-75979085D01*
X90261520Y-76036081D01*
X90061946Y-76129144D01*
X90061942Y-76129146D01*
X89881567Y-76255447D01*
X89881560Y-76255452D01*
X89725852Y-76411160D01*
X89725847Y-76411167D01*
X89599546Y-76591542D01*
X89599544Y-76591546D01*
X89555277Y-76686477D01*
X89538154Y-76723200D01*
X89535982Y-76727857D01*
X89489810Y-76780296D01*
X89422616Y-76799448D01*
X89355735Y-76779232D01*
X89311218Y-76727857D01*
X89247656Y-76591547D01*
X89247654Y-76591544D01*
X89247653Y-76591542D01*
X89131287Y-76425355D01*
X89121349Y-76411162D01*
X88965638Y-76255451D01*
X88785254Y-76129144D01*
X88757086Y-76116009D01*
X88585681Y-76036082D01*
X88585679Y-76036081D01*
X88585676Y-76036080D01*
X88434377Y-75995539D01*
X88372972Y-75979085D01*
X88372965Y-75979084D01*
X88153602Y-75959893D01*
X88153596Y-75959893D01*
X88075691Y-75966708D01*
X88007191Y-75952941D01*
X87957009Y-75904325D01*
X87941076Y-75836296D01*
X87964452Y-75770453D01*
X87977189Y-75755514D01*
X88239688Y-75493016D01*
X88301009Y-75459534D01*
X88327367Y-75456700D01*
X98275995Y-75456700D01*
X98275996Y-75456699D01*
X98398385Y-75432355D01*
X98513675Y-75384600D01*
X98617433Y-75315271D01*
X99364685Y-74568019D01*
X99426008Y-74534534D01*
X99452366Y-74531700D01*
X99509087Y-74531700D01*
X99695888Y-74491994D01*
X99870352Y-74414318D01*
X100024853Y-74302066D01*
X100152640Y-74160144D01*
X100248127Y-73994756D01*
X100307142Y-73813128D01*
X100327104Y-73623200D01*
X100307142Y-73433272D01*
X100248127Y-73251644D01*
X100152640Y-73086256D01*
X100024853Y-72944334D01*
X99870352Y-72832082D01*
X99695888Y-72754406D01*
X99695886Y-72754405D01*
X99695885Y-72754405D01*
X99559796Y-72725478D01*
X99498314Y-72692285D01*
X99464538Y-72631122D01*
X99469190Y-72561408D01*
X99497894Y-72516509D01*
X103038032Y-68976372D01*
X103099353Y-68942889D01*
X103169045Y-68947873D01*
X103201874Y-68966202D01*
X103270228Y-69019404D01*
X103328024Y-69064389D01*
X103328025Y-69064389D01*
X103328027Y-69064391D01*
X103440099Y-69125041D01*
X103526026Y-69171542D01*
X103738965Y-69244644D01*
X103961031Y-69281700D01*
X104186169Y-69281700D01*
X104408235Y-69244644D01*
X104621174Y-69171542D01*
X104819176Y-69064389D01*
X104996840Y-68926106D01*
X105104944Y-68808675D01*
X105149315Y-68760476D01*
X105149315Y-68760475D01*
X105149322Y-68760468D01*
X105239793Y-68621990D01*
X105292938Y-68576637D01*
X105362169Y-68567213D01*
X105425505Y-68596715D01*
X105447404Y-68621987D01*
X105537878Y-68760468D01*
X105537883Y-68760473D01*
X105537884Y-68760476D01*
X105690356Y-68926102D01*
X105690361Y-68926107D01*
X105718326Y-68947873D01*
X105868024Y-69064389D01*
X105868025Y-69064389D01*
X105868027Y-69064391D01*
X105980099Y-69125041D01*
X106066026Y-69171542D01*
X106278965Y-69244644D01*
X106501031Y-69281700D01*
X106726169Y-69281700D01*
X106948235Y-69244644D01*
X107161174Y-69171542D01*
X107359176Y-69064389D01*
X107536840Y-68926106D01*
X107644944Y-68808675D01*
X107689315Y-68760476D01*
X107689315Y-68760475D01*
X107689322Y-68760468D01*
X107783349Y-68616547D01*
X107836494Y-68571194D01*
X107905725Y-68561770D01*
X107969061Y-68591272D01*
X107988730Y-68613248D01*
X108115490Y-68794278D01*
X108282517Y-68961305D01*
X108476021Y-69096800D01*
X108690107Y-69196629D01*
X108690116Y-69196633D01*
X108903600Y-69253834D01*
X108903600Y-68356212D01*
X108960607Y-68389125D01*
X109087774Y-68423200D01*
X109219426Y-68423200D01*
X109346593Y-68389125D01*
X109403600Y-68356212D01*
X109403600Y-69253833D01*
X109617083Y-69196633D01*
X109617092Y-69196629D01*
X109831178Y-69096800D01*
X110024682Y-68961305D01*
X110191705Y-68794282D01*
X110327200Y-68600778D01*
X110427029Y-68386692D01*
X110427032Y-68386686D01*
X110484236Y-68173200D01*
X109586612Y-68173200D01*
X109619525Y-68116193D01*
X109653600Y-67989026D01*
X109653600Y-67857374D01*
X109619525Y-67730207D01*
X109586612Y-67673200D01*
X110484236Y-67673200D01*
X110484235Y-67673199D01*
X110427032Y-67459713D01*
X110427029Y-67459707D01*
X110327200Y-67245622D01*
X110327199Y-67245620D01*
X110191713Y-67052126D01*
X110191708Y-67052120D01*
X110024682Y-66885094D01*
X109843797Y-66758436D01*
X109800172Y-66703859D01*
X109792980Y-66634360D01*
X109798623Y-66623197D01*
X110688680Y-66623197D01*
X110688680Y-66623202D01*
X110708346Y-66985928D01*
X110767117Y-67344414D01*
X110767119Y-67344422D01*
X110864295Y-67694420D01*
X110864297Y-67694427D01*
X110998752Y-68031884D01*
X110998761Y-68031902D01*
X111168916Y-68352847D01*
X111168918Y-68352851D01*
X111372770Y-68653509D01*
X111372777Y-68653519D01*
X111504569Y-68808675D01*
X111504570Y-68808675D01*
X112749347Y-67563897D01*
X112823188Y-67665530D01*
X113001270Y-67843612D01*
X113102900Y-67917451D01*
X111855488Y-69164862D01*
X111855488Y-69164864D01*
X111871670Y-69180192D01*
X111871671Y-69180193D01*
X112160866Y-69400032D01*
X112160882Y-69400043D01*
X112472122Y-69587309D01*
X112472135Y-69587316D01*
X112801805Y-69739839D01*
X112801810Y-69739840D01*
X113146061Y-69855832D01*
X113500835Y-69933924D01*
X113861966Y-69973199D01*
X113861974Y-69973200D01*
X114225226Y-69973200D01*
X114225233Y-69973199D01*
X114586364Y-69933924D01*
X114941138Y-69855832D01*
X115285389Y-69739840D01*
X115285394Y-69739839D01*
X115615064Y-69587316D01*
X115615077Y-69587309D01*
X115926317Y-69400043D01*
X115926333Y-69400032D01*
X116215529Y-69180192D01*
X116231710Y-69164864D01*
X116231710Y-69164863D01*
X114984298Y-67917451D01*
X115085930Y-67843612D01*
X115264012Y-67665530D01*
X115337851Y-67563898D01*
X116582628Y-68808675D01*
X116582629Y-68808675D01*
X116714427Y-68653511D01*
X116714438Y-68653497D01*
X116918281Y-68352851D01*
X116918283Y-68352847D01*
X117088438Y-68031902D01*
X117088447Y-68031884D01*
X117222902Y-67694427D01*
X117222904Y-67694420D01*
X117320080Y-67344422D01*
X117320082Y-67344414D01*
X117378853Y-66985928D01*
X117398520Y-66623202D01*
X117398520Y-66623197D01*
X117378853Y-66260471D01*
X117320082Y-65901985D01*
X117320080Y-65901977D01*
X117222904Y-65551979D01*
X117222902Y-65551972D01*
X117088447Y-65214515D01*
X117088438Y-65214497D01*
X116918283Y-64893552D01*
X116918281Y-64893548D01*
X116714429Y-64592890D01*
X116714422Y-64592880D01*
X116582629Y-64437723D01*
X116582628Y-64437723D01*
X115337851Y-65682500D01*
X115264012Y-65580870D01*
X115085930Y-65402788D01*
X114984297Y-65328947D01*
X116231710Y-64081536D01*
X116231710Y-64081534D01*
X116215529Y-64066207D01*
X116215528Y-64066206D01*
X115926333Y-63846367D01*
X115926317Y-63846356D01*
X115615077Y-63659090D01*
X115615064Y-63659083D01*
X115285394Y-63506560D01*
X115285389Y-63506559D01*
X114941138Y-63390567D01*
X114586364Y-63312475D01*
X114225233Y-63273200D01*
X113861966Y-63273200D01*
X113500835Y-63312475D01*
X113146061Y-63390567D01*
X112801810Y-63506559D01*
X112801805Y-63506560D01*
X112472135Y-63659083D01*
X112472122Y-63659090D01*
X112160882Y-63846356D01*
X112160866Y-63846367D01*
X111871675Y-64066202D01*
X111855488Y-64081535D01*
X111855487Y-64081535D01*
X113102901Y-65328948D01*
X113001270Y-65402788D01*
X112823188Y-65580870D01*
X112749348Y-65682501D01*
X111504570Y-64437722D01*
X111504569Y-64437723D01*
X111372777Y-64592880D01*
X111372770Y-64592890D01*
X111168918Y-64893548D01*
X111168916Y-64893552D01*
X110998761Y-65214497D01*
X110998752Y-65214515D01*
X110864297Y-65551972D01*
X110864295Y-65551979D01*
X110767119Y-65901977D01*
X110767117Y-65901985D01*
X110708346Y-66260471D01*
X110688680Y-66623197D01*
X109798623Y-66623197D01*
X109824502Y-66572006D01*
X109855900Y-66547808D01*
X109899176Y-66524389D01*
X110076840Y-66386106D01*
X110198194Y-66254282D01*
X110229315Y-66220476D01*
X110229319Y-66220471D01*
X110229322Y-66220468D01*
X110352460Y-66031991D01*
X110442896Y-65825816D01*
X110498164Y-65607568D01*
X110500377Y-65580870D01*
X110516756Y-65383200D01*
X110516756Y-65383194D01*
X110498165Y-65158840D01*
X110498163Y-65158828D01*
X110473794Y-65062597D01*
X110442896Y-64940584D01*
X110352460Y-64734409D01*
X110336306Y-64709684D01*
X110260001Y-64592890D01*
X110229322Y-64545932D01*
X110229319Y-64545929D01*
X110229315Y-64545923D01*
X110076843Y-64380297D01*
X110076838Y-64380292D01*
X109958397Y-64288105D01*
X109899176Y-64242011D01*
X109899175Y-64242010D01*
X109899172Y-64242008D01*
X109701180Y-64134861D01*
X109701177Y-64134859D01*
X109701174Y-64134858D01*
X109701171Y-64134857D01*
X109701169Y-64134856D01*
X109488237Y-64061756D01*
X109266169Y-64024700D01*
X109041031Y-64024700D01*
X108818962Y-64061756D01*
X108606030Y-64134856D01*
X108606019Y-64134861D01*
X108408027Y-64242008D01*
X108408022Y-64242012D01*
X108230361Y-64380292D01*
X108230356Y-64380297D01*
X108077884Y-64545923D01*
X108077876Y-64545934D01*
X107987408Y-64684406D01*
X107934262Y-64729762D01*
X107865031Y-64739186D01*
X107801695Y-64709684D01*
X107779792Y-64684406D01*
X107689323Y-64545934D01*
X107689315Y-64545923D01*
X107536843Y-64380297D01*
X107536838Y-64380292D01*
X107418397Y-64288105D01*
X107359176Y-64242011D01*
X107359175Y-64242010D01*
X107359172Y-64242008D01*
X107161180Y-64134861D01*
X107161177Y-64134859D01*
X107161174Y-64134858D01*
X107161171Y-64134857D01*
X107161169Y-64134856D01*
X106948237Y-64061756D01*
X106726169Y-64024700D01*
X106501031Y-64024700D01*
X106278958Y-64061756D01*
X106274715Y-64062831D01*
X106204895Y-64060198D01*
X106156607Y-64030303D01*
X105842436Y-63716131D01*
X105842432Y-63716128D01*
X105738681Y-63646803D01*
X105738672Y-63646798D01*
X105623385Y-63599045D01*
X105623377Y-63599043D01*
X105500998Y-63574700D01*
X105500994Y-63574700D01*
X98668870Y-63574700D01*
X98619996Y-63562457D01*
X98619303Y-63564131D01*
X98498385Y-63514045D01*
X98498377Y-63514043D01*
X98375998Y-63489700D01*
X98375994Y-63489700D01*
X98375993Y-63489700D01*
X98251206Y-63489700D01*
X98251201Y-63489700D01*
X98128822Y-63514043D01*
X98128814Y-63514045D01*
X98013527Y-63561798D01*
X98013518Y-63561803D01*
X97909767Y-63631128D01*
X97909763Y-63631131D01*
X97322453Y-64218441D01*
X97261130Y-64251926D01*
X97191438Y-64246942D01*
X97163649Y-64232335D01*
X97131183Y-64209603D01*
X97131179Y-64209600D01*
X96917092Y-64109770D01*
X96917086Y-64109767D01*
X96703600Y-64052564D01*
X96703600Y-64950188D01*
X96646593Y-64917275D01*
X96519426Y-64883200D01*
X96387774Y-64883200D01*
X96260607Y-64917275D01*
X96203600Y-64950188D01*
X96203600Y-64052564D01*
X96203599Y-64052564D01*
X95990113Y-64109767D01*
X95990107Y-64109770D01*
X95776022Y-64209599D01*
X95776020Y-64209600D01*
X95582526Y-64345086D01*
X95582520Y-64345091D01*
X95415491Y-64512120D01*
X95415490Y-64512122D01*
X95288731Y-64693152D01*
X95234154Y-64736777D01*
X95164655Y-64743969D01*
X95102301Y-64712447D01*
X95083352Y-64689856D01*
X94989322Y-64545932D01*
X94989315Y-64545925D01*
X94989315Y-64545923D01*
X94836843Y-64380297D01*
X94836838Y-64380292D01*
X94718397Y-64288105D01*
X94659176Y-64242011D01*
X94659175Y-64242010D01*
X94659172Y-64242008D01*
X94461180Y-64134861D01*
X94461177Y-64134859D01*
X94461174Y-64134858D01*
X94461171Y-64134857D01*
X94461169Y-64134856D01*
X94248237Y-64061756D01*
X94026169Y-64024700D01*
X93801031Y-64024700D01*
X93578962Y-64061756D01*
X93366030Y-64134856D01*
X93366019Y-64134861D01*
X93168027Y-64242008D01*
X93168022Y-64242012D01*
X92990361Y-64380292D01*
X92990356Y-64380297D01*
X92837884Y-64545923D01*
X92837876Y-64545934D01*
X92747408Y-64684406D01*
X92694262Y-64729762D01*
X92625031Y-64739186D01*
X92561695Y-64709684D01*
X92539792Y-64684406D01*
X92449323Y-64545934D01*
X92449315Y-64545923D01*
X92296843Y-64380297D01*
X92296838Y-64380292D01*
X92178397Y-64288105D01*
X92119176Y-64242011D01*
X92119175Y-64242010D01*
X92119172Y-64242008D01*
X91921180Y-64134861D01*
X91921177Y-64134859D01*
X91921174Y-64134858D01*
X91921171Y-64134857D01*
X91921169Y-64134856D01*
X91708237Y-64061756D01*
X91486169Y-64024700D01*
X91261031Y-64024700D01*
X91038962Y-64061756D01*
X90826030Y-64134856D01*
X90826019Y-64134861D01*
X90628027Y-64242008D01*
X90628022Y-64242012D01*
X90450361Y-64380292D01*
X90450356Y-64380297D01*
X90297884Y-64545923D01*
X90297876Y-64545934D01*
X90207408Y-64684406D01*
X90154262Y-64729762D01*
X90085031Y-64739186D01*
X90021695Y-64709684D01*
X89999792Y-64684406D01*
X89909323Y-64545934D01*
X89909315Y-64545923D01*
X89756843Y-64380297D01*
X89756838Y-64380292D01*
X89638397Y-64288105D01*
X89579176Y-64242011D01*
X89579175Y-64242010D01*
X89579172Y-64242008D01*
X89381180Y-64134861D01*
X89381177Y-64134859D01*
X89381174Y-64134858D01*
X89381171Y-64134857D01*
X89381169Y-64134856D01*
X89168237Y-64061756D01*
X88946169Y-64024700D01*
X88721031Y-64024700D01*
X88498962Y-64061756D01*
X88286030Y-64134856D01*
X88286019Y-64134861D01*
X88088027Y-64242008D01*
X88088022Y-64242012D01*
X87910361Y-64380292D01*
X87910356Y-64380297D01*
X87757884Y-64545923D01*
X87757876Y-64545934D01*
X87667408Y-64684406D01*
X87614262Y-64729762D01*
X87545031Y-64739186D01*
X87481695Y-64709684D01*
X87459792Y-64684406D01*
X87369323Y-64545934D01*
X87369315Y-64545923D01*
X87216843Y-64380297D01*
X87216838Y-64380292D01*
X87098397Y-64288105D01*
X87039176Y-64242011D01*
X87039175Y-64242010D01*
X87039172Y-64242008D01*
X86841180Y-64134861D01*
X86841177Y-64134859D01*
X86841174Y-64134858D01*
X86841171Y-64134857D01*
X86841169Y-64134856D01*
X86628237Y-64061756D01*
X86406169Y-64024700D01*
X86181031Y-64024700D01*
X85958962Y-64061756D01*
X85746030Y-64134856D01*
X85746019Y-64134861D01*
X85548027Y-64242008D01*
X85548022Y-64242012D01*
X85370361Y-64380292D01*
X85370356Y-64380297D01*
X85217884Y-64545923D01*
X85217876Y-64545934D01*
X85123851Y-64689850D01*
X85070705Y-64735207D01*
X85001473Y-64744630D01*
X84938138Y-64715128D01*
X84918468Y-64693151D01*
X84791713Y-64512126D01*
X84791708Y-64512120D01*
X84624682Y-64345094D01*
X84431178Y-64209599D01*
X84217092Y-64109770D01*
X84217086Y-64109767D01*
X84003600Y-64052564D01*
X84003600Y-64950188D01*
X83946593Y-64917275D01*
X83819426Y-64883200D01*
X83687774Y-64883200D01*
X83560607Y-64917275D01*
X83503600Y-64950188D01*
X83503600Y-64052564D01*
X83503599Y-64052564D01*
X83290113Y-64109767D01*
X83290107Y-64109770D01*
X83076022Y-64209599D01*
X83076020Y-64209600D01*
X82882526Y-64345086D01*
X82882520Y-64345091D01*
X82715491Y-64512120D01*
X82715490Y-64512122D01*
X82588731Y-64693152D01*
X82534154Y-64736777D01*
X82464655Y-64743969D01*
X82402301Y-64712447D01*
X82383352Y-64689856D01*
X82289322Y-64545932D01*
X82289315Y-64545925D01*
X82289315Y-64545923D01*
X82136843Y-64380297D01*
X82136838Y-64380292D01*
X82018397Y-64288105D01*
X81959176Y-64242011D01*
X81959175Y-64242010D01*
X81959172Y-64242008D01*
X81761180Y-64134861D01*
X81761177Y-64134859D01*
X81761174Y-64134858D01*
X81761171Y-64134857D01*
X81761169Y-64134856D01*
X81548237Y-64061756D01*
X81326169Y-64024700D01*
X81101031Y-64024700D01*
X80878962Y-64061756D01*
X80666030Y-64134856D01*
X80666019Y-64134861D01*
X80468027Y-64242008D01*
X80468022Y-64242012D01*
X80290361Y-64380292D01*
X80290356Y-64380297D01*
X80137884Y-64545923D01*
X80137876Y-64545934D01*
X80047408Y-64684406D01*
X79994262Y-64729762D01*
X79925031Y-64739186D01*
X79861695Y-64709684D01*
X79839792Y-64684406D01*
X79749323Y-64545934D01*
X79749315Y-64545923D01*
X79596843Y-64380297D01*
X79596838Y-64380292D01*
X79478397Y-64288105D01*
X79419176Y-64242011D01*
X79419175Y-64242010D01*
X79419172Y-64242008D01*
X79221180Y-64134861D01*
X79221177Y-64134859D01*
X79221174Y-64134858D01*
X79221171Y-64134857D01*
X79221169Y-64134856D01*
X79008237Y-64061756D01*
X78786169Y-64024700D01*
X78561031Y-64024700D01*
X78338962Y-64061756D01*
X78126030Y-64134856D01*
X78126019Y-64134861D01*
X77928027Y-64242008D01*
X77928022Y-64242012D01*
X77750361Y-64380292D01*
X77750356Y-64380297D01*
X77597884Y-64545923D01*
X77597876Y-64545934D01*
X77503851Y-64689850D01*
X77450705Y-64735207D01*
X77381473Y-64744630D01*
X77318138Y-64715128D01*
X77298468Y-64693151D01*
X77171713Y-64512126D01*
X77171708Y-64512120D01*
X77004682Y-64345094D01*
X76811178Y-64209599D01*
X76597092Y-64109770D01*
X76597086Y-64109767D01*
X76383600Y-64052564D01*
X76383600Y-64950188D01*
X76326593Y-64917275D01*
X76199426Y-64883200D01*
X76067774Y-64883200D01*
X75940607Y-64917275D01*
X75883600Y-64950188D01*
X75883600Y-64052564D01*
X75883599Y-64052564D01*
X75670113Y-64109767D01*
X75670107Y-64109770D01*
X75456022Y-64209599D01*
X75456020Y-64209600D01*
X75262526Y-64345086D01*
X75262520Y-64345091D01*
X75095491Y-64512120D01*
X75095490Y-64512122D01*
X74968731Y-64693152D01*
X74914154Y-64736777D01*
X74844655Y-64743969D01*
X74782301Y-64712447D01*
X74763352Y-64689856D01*
X74669322Y-64545932D01*
X74669315Y-64545925D01*
X74669315Y-64545923D01*
X74516843Y-64380297D01*
X74516838Y-64380292D01*
X74398397Y-64288105D01*
X74339176Y-64242011D01*
X74339175Y-64242010D01*
X74339172Y-64242008D01*
X74141180Y-64134861D01*
X74141177Y-64134859D01*
X74141174Y-64134858D01*
X74141171Y-64134857D01*
X74141169Y-64134856D01*
X73928237Y-64061756D01*
X73706169Y-64024700D01*
X73481031Y-64024700D01*
X73258962Y-64061756D01*
X73046030Y-64134856D01*
X73046019Y-64134861D01*
X72848027Y-64242008D01*
X72848022Y-64242012D01*
X72670361Y-64380292D01*
X72670356Y-64380297D01*
X72517884Y-64545923D01*
X72517876Y-64545934D01*
X72427408Y-64684406D01*
X72374262Y-64729762D01*
X72305031Y-64739186D01*
X72241695Y-64709684D01*
X72219792Y-64684406D01*
X72129323Y-64545934D01*
X72129315Y-64545923D01*
X71976843Y-64380297D01*
X71976838Y-64380292D01*
X71858397Y-64288105D01*
X71799176Y-64242011D01*
X71799175Y-64242010D01*
X71799172Y-64242008D01*
X71601180Y-64134861D01*
X71601177Y-64134859D01*
X71601174Y-64134858D01*
X71601171Y-64134857D01*
X71601169Y-64134856D01*
X71388237Y-64061756D01*
X71166169Y-64024700D01*
X70941031Y-64024700D01*
X70718962Y-64061756D01*
X70506030Y-64134856D01*
X70506019Y-64134861D01*
X70308027Y-64242008D01*
X70308022Y-64242012D01*
X70130361Y-64380292D01*
X70130356Y-64380297D01*
X69977884Y-64545923D01*
X69977876Y-64545934D01*
X69887408Y-64684406D01*
X69834262Y-64729762D01*
X69765031Y-64739186D01*
X69701695Y-64709684D01*
X69679792Y-64684406D01*
X69589323Y-64545934D01*
X69589315Y-64545923D01*
X69436843Y-64380297D01*
X69436838Y-64380292D01*
X69318397Y-64288105D01*
X69259176Y-64242011D01*
X69259175Y-64242010D01*
X69259172Y-64242008D01*
X69061180Y-64134861D01*
X69061177Y-64134859D01*
X69061174Y-64134858D01*
X69061171Y-64134857D01*
X69061169Y-64134856D01*
X68848237Y-64061756D01*
X68626169Y-64024700D01*
X68401031Y-64024700D01*
X68178962Y-64061756D01*
X67966030Y-64134856D01*
X67966019Y-64134861D01*
X67768027Y-64242008D01*
X67768022Y-64242012D01*
X67590361Y-64380292D01*
X67590356Y-64380297D01*
X67437884Y-64545923D01*
X67437876Y-64545934D01*
X67343851Y-64689850D01*
X67290705Y-64735207D01*
X67221473Y-64744630D01*
X67158138Y-64715128D01*
X67138468Y-64693151D01*
X67011713Y-64512126D01*
X67011708Y-64512120D01*
X66844682Y-64345094D01*
X66651178Y-64209599D01*
X66437092Y-64109770D01*
X66437086Y-64109767D01*
X66223600Y-64052564D01*
X66223600Y-64950188D01*
X66166593Y-64917275D01*
X66039426Y-64883200D01*
X65907774Y-64883200D01*
X65780607Y-64917275D01*
X65723600Y-64950188D01*
X65723600Y-64052564D01*
X65723599Y-64052564D01*
X65510113Y-64109767D01*
X65510107Y-64109770D01*
X65296022Y-64209599D01*
X65296020Y-64209600D01*
X65102526Y-64345086D01*
X65102520Y-64345091D01*
X64935491Y-64512120D01*
X64935490Y-64512122D01*
X64808731Y-64693152D01*
X64754154Y-64736777D01*
X64684655Y-64743969D01*
X64622301Y-64712447D01*
X64603352Y-64689856D01*
X64509322Y-64545932D01*
X64509315Y-64545925D01*
X64509315Y-64545923D01*
X64356843Y-64380297D01*
X64356838Y-64380292D01*
X64238397Y-64288105D01*
X64179176Y-64242011D01*
X64179175Y-64242010D01*
X64179172Y-64242008D01*
X63981180Y-64134861D01*
X63981177Y-64134859D01*
X63981174Y-64134858D01*
X63981171Y-64134857D01*
X63981169Y-64134856D01*
X63768237Y-64061756D01*
X63546169Y-64024700D01*
X63321031Y-64024700D01*
X63098962Y-64061756D01*
X62886030Y-64134856D01*
X62886019Y-64134861D01*
X62688027Y-64242008D01*
X62688022Y-64242012D01*
X62510361Y-64380292D01*
X62510356Y-64380297D01*
X62357884Y-64545923D01*
X62357876Y-64545934D01*
X62267408Y-64684406D01*
X62214262Y-64729762D01*
X62145031Y-64739186D01*
X62081695Y-64709684D01*
X62059792Y-64684406D01*
X61969323Y-64545934D01*
X61969315Y-64545923D01*
X61816843Y-64380297D01*
X61816838Y-64380292D01*
X61698397Y-64288105D01*
X61639176Y-64242011D01*
X61639175Y-64242010D01*
X61639172Y-64242008D01*
X61441180Y-64134861D01*
X61441177Y-64134859D01*
X61441174Y-64134858D01*
X61441171Y-64134857D01*
X61441169Y-64134856D01*
X61228237Y-64061756D01*
X61006169Y-64024700D01*
X60781031Y-64024700D01*
X60558962Y-64061756D01*
X60346030Y-64134856D01*
X60346019Y-64134861D01*
X60148027Y-64242008D01*
X60148022Y-64242012D01*
X59970361Y-64380292D01*
X59970356Y-64380297D01*
X59817884Y-64545923D01*
X59817876Y-64545934D01*
X59694740Y-64734407D01*
X59604303Y-64940586D01*
X59604300Y-64940594D01*
X59580127Y-65036051D01*
X59547603Y-65093291D01*
X59317896Y-65322998D01*
X59256573Y-65356483D01*
X59186881Y-65351499D01*
X59130948Y-65309627D01*
X59115022Y-65281214D01*
X59088447Y-65214515D01*
X59088438Y-65214497D01*
X58918283Y-64893552D01*
X58918281Y-64893548D01*
X58714429Y-64592890D01*
X58714422Y-64592880D01*
X58582629Y-64437723D01*
X58582628Y-64437723D01*
X57337851Y-65682500D01*
X57264012Y-65580870D01*
X57085930Y-65402788D01*
X56984297Y-65328947D01*
X58231710Y-64081536D01*
X58231710Y-64081534D01*
X58215529Y-64066207D01*
X58215528Y-64066206D01*
X57926333Y-63846367D01*
X57926317Y-63846356D01*
X57615077Y-63659090D01*
X57615064Y-63659083D01*
X57285394Y-63506560D01*
X57285389Y-63506559D01*
X56941138Y-63390567D01*
X56586364Y-63312475D01*
X56225233Y-63273200D01*
X55861966Y-63273200D01*
X55500835Y-63312475D01*
X55146061Y-63390567D01*
X54801810Y-63506559D01*
X54801805Y-63506560D01*
X54472135Y-63659083D01*
X54472122Y-63659090D01*
X54160882Y-63846356D01*
X54160866Y-63846367D01*
X53871675Y-64066202D01*
X53855488Y-64081535D01*
X53855487Y-64081535D01*
X55102901Y-65328948D01*
X55001270Y-65402788D01*
X54823188Y-65580870D01*
X54749348Y-65682501D01*
X53504570Y-64437722D01*
X53504569Y-64437723D01*
X53372777Y-64592880D01*
X53372770Y-64592890D01*
X53168918Y-64893548D01*
X53168916Y-64893552D01*
X52998761Y-65214497D01*
X52998752Y-65214515D01*
X52864297Y-65551972D01*
X52864295Y-65551979D01*
X52767119Y-65901977D01*
X52767117Y-65901985D01*
X52708346Y-66260471D01*
X52688680Y-66623197D01*
X45313600Y-66623197D01*
X45313600Y-61347200D01*
X45333285Y-61280161D01*
X45386089Y-61234406D01*
X45437600Y-61223200D01*
X125489600Y-61223200D01*
X125556639Y-61242885D01*
G37*
%TD.AperFunction*%
%TD*%
M02*
