%TF.GenerationSoftware,KiCad,Pcbnew,8.0.9-8.0.9-0~ubuntu24.04.1*%
%TF.CreationDate,2025-11-19T12:46:57-08:00*%
%TF.ProjectId,rover_monitor_r2,726f7665-725f-46d6-9f6e-69746f725f72,rev?*%
%TF.SameCoordinates,Original*%
%TF.FileFunction,Copper,L1,Top*%
%TF.FilePolarity,Positive*%
%FSLAX46Y46*%
G04 Gerber Fmt 4.6, Leading zero omitted, Abs format (unit mm)*
G04 Created by KiCad (PCBNEW 8.0.9-8.0.9-0~ubuntu24.04.1) date 2025-11-19 12:46:57*
%MOMM*%
%LPD*%
G01*
G04 APERTURE LIST*
G04 Aperture macros list*
%AMRoundRect*
0 Rectangle with rounded corners*
0 $1 Rounding radius*
0 $2 $3 $4 $5 $6 $7 $8 $9 X,Y pos of 4 corners*
0 Add a 4 corners polygon primitive as box body*
4,1,4,$2,$3,$4,$5,$6,$7,$8,$9,$2,$3,0*
0 Add four circle primitives for the rounded corners*
1,1,$1+$1,$2,$3*
1,1,$1+$1,$4,$5*
1,1,$1+$1,$6,$7*
1,1,$1+$1,$8,$9*
0 Add four rect primitives between the rounded corners*
20,1,$1+$1,$2,$3,$4,$5,0*
20,1,$1+$1,$4,$5,$6,$7,0*
20,1,$1+$1,$6,$7,$8,$9,0*
20,1,$1+$1,$8,$9,$2,$3,0*%
G04 Aperture macros list end*
%TA.AperFunction,ComponentPad*%
%ADD10C,3.600000*%
%TD*%
%TA.AperFunction,ConnectorPad*%
%ADD11C,5.700000*%
%TD*%
%TA.AperFunction,ComponentPad*%
%ADD12R,2.000000X2.000000*%
%TD*%
%TA.AperFunction,ComponentPad*%
%ADD13C,2.000000*%
%TD*%
%TA.AperFunction,SMDPad,CuDef*%
%ADD14RoundRect,0.250001X0.462499X0.624999X-0.462499X0.624999X-0.462499X-0.624999X0.462499X-0.624999X0*%
%TD*%
%TA.AperFunction,ComponentPad*%
%ADD15R,1.700000X1.700000*%
%TD*%
%TA.AperFunction,ComponentPad*%
%ADD16C,1.700000*%
%TD*%
%TA.AperFunction,ComponentPad*%
%ADD17O,1.700000X1.700000*%
%TD*%
%TA.AperFunction,ComponentPad*%
%ADD18C,1.500000*%
%TD*%
%TA.AperFunction,ComponentPad*%
%ADD19R,1.500000X1.500000*%
%TD*%
%TA.AperFunction,ComponentPad*%
%ADD20C,2.800000*%
%TD*%
%TA.AperFunction,ViaPad*%
%ADD21C,0.800000*%
%TD*%
%TA.AperFunction,Conductor*%
%ADD22C,0.250000*%
%TD*%
G04 APERTURE END LIST*
D10*
%TO.P,H1,1,1*%
%TO.N,GND*%
X56043600Y-66623200D03*
D11*
X56043600Y-66623200D03*
%TD*%
D12*
%TO.P,BZ1,1,+*%
%TO.N,+5V*%
X52813600Y-136323200D03*
D13*
%TO.P,BZ1,2,-*%
%TO.N,Net-(BZ1--)*%
X52813600Y-143923200D03*
%TD*%
%TO.P,GND1,1,1*%
%TO.N,GND*%
X121313600Y-143723200D03*
%TD*%
%TO.P,Input1,1,1*%
%TO.N,Net-(U1-SPI_MOSI)*%
X85013600Y-83823200D03*
%TD*%
D14*
%TO.P,D2,1,K*%
%TO.N,Net-(D2-K)*%
X54601100Y-131223200D03*
%TO.P,D2,2,A*%
%TO.N,+5V*%
X51626100Y-131223200D03*
%TD*%
D10*
%TO.P,H3,1,1*%
%TO.N,GND*%
X56043600Y-115323200D03*
D11*
X56043600Y-115323200D03*
%TD*%
D13*
%TO.P,GND2,1,1*%
%TO.N,GND*%
X120913600Y-135123200D03*
%TD*%
D15*
%TO.P,SW2,1,1*%
%TO.N,GND*%
X107563600Y-136523200D03*
D16*
X114063600Y-136523200D03*
%TO.P,SW2,2,2*%
%TO.N,/GPIO19*%
X107563600Y-141023200D03*
X114063600Y-141023200D03*
%TD*%
D15*
%TO.P,U1,1,3V3*%
%TO.N,+3V3*%
X60893600Y-67923200D03*
D17*
%TO.P,U1,2,5V0*%
%TO.N,+5V*%
X60893600Y-65383200D03*
%TO.P,U1,3,SDA*%
%TO.N,/SDA*%
X63433600Y-67923200D03*
%TO.P,U1,4,5V0*%
%TO.N,+5V*%
X63433600Y-65383200D03*
%TO.P,U1,5,SCL*%
%TO.N,/SCL*%
X65973600Y-67923200D03*
%TO.P,U1,6,GND*%
%TO.N,GND*%
X65973600Y-65383200D03*
%TO.P,U1,7,GPIO4*%
%TO.N,unconnected-(U1-GPIO4-Pad7)*%
X68513600Y-67923200D03*
%TO.P,U1,8,GPIO14*%
%TO.N,unconnected-(U1-GPIO14-Pad8)*%
X68513600Y-65383200D03*
%TO.P,U1,9,GND*%
%TO.N,GND*%
X71053600Y-67923200D03*
%TO.P,U1,10,GPIO15*%
%TO.N,unconnected-(U1-GPIO15-Pad10)*%
X71053600Y-65383200D03*
%TO.P,U1,11,GPIO17*%
%TO.N,unconnected-(U1-GPIO17-Pad11)*%
X73593600Y-67923200D03*
%TO.P,U1,12,GPIO18*%
%TO.N,unconnected-(U1-GPIO18-Pad12)*%
X73593600Y-65383200D03*
%TO.P,U1,13,GPIO27*%
%TO.N,unconnected-(U1-GPIO27-Pad13)*%
X76133600Y-67923200D03*
%TO.P,U1,14,GND*%
%TO.N,GND*%
X76133600Y-65383200D03*
%TO.P,U1,15,GPIO22*%
%TO.N,unconnected-(U1-GPIO22-Pad15)*%
X78673600Y-67923200D03*
%TO.P,U1,16,GPIO23*%
%TO.N,unconnected-(U1-GPIO23-Pad16)*%
X78673600Y-65383200D03*
%TO.P,U1,17,3V3*%
%TO.N,unconnected-(U1-3V3-Pad17)*%
X81213600Y-67923200D03*
%TO.P,U1,18,GPIO24*%
%TO.N,unconnected-(U1-GPIO24-Pad18)*%
X81213600Y-65383200D03*
%TO.P,U1,19,SPI_MOSI*%
%TO.N,Net-(U1-SPI_MOSI)*%
X83753600Y-67923200D03*
%TO.P,U1,20,GND*%
%TO.N,GND*%
X83753600Y-65383200D03*
%TO.P,U1,21,SPI_MISO*%
%TO.N,Net-(U1-SPI_MISO)*%
X86293600Y-67923200D03*
%TO.P,U1,22,GPIO25*%
%TO.N,Net-(JP1-A)*%
X86293600Y-65383200D03*
%TO.P,U1,23,SPI_SCLK*%
%TO.N,Net-(U1-SPI_SCLK)*%
X88833600Y-67923200D03*
%TO.P,U1,24,/SPI_CE0*%
%TO.N,Net-(JP2-A)*%
X88833600Y-65383200D03*
%TO.P,U1,25,GND*%
%TO.N,GND*%
X91373600Y-67923200D03*
%TO.P,U1,26,/SPI_CE1*%
%TO.N,unconnected-(U1-{slash}SPI_CE1-Pad26)*%
X91373600Y-65383200D03*
%TO.P,U1,27,EEDATA*%
%TO.N,unconnected-(U1-EEDATA-Pad27)*%
X93913600Y-67923200D03*
%TO.P,U1,28,EECLK*%
%TO.N,unconnected-(U1-EECLK-Pad28)*%
X93913600Y-65383200D03*
%TO.P,U1,29,GPIO5*%
%TO.N,unconnected-(U1-GPIO5-Pad29)*%
X96453600Y-67923200D03*
%TO.P,U1,30,GND*%
%TO.N,GND*%
X96453600Y-65383200D03*
%TO.P,U1,31,GPIO6*%
%TO.N,unconnected-(U1-GPIO6-Pad31)*%
X98993600Y-67923200D03*
%TO.P,U1,32,GPIO12*%
%TO.N,Net-(D3-K)*%
X98993600Y-65383200D03*
%TO.P,U1,33,GPIO13*%
%TO.N,/GPIO13*%
X101533600Y-67923200D03*
%TO.P,U1,34,GND*%
%TO.N,GND*%
X101533600Y-65383200D03*
%TO.P,U1,35,GPIO19*%
%TO.N,/GPIO19*%
X104073600Y-67923200D03*
%TO.P,U1,36,GPIO16*%
%TO.N,/GPIO16*%
X104073600Y-65383200D03*
%TO.P,U1,37,GPIO26*%
%TO.N,unconnected-(U1-GPIO26-Pad37)*%
X106613600Y-67923200D03*
%TO.P,U1,38,GPIO20*%
%TO.N,/GPIO20*%
X106613600Y-65383200D03*
%TO.P,U1,39,GND*%
%TO.N,GND*%
X109153600Y-67923200D03*
%TO.P,U1,40,GPIO21*%
%TO.N,/GPIO21*%
X109153600Y-65383200D03*
%TD*%
D10*
%TO.P,H4,1,1*%
%TO.N,GND*%
X114043600Y-115323200D03*
D11*
X114043600Y-115323200D03*
%TD*%
D13*
%TO.P,Input3,1,1*%
%TO.N,Net-(U1-SPI_SCLK)*%
X92613600Y-83623200D03*
%TD*%
D10*
%TO.P,H2,1,1*%
%TO.N,GND*%
X114043600Y-66623200D03*
D11*
X114043600Y-66623200D03*
%TD*%
D13*
%TO.P,Input2,1,1*%
%TO.N,Net-(U1-SPI_MISO)*%
X89013600Y-83623200D03*
%TD*%
D15*
%TO.P,SW1,1,1*%
%TO.N,GND*%
X71213600Y-136523200D03*
D16*
X77713600Y-136523200D03*
%TO.P,SW1,2,2*%
%TO.N,/GPIO21*%
X71213600Y-141023200D03*
X77713600Y-141023200D03*
%TD*%
D14*
%TO.P,D1,1,K*%
%TO.N,Net-(D1-K)*%
X75701100Y-131223200D03*
%TO.P,D1,2,A*%
%TO.N,+5V*%
X72726100Y-131223200D03*
%TD*%
D18*
%TO.P,U2,7,/CS*%
%TO.N,Net-(JP2-B)*%
X90693600Y-77223200D03*
%TO.P,U2,6,DC*%
%TO.N,Net-(JP1-B)*%
X88153600Y-77223200D03*
%TO.P,U2,5,/Res*%
%TO.N,Net-(D3-K)*%
X85613600Y-77223200D03*
%TO.P,U2,4,SDK*%
%TO.N,/SDA*%
X83073600Y-77223200D03*
%TO.P,U2,3,SCK*%
%TO.N,/SCL*%
X80533600Y-77223200D03*
%TO.P,U2,2,VCC*%
%TO.N,+3V3*%
X77993600Y-77223200D03*
D19*
%TO.P,U2,1,GND*%
%TO.N,GND*%
X75453600Y-77223200D03*
D20*
%TO.P,U2,*%
%TO.N,*%
X119513600Y-123763200D03*
X119513600Y-78763200D03*
X50513600Y-123763200D03*
X50513600Y-78763200D03*
%TD*%
D21*
%TO.N,GND*%
X97213600Y-71223200D03*
%TO.N,Net-(D3-K)*%
X99413600Y-73623200D03*
%TO.N,GND*%
X56613600Y-120023200D03*
X99113600Y-118023200D03*
X104513600Y-116223200D03*
%TO.N,+3V3*%
X68813600Y-135723200D03*
%TO.N,Net-(D3-K)*%
X71213600Y-79553200D03*
%TO.N,Net-(D1-K)*%
X92313600Y-134023200D03*
%TO.N,/GPIO13*%
X100813600Y-132723200D03*
%TO.N,/GPIO16*%
X65313600Y-139623200D03*
%TO.N,+5V*%
X60363600Y-127573200D03*
%TO.N,/GPIO20*%
X63013600Y-129323200D03*
%TO.N,Net-(D2-K)*%
X56113600Y-130523200D03*
%TO.N,+3V3*%
X55813600Y-85323200D03*
%TO.N,GND*%
X65313600Y-86223200D03*
X88513600Y-137823200D03*
X65213600Y-128023200D03*
X76013600Y-63123200D03*
X108713600Y-69923200D03*
X60013600Y-73423200D03*
X83713600Y-62623200D03*
X66713600Y-133523200D03*
X50213600Y-84523200D03*
X71013600Y-69923200D03*
X66013600Y-63223200D03*
X91313600Y-70423200D03*
X47313600Y-130623200D03*
X101513600Y-62623200D03*
X62713600Y-141223200D03*
X81613600Y-134623200D03*
X96413600Y-63023200D03*
X50013600Y-73523200D03*
X106113600Y-62223200D03*
X123513600Y-136023200D03*
X64713600Y-66623200D03*
X60913600Y-71223200D03*
X46913600Y-62423200D03*
X72813600Y-145923200D03*
%TO.N,+5V*%
X57813600Y-73123200D03*
X70813600Y-131523200D03*
%TO.N,+3V3*%
X55913600Y-77823200D03*
X57113600Y-70623200D03*
%TO.N,/GPIO20*%
X69413600Y-74823200D03*
%TO.N,/GPIO16*%
X71013600Y-75823200D03*
%TO.N,/GPIO21*%
X110113600Y-83123200D03*
X110328600Y-70623200D03*
%TO.N,/SCL*%
X66913600Y-71623200D03*
%TD*%
D22*
%TO.N,/GPIO21*%
X93713600Y-127023200D02*
X93713600Y-134923200D01*
X93713600Y-134923200D02*
X87613600Y-141023200D01*
X87613600Y-141023200D02*
X80013600Y-141023200D01*
X93713600Y-118923200D02*
X93713600Y-127023200D01*
%TO.N,Net-(D1-K)*%
X89513600Y-131223200D02*
X92313600Y-134023200D01*
X75701100Y-131223200D02*
X89513600Y-131223200D01*
%TO.N,+5V*%
X70813600Y-131523200D02*
X72426100Y-131523200D01*
X72426100Y-131523200D02*
X72726100Y-131223200D01*
X52813600Y-136323200D02*
X52813600Y-132723200D01*
X52813600Y-132723200D02*
X51613600Y-131523200D01*
X51613600Y-131523200D02*
X51613600Y-129248200D01*
X59413600Y-128523200D02*
X60363600Y-127573200D01*
X51613600Y-129248200D02*
X52338600Y-128523200D01*
X52338600Y-128523200D02*
X59413600Y-128523200D01*
%TO.N,/GPIO13*%
X101533600Y-67923200D02*
X101533600Y-68143200D01*
X111713600Y-103623200D02*
X101863600Y-113473200D01*
X101533600Y-68143200D02*
X111713600Y-78323200D01*
X111713600Y-78323200D02*
X111713600Y-103623200D01*
X101863600Y-113473200D02*
X101863600Y-131673200D01*
X101863600Y-131673200D02*
X100813600Y-132723200D01*
%TO.N,Net-(D3-K)*%
X99413600Y-73623200D02*
X100168600Y-72868200D01*
X100168600Y-72868200D02*
X100168600Y-66558200D01*
X100168600Y-66558200D02*
X98993600Y-65383200D01*
%TO.N,+3V3*%
X55813600Y-85323200D02*
X55813600Y-102123200D01*
X55813600Y-102123200D02*
X65513600Y-111823200D01*
X65513600Y-111823200D02*
X65513600Y-125623200D01*
X65513600Y-125623200D02*
X68813600Y-128923200D01*
X68813600Y-128923200D02*
X68813600Y-135723200D01*
%TO.N,Net-(D3-K)*%
X71213600Y-79553200D02*
X83283600Y-79553200D01*
X85463600Y-77373200D02*
X85463600Y-77223200D01*
X83283600Y-79553200D02*
X85463600Y-77373200D01*
%TO.N,/GPIO16*%
X65313600Y-139623200D02*
X65313600Y-129823200D01*
%TO.N,/GPIO20*%
X61313600Y-127623200D02*
X61313600Y-110023200D01*
X55613600Y-75123200D02*
X69113600Y-75123200D01*
X63013600Y-129323200D02*
X61313600Y-127623200D01*
X61313600Y-110023200D02*
X53613600Y-102323200D01*
X53613600Y-102323200D02*
X53613600Y-77123200D01*
X53613600Y-77123200D02*
X55613600Y-75123200D01*
X69113600Y-75123200D02*
X69413600Y-74823200D01*
%TO.N,Net-(D2-K)*%
X54313600Y-130523200D02*
X56113600Y-130523200D01*
%TO.N,/GPIO19*%
X104073600Y-67923200D02*
X107773600Y-71623200D01*
X108738600Y-135348200D02*
X108738600Y-139848200D01*
X107773600Y-71623200D02*
X108113600Y-71623200D01*
X113013600Y-76523200D02*
X113013600Y-106123200D01*
X108113600Y-71623200D02*
X113013600Y-76523200D01*
X113013600Y-106123200D02*
X108213600Y-110923200D01*
X108213600Y-110923200D02*
X108213600Y-134823200D01*
X108213600Y-134823200D02*
X108738600Y-135348200D01*
X108738600Y-139848200D02*
X107563600Y-141023200D01*
%TO.N,/GPIO21*%
X110113600Y-83123200D02*
X110013600Y-83223200D01*
X110013600Y-83223200D02*
X110013600Y-102623200D01*
X110013600Y-102623200D02*
X93713600Y-118923200D01*
%TO.N,+5V*%
X57813600Y-73123200D02*
X55813600Y-73123200D01*
X55813600Y-73123200D02*
X52513600Y-76423200D01*
X52513600Y-76423200D02*
X52513600Y-102523200D01*
X52513600Y-102523200D02*
X60413600Y-110423200D01*
X60413600Y-110423200D02*
X60413600Y-127523200D01*
X60413600Y-127523200D02*
X60363600Y-127573200D01*
%TO.N,/GPIO16*%
X65313600Y-129823200D02*
X62163600Y-126673200D01*
X62163600Y-126673200D02*
X62163600Y-109573200D01*
X62163600Y-109573200D02*
X54313600Y-101723200D01*
X54313600Y-101723200D02*
X54313600Y-77703681D01*
X56194081Y-75823200D02*
X71013600Y-75823200D01*
X54313600Y-77703681D02*
X56194081Y-75823200D01*
%TO.N,Net-(U1-SPI_SCLK)*%
X92613600Y-83623200D02*
X92613600Y-74223200D01*
X92613600Y-74223200D02*
X88833600Y-70443200D01*
X88833600Y-70443200D02*
X88833600Y-67923200D01*
%TO.N,Net-(U1-SPI_MISO)*%
X89013600Y-83623200D02*
X89618600Y-83018200D01*
X89618600Y-83018200D02*
X89618600Y-73428200D01*
X89618600Y-73428200D02*
X86413600Y-70223200D01*
X86413600Y-70223200D02*
X86413600Y-68043200D01*
X86413600Y-68043200D02*
X86293600Y-67923200D01*
%TO.N,Net-(U1-SPI_MOSI)*%
X85013600Y-83823200D02*
X85013600Y-81823200D01*
X85013600Y-81823200D02*
X86913600Y-79923200D01*
X86913600Y-79923200D02*
X86913600Y-71423200D01*
X83753600Y-68263200D02*
X83753600Y-67923200D01*
X86913600Y-71423200D02*
X83753600Y-68263200D01*
%TO.N,Net-(D3-K)*%
X85013600Y-77423200D02*
X85213600Y-77623200D01*
%TO.N,/SDA*%
X63433600Y-67923200D02*
X66233600Y-70723200D01*
X66233600Y-70723200D02*
X76513600Y-70723200D01*
X76513600Y-70723200D02*
X82801100Y-77010700D01*
%TO.N,/SCL*%
X80533600Y-77223200D02*
X80413600Y-77223200D01*
X80413600Y-77223200D02*
X74813600Y-71623200D01*
X74813600Y-71623200D02*
X66913600Y-71623200D01*
%TO.N,GND*%
X66013600Y-63223200D02*
X66013600Y-65343200D01*
X91313600Y-70423200D02*
X91373600Y-70363200D01*
X91373600Y-70363200D02*
X91373600Y-67923200D01*
X96413600Y-63023200D02*
X96413600Y-65343200D01*
X66013600Y-65343200D02*
X65973600Y-65383200D01*
X83753600Y-62663200D02*
X83753600Y-65383200D01*
X96413600Y-65343200D02*
X96453600Y-65383200D01*
X108713600Y-69923200D02*
X108713600Y-68363200D01*
X108713600Y-68363200D02*
X109153600Y-67923200D01*
X83713600Y-62623200D02*
X83753600Y-62663200D01*
X101533600Y-62743200D02*
X101533600Y-65383200D01*
X76013600Y-63123200D02*
X76013600Y-65263200D01*
X101513600Y-62723200D02*
X101533600Y-62743200D01*
X101513600Y-62623200D02*
X101513600Y-62723200D01*
X76013600Y-65263200D02*
X76133600Y-65383200D01*
%TO.N,+5V*%
X60893600Y-65383200D02*
X63433600Y-65383200D01*
%TO.N,Net-(BZ1--)*%
X53063600Y-144173200D02*
X52813600Y-143923200D01*
%TO.N,+3V3*%
X57113600Y-70623200D02*
X58193600Y-70623200D01*
X77393600Y-75603200D02*
X77393600Y-77338200D01*
X60793600Y-67823200D02*
X60893600Y-67923200D01*
X58193600Y-70623200D02*
X60893600Y-67923200D01*
X66593600Y-73623200D02*
X60893600Y-67923200D01*
X75413600Y-73623200D02*
X66593600Y-73623200D01*
X55813600Y-77823200D02*
X55813600Y-85323200D01*
X55913600Y-77823200D02*
X55813600Y-77823200D01*
X75413600Y-73623200D02*
X77393600Y-75603200D01*
%TO.N,/GPIO21*%
X70913600Y-141223200D02*
X71213600Y-140923200D01*
X109153600Y-65383200D02*
X110328600Y-66558200D01*
X77713600Y-141023200D02*
X80013600Y-141023200D01*
X110328600Y-66558200D02*
X110328600Y-70623200D01*
X71213600Y-141023200D02*
X77713600Y-141023200D01*
%TO.N,/GPIO19*%
X107563600Y-141023200D02*
X114063600Y-141023200D01*
%TO.N,/SCL*%
X66913600Y-71623200D02*
X66813600Y-71623200D01*
%TO.N,Net-(U1-SPI_MISO)*%
X89013600Y-83623200D02*
X88838600Y-83448200D01*
%TD*%
%TA.AperFunction,Conductor*%
%TO.N,GND*%
G36*
X71303600Y-69253834D02*
G01*
X71517083Y-69196633D01*
X71517092Y-69196629D01*
X71731178Y-69096800D01*
X71924682Y-68961305D01*
X72091705Y-68794282D01*
X72218468Y-68613248D01*
X72273045Y-68569623D01*
X72342544Y-68562431D01*
X72404898Y-68593953D01*
X72423851Y-68616550D01*
X72517876Y-68760465D01*
X72517884Y-68760476D01*
X72670356Y-68926102D01*
X72670360Y-68926106D01*
X72848024Y-69064389D01*
X72848025Y-69064389D01*
X72848027Y-69064391D01*
X72907914Y-69096800D01*
X73046026Y-69171542D01*
X73258965Y-69244644D01*
X73481031Y-69281700D01*
X73706169Y-69281700D01*
X73928235Y-69244644D01*
X74141174Y-69171542D01*
X74339176Y-69064389D01*
X74516840Y-68926106D01*
X74638194Y-68794282D01*
X74669315Y-68760476D01*
X74669315Y-68760475D01*
X74669322Y-68760468D01*
X74759793Y-68621990D01*
X74812938Y-68576637D01*
X74882169Y-68567213D01*
X74945505Y-68596715D01*
X74967404Y-68621987D01*
X75057878Y-68760468D01*
X75057883Y-68760473D01*
X75057884Y-68760476D01*
X75210356Y-68926102D01*
X75210360Y-68926106D01*
X75388024Y-69064389D01*
X75388025Y-69064389D01*
X75388027Y-69064391D01*
X75447914Y-69096800D01*
X75586026Y-69171542D01*
X75798965Y-69244644D01*
X76021031Y-69281700D01*
X76246169Y-69281700D01*
X76468235Y-69244644D01*
X76681174Y-69171542D01*
X76879176Y-69064389D01*
X77056840Y-68926106D01*
X77178194Y-68794282D01*
X77209315Y-68760476D01*
X77209315Y-68760475D01*
X77209322Y-68760468D01*
X77299793Y-68621990D01*
X77352938Y-68576637D01*
X77422169Y-68567213D01*
X77485505Y-68596715D01*
X77507404Y-68621987D01*
X77597878Y-68760468D01*
X77597883Y-68760473D01*
X77597884Y-68760476D01*
X77750356Y-68926102D01*
X77750360Y-68926106D01*
X77928024Y-69064389D01*
X77928025Y-69064389D01*
X77928027Y-69064391D01*
X77987914Y-69096800D01*
X78126026Y-69171542D01*
X78338965Y-69244644D01*
X78561031Y-69281700D01*
X78786169Y-69281700D01*
X79008235Y-69244644D01*
X79221174Y-69171542D01*
X79419176Y-69064389D01*
X79596840Y-68926106D01*
X79718194Y-68794282D01*
X79749315Y-68760476D01*
X79749315Y-68760475D01*
X79749322Y-68760468D01*
X79839793Y-68621990D01*
X79892938Y-68576637D01*
X79962169Y-68567213D01*
X80025505Y-68596715D01*
X80047404Y-68621987D01*
X80137878Y-68760468D01*
X80137883Y-68760473D01*
X80137884Y-68760476D01*
X80290356Y-68926102D01*
X80290360Y-68926106D01*
X80468024Y-69064389D01*
X80468025Y-69064389D01*
X80468027Y-69064391D01*
X80527914Y-69096800D01*
X80666026Y-69171542D01*
X80878965Y-69244644D01*
X81101031Y-69281700D01*
X81326169Y-69281700D01*
X81548235Y-69244644D01*
X81761174Y-69171542D01*
X81959176Y-69064389D01*
X82136840Y-68926106D01*
X82258194Y-68794282D01*
X82289315Y-68760476D01*
X82289315Y-68760475D01*
X82289322Y-68760468D01*
X82379793Y-68621990D01*
X82432938Y-68576637D01*
X82502169Y-68567213D01*
X82565505Y-68596715D01*
X82587404Y-68621987D01*
X82677878Y-68760468D01*
X82677883Y-68760473D01*
X82677884Y-68760476D01*
X82830356Y-68926102D01*
X82830360Y-68926106D01*
X83008024Y-69064389D01*
X83008025Y-69064389D01*
X83008027Y-69064391D01*
X83067914Y-69096800D01*
X83206026Y-69171542D01*
X83418965Y-69244644D01*
X83641031Y-69281700D01*
X83824834Y-69281700D01*
X83891873Y-69301385D01*
X83912515Y-69318019D01*
X86243781Y-71649285D01*
X86277266Y-71710608D01*
X86280100Y-71736966D01*
X86280100Y-75950752D01*
X86260415Y-76017791D01*
X86207611Y-76063546D01*
X86138453Y-76073490D01*
X86103697Y-76063135D01*
X86045679Y-76036081D01*
X86045676Y-76036080D01*
X85953861Y-76011478D01*
X85832972Y-75979085D01*
X85832965Y-75979084D01*
X85613602Y-75959893D01*
X85613598Y-75959893D01*
X85394234Y-75979084D01*
X85394227Y-75979085D01*
X85181520Y-76036081D01*
X84981946Y-76129144D01*
X84981942Y-76129146D01*
X84801567Y-76255447D01*
X84801560Y-76255452D01*
X84645852Y-76411160D01*
X84645847Y-76411167D01*
X84519546Y-76591542D01*
X84519544Y-76591546D01*
X84475685Y-76685604D01*
X84458154Y-76723200D01*
X84455982Y-76727857D01*
X84409810Y-76780296D01*
X84342616Y-76799448D01*
X84275735Y-76779232D01*
X84231218Y-76727857D01*
X84167656Y-76591547D01*
X84167654Y-76591544D01*
X84167653Y-76591542D01*
X84076109Y-76460805D01*
X84041349Y-76411162D01*
X83885638Y-76255451D01*
X83705254Y-76129144D01*
X83705250Y-76129142D01*
X83505681Y-76036082D01*
X83505679Y-76036081D01*
X83505676Y-76036080D01*
X83352799Y-75995116D01*
X83292972Y-75979085D01*
X83292965Y-75979084D01*
X83073602Y-75959893D01*
X83073598Y-75959893D01*
X82927352Y-75972687D01*
X82854229Y-75979085D01*
X82854226Y-75979085D01*
X82774447Y-76000462D01*
X82704597Y-75998799D01*
X82654673Y-75968368D01*
X76917436Y-70231131D01*
X76917432Y-70231128D01*
X76813681Y-70161803D01*
X76813672Y-70161798D01*
X76698385Y-70114045D01*
X76698377Y-70114043D01*
X76575998Y-70089700D01*
X76575994Y-70089700D01*
X66547366Y-70089700D01*
X66480327Y-70070015D01*
X66459685Y-70053381D01*
X65899685Y-69493381D01*
X65866200Y-69432058D01*
X65871184Y-69362366D01*
X65913056Y-69306433D01*
X65978520Y-69282016D01*
X65987366Y-69281700D01*
X66086169Y-69281700D01*
X66308235Y-69244644D01*
X66521174Y-69171542D01*
X66719176Y-69064389D01*
X66896840Y-68926106D01*
X67018194Y-68794282D01*
X67049315Y-68760476D01*
X67049315Y-68760475D01*
X67049322Y-68760468D01*
X67139793Y-68621990D01*
X67192938Y-68576637D01*
X67262169Y-68567213D01*
X67325505Y-68596715D01*
X67347404Y-68621987D01*
X67437878Y-68760468D01*
X67437883Y-68760473D01*
X67437884Y-68760476D01*
X67590356Y-68926102D01*
X67590360Y-68926106D01*
X67768024Y-69064389D01*
X67768025Y-69064389D01*
X67768027Y-69064391D01*
X67827914Y-69096800D01*
X67966026Y-69171542D01*
X68178965Y-69244644D01*
X68401031Y-69281700D01*
X68626169Y-69281700D01*
X68848235Y-69244644D01*
X69061174Y-69171542D01*
X69259176Y-69064389D01*
X69436840Y-68926106D01*
X69558194Y-68794282D01*
X69589315Y-68760476D01*
X69589315Y-68760475D01*
X69589322Y-68760468D01*
X69683349Y-68616547D01*
X69736494Y-68571194D01*
X69805725Y-68561770D01*
X69869061Y-68591272D01*
X69888730Y-68613248D01*
X70015490Y-68794278D01*
X70182517Y-68961305D01*
X70376021Y-69096800D01*
X70590107Y-69196629D01*
X70590116Y-69196633D01*
X70803600Y-69253834D01*
X70803600Y-68356212D01*
X70860607Y-68389125D01*
X70987774Y-68423200D01*
X71119426Y-68423200D01*
X71246593Y-68389125D01*
X71303600Y-68356212D01*
X71303600Y-69253834D01*
G37*
%TD.AperFunction*%
%TA.AperFunction,Conductor*%
G36*
X59460940Y-67366559D02*
G01*
X59514414Y-67411529D01*
X59535086Y-67478270D01*
X59535100Y-67480102D01*
X59535100Y-68334433D01*
X59515415Y-68401472D01*
X59498781Y-68422114D01*
X57967515Y-69953381D01*
X57906192Y-69986866D01*
X57879834Y-69989700D01*
X57820909Y-69989700D01*
X57753870Y-69970015D01*
X57728760Y-69948673D01*
X57724854Y-69944335D01*
X57720843Y-69941421D01*
X57570352Y-69832082D01*
X57570351Y-69832081D01*
X57564729Y-69828836D01*
X57565752Y-69827063D01*
X57519856Y-69788047D01*
X57499539Y-69721197D01*
X57518589Y-69653974D01*
X57570958Y-69607722D01*
X57571469Y-69607485D01*
X57615066Y-69587315D01*
X57615077Y-69587309D01*
X57926317Y-69400043D01*
X57926333Y-69400032D01*
X58215529Y-69180192D01*
X58231710Y-69164864D01*
X58231710Y-69164863D01*
X56984298Y-67917451D01*
X57085930Y-67843612D01*
X57264012Y-67665530D01*
X57337851Y-67563898D01*
X58582628Y-68808675D01*
X58582629Y-68808675D01*
X58714427Y-68653511D01*
X58714438Y-68653497D01*
X58918281Y-68352851D01*
X58918283Y-68352847D01*
X59088438Y-68031902D01*
X59088447Y-68031884D01*
X59222902Y-67694427D01*
X59222904Y-67694420D01*
X59291620Y-67446929D01*
X59328522Y-67387599D01*
X59391642Y-67357638D01*
X59460940Y-67366559D01*
G37*
%TD.AperFunction*%
%TA.AperFunction,Conductor*%
G36*
X64789061Y-66051272D02*
G01*
X64808730Y-66073248D01*
X64935490Y-66254278D01*
X65102517Y-66421305D01*
X65283402Y-66547963D01*
X65327027Y-66602540D01*
X65334219Y-66672039D01*
X65302697Y-66734393D01*
X65271297Y-66758592D01*
X65228027Y-66782009D01*
X65228022Y-66782012D01*
X65050361Y-66920292D01*
X65050356Y-66920297D01*
X64897884Y-67085923D01*
X64897876Y-67085934D01*
X64807408Y-67224406D01*
X64754262Y-67269762D01*
X64685031Y-67279186D01*
X64621695Y-67249684D01*
X64599792Y-67224406D01*
X64509323Y-67085934D01*
X64509315Y-67085923D01*
X64356843Y-66920297D01*
X64356838Y-66920292D01*
X64179177Y-66782012D01*
X64179178Y-66782012D01*
X64179176Y-66782011D01*
X64142670Y-66762255D01*
X64093079Y-66713036D01*
X64077971Y-66644819D01*
X64102141Y-66579264D01*
X64142670Y-66544145D01*
X64142684Y-66544136D01*
X64179176Y-66524389D01*
X64356840Y-66386106D01*
X64478194Y-66254282D01*
X64509315Y-66220476D01*
X64509315Y-66220475D01*
X64509322Y-66220468D01*
X64603349Y-66076547D01*
X64656494Y-66031194D01*
X64725725Y-66021770D01*
X64789061Y-66051272D01*
G37*
%TD.AperFunction*%
%TA.AperFunction,Conductor*%
G36*
X125556783Y-61342885D02*
G01*
X125602538Y-61395689D01*
X125613743Y-61447054D01*
X125708881Y-143455602D01*
X125713456Y-147399056D01*
X125693849Y-147466118D01*
X125641098Y-147511935D01*
X125589456Y-147523200D01*
X45437600Y-147523200D01*
X45370561Y-147503515D01*
X45324806Y-147450711D01*
X45313600Y-147399200D01*
X45313600Y-143923200D01*
X51300435Y-143923200D01*
X51319065Y-144159914D01*
X51374495Y-144390795D01*
X51374495Y-144390797D01*
X51465357Y-144610159D01*
X51465359Y-144610162D01*
X51589420Y-144812610D01*
X51589421Y-144812613D01*
X51589424Y-144812616D01*
X51743631Y-144993169D01*
X51870545Y-145101564D01*
X51924186Y-145147378D01*
X51924189Y-145147379D01*
X52126637Y-145271440D01*
X52126640Y-145271442D01*
X52346003Y-145362304D01*
X52346004Y-145362304D01*
X52346006Y-145362305D01*
X52576889Y-145417735D01*
X52813600Y-145436365D01*
X53050311Y-145417735D01*
X53281194Y-145362305D01*
X53281196Y-145362304D01*
X53281197Y-145362304D01*
X53500559Y-145271442D01*
X53500560Y-145271441D01*
X53500563Y-145271440D01*
X53703016Y-145147376D01*
X53883569Y-144993169D01*
X54037776Y-144812616D01*
X54161840Y-144610163D01*
X54252705Y-144390794D01*
X54308135Y-144159911D01*
X54326765Y-143923200D01*
X54311024Y-143723194D01*
X119808459Y-143723194D01*
X119808459Y-143723205D01*
X119828985Y-143970929D01*
X119828987Y-143970938D01*
X119890012Y-144211917D01*
X119989867Y-144439567D01*
X120090162Y-144593081D01*
X120830637Y-143852608D01*
X120847675Y-143916193D01*
X120913501Y-144030207D01*
X121006593Y-144123299D01*
X121120607Y-144189125D01*
X121184191Y-144206162D01*
X120443543Y-144946809D01*
X120490368Y-144983255D01*
X120490371Y-144983257D01*
X120708985Y-145101564D01*
X120708996Y-145101569D01*
X120944106Y-145182283D01*
X121189307Y-145223200D01*
X121437893Y-145223200D01*
X121683093Y-145182283D01*
X121918203Y-145101569D01*
X121918214Y-145101564D01*
X122136830Y-144983256D01*
X122136836Y-144983251D01*
X122183655Y-144946810D01*
X122183656Y-144946809D01*
X121443008Y-144206162D01*
X121506593Y-144189125D01*
X121620607Y-144123299D01*
X121713699Y-144030207D01*
X121779525Y-143916193D01*
X121796562Y-143852609D01*
X122537035Y-144593082D01*
X122637333Y-144439564D01*
X122737187Y-144211917D01*
X122798212Y-143970938D01*
X122798214Y-143970929D01*
X122818741Y-143723205D01*
X122818741Y-143723194D01*
X122798214Y-143475470D01*
X122798212Y-143475461D01*
X122737187Y-143234482D01*
X122637332Y-143006832D01*
X122537035Y-142853316D01*
X121796562Y-143593790D01*
X121779525Y-143530207D01*
X121713699Y-143416193D01*
X121620607Y-143323101D01*
X121506593Y-143257275D01*
X121443009Y-143240237D01*
X122183655Y-142499589D01*
X122183655Y-142499588D01*
X122136836Y-142463147D01*
X122136831Y-142463144D01*
X121918214Y-142344835D01*
X121918203Y-142344830D01*
X121683093Y-142264116D01*
X121437893Y-142223200D01*
X121189307Y-142223200D01*
X120944106Y-142264116D01*
X120708996Y-142344830D01*
X120708985Y-142344835D01*
X120490370Y-142463143D01*
X120443543Y-142499589D01*
X121184191Y-143240237D01*
X121120607Y-143257275D01*
X121006593Y-143323101D01*
X120913501Y-143416193D01*
X120847675Y-143530207D01*
X120830637Y-143593791D01*
X120090163Y-142853317D01*
X119989867Y-143006833D01*
X119989865Y-143006837D01*
X119890012Y-143234482D01*
X119828987Y-143475461D01*
X119828985Y-143475470D01*
X119808459Y-143723194D01*
X54311024Y-143723194D01*
X54308135Y-143686489D01*
X54252705Y-143455606D01*
X54252704Y-143455603D01*
X54252704Y-143455602D01*
X54161842Y-143236240D01*
X54161840Y-143236237D01*
X54037779Y-143033789D01*
X54037778Y-143033786D01*
X54002940Y-142992997D01*
X53883569Y-142853231D01*
X53764196Y-142751276D01*
X53703013Y-142699021D01*
X53703010Y-142699020D01*
X53500562Y-142574959D01*
X53500559Y-142574957D01*
X53281196Y-142484095D01*
X53050314Y-142428665D01*
X52813600Y-142410035D01*
X52576885Y-142428665D01*
X52346004Y-142484095D01*
X52346002Y-142484095D01*
X52126640Y-142574957D01*
X52126637Y-142574959D01*
X51924189Y-142699020D01*
X51924186Y-142699021D01*
X51743631Y-142853231D01*
X51589421Y-143033786D01*
X51589420Y-143033789D01*
X51465359Y-143236237D01*
X51465357Y-143236240D01*
X51374495Y-143455602D01*
X51374495Y-143455604D01*
X51319065Y-143686485D01*
X51300435Y-143923200D01*
X45313600Y-143923200D01*
X45313600Y-123763198D01*
X48600225Y-123763198D01*
X48600225Y-123763201D01*
X48619700Y-124035507D01*
X48677728Y-124302253D01*
X48677730Y-124302260D01*
X48736964Y-124461073D01*
X48773133Y-124558046D01*
X48773135Y-124558050D01*
X48903963Y-124797643D01*
X48903968Y-124797651D01*
X49067561Y-125016186D01*
X49067577Y-125016204D01*
X49260595Y-125209222D01*
X49260613Y-125209238D01*
X49479148Y-125372831D01*
X49479156Y-125372836D01*
X49718749Y-125503664D01*
X49718753Y-125503666D01*
X49718755Y-125503667D01*
X49974540Y-125599070D01*
X50107919Y-125628085D01*
X50241292Y-125657099D01*
X50241294Y-125657099D01*
X50241298Y-125657100D01*
X50483282Y-125674406D01*
X50513599Y-125676575D01*
X50513600Y-125676575D01*
X50513601Y-125676575D01*
X50540880Y-125674623D01*
X50785902Y-125657100D01*
X51052660Y-125599070D01*
X51308445Y-125503667D01*
X51548049Y-125372833D01*
X51766594Y-125209232D01*
X51959632Y-125016194D01*
X52123233Y-124797649D01*
X52254067Y-124558045D01*
X52349470Y-124302260D01*
X52407500Y-124035502D01*
X52426975Y-123763200D01*
X52407500Y-123490898D01*
X52349470Y-123224140D01*
X52254067Y-122968355D01*
X52123233Y-122728751D01*
X52123231Y-122728748D01*
X51959638Y-122510213D01*
X51959622Y-122510195D01*
X51766604Y-122317177D01*
X51766586Y-122317161D01*
X51548051Y-122153568D01*
X51548043Y-122153563D01*
X51308450Y-122022735D01*
X51308446Y-122022733D01*
X51211473Y-121986564D01*
X51052660Y-121927330D01*
X51052656Y-121927329D01*
X51052653Y-121927328D01*
X50785907Y-121869300D01*
X50513601Y-121849825D01*
X50513599Y-121849825D01*
X50241292Y-121869300D01*
X49974546Y-121927328D01*
X49974541Y-121927329D01*
X49974540Y-121927330D01*
X49912697Y-121950396D01*
X49718753Y-122022733D01*
X49718749Y-122022735D01*
X49479156Y-122153563D01*
X49479148Y-122153568D01*
X49260613Y-122317161D01*
X49260595Y-122317177D01*
X49067577Y-122510195D01*
X49067561Y-122510213D01*
X48903968Y-122728748D01*
X48903963Y-122728756D01*
X48773135Y-122968349D01*
X48773133Y-122968353D01*
X48677728Y-123224146D01*
X48619700Y-123490892D01*
X48600225Y-123763198D01*
X45313600Y-123763198D01*
X45313600Y-115323197D01*
X52688680Y-115323197D01*
X52688680Y-115323202D01*
X52708346Y-115685928D01*
X52767117Y-116044414D01*
X52767119Y-116044422D01*
X52864295Y-116394420D01*
X52864297Y-116394427D01*
X52998752Y-116731884D01*
X52998761Y-116731902D01*
X53168916Y-117052847D01*
X53168918Y-117052851D01*
X53372770Y-117353509D01*
X53372777Y-117353519D01*
X53504569Y-117508675D01*
X53504570Y-117508675D01*
X54749347Y-116263897D01*
X54823188Y-116365530D01*
X55001270Y-116543612D01*
X55102900Y-116617451D01*
X53855488Y-117864862D01*
X53855488Y-117864864D01*
X53871670Y-117880192D01*
X53871671Y-117880193D01*
X54160866Y-118100032D01*
X54160882Y-118100043D01*
X54472122Y-118287309D01*
X54472135Y-118287316D01*
X54801805Y-118439839D01*
X54801810Y-118439840D01*
X55146061Y-118555832D01*
X55500835Y-118633924D01*
X55861966Y-118673199D01*
X55861974Y-118673200D01*
X56225226Y-118673200D01*
X56225233Y-118673199D01*
X56586364Y-118633924D01*
X56941138Y-118555832D01*
X57285389Y-118439840D01*
X57285394Y-118439839D01*
X57615064Y-118287316D01*
X57615077Y-118287309D01*
X57926317Y-118100043D01*
X57926333Y-118100032D01*
X58215529Y-117880192D01*
X58231710Y-117864864D01*
X58231710Y-117864863D01*
X56984298Y-116617451D01*
X57085930Y-116543612D01*
X57264012Y-116365530D01*
X57337851Y-116263898D01*
X58582628Y-117508675D01*
X58582629Y-117508675D01*
X58714427Y-117353511D01*
X58714438Y-117353497D01*
X58918281Y-117052851D01*
X58918283Y-117052847D01*
X59088438Y-116731902D01*
X59088447Y-116731884D01*
X59222902Y-116394427D01*
X59222904Y-116394420D01*
X59320080Y-116044422D01*
X59320082Y-116044414D01*
X59378853Y-115685928D01*
X59398520Y-115323202D01*
X59398520Y-115323197D01*
X59378853Y-114960471D01*
X59320082Y-114601985D01*
X59320080Y-114601977D01*
X59222904Y-114251979D01*
X59222902Y-114251972D01*
X59088447Y-113914515D01*
X59088438Y-113914497D01*
X58918283Y-113593552D01*
X58918281Y-113593548D01*
X58714429Y-113292890D01*
X58714422Y-113292880D01*
X58582629Y-113137723D01*
X58582628Y-113137723D01*
X57337851Y-114382500D01*
X57264012Y-114280870D01*
X57085930Y-114102788D01*
X56984297Y-114028947D01*
X58231710Y-112781536D01*
X58231710Y-112781534D01*
X58215529Y-112766207D01*
X58215528Y-112766206D01*
X57926333Y-112546367D01*
X57926317Y-112546356D01*
X57615077Y-112359090D01*
X57615064Y-112359083D01*
X57285394Y-112206560D01*
X57285389Y-112206559D01*
X56941138Y-112090567D01*
X56586364Y-112012475D01*
X56225233Y-111973200D01*
X55861966Y-111973200D01*
X55500835Y-112012475D01*
X55146061Y-112090567D01*
X54801810Y-112206559D01*
X54801805Y-112206560D01*
X54472135Y-112359083D01*
X54472122Y-112359090D01*
X54160882Y-112546356D01*
X54160866Y-112546367D01*
X53871675Y-112766202D01*
X53855488Y-112781535D01*
X53855487Y-112781535D01*
X55102901Y-114028948D01*
X55001270Y-114102788D01*
X54823188Y-114280870D01*
X54749348Y-114382501D01*
X53504570Y-113137722D01*
X53504569Y-113137723D01*
X53372777Y-113292880D01*
X53372770Y-113292890D01*
X53168918Y-113593548D01*
X53168916Y-113593552D01*
X52998761Y-113914497D01*
X52998752Y-113914515D01*
X52864297Y-114251972D01*
X52864295Y-114251979D01*
X52767119Y-114601977D01*
X52767117Y-114601985D01*
X52708346Y-114960471D01*
X52688680Y-115323197D01*
X45313600Y-115323197D01*
X45313600Y-78763198D01*
X48600225Y-78763198D01*
X48600225Y-78763201D01*
X48619700Y-79035507D01*
X48677728Y-79302253D01*
X48677730Y-79302260D01*
X48736964Y-79461073D01*
X48773133Y-79558046D01*
X48773135Y-79558050D01*
X48903963Y-79797643D01*
X48903968Y-79797651D01*
X49067561Y-80016186D01*
X49067577Y-80016204D01*
X49260595Y-80209222D01*
X49260613Y-80209238D01*
X49479148Y-80372831D01*
X49479156Y-80372836D01*
X49718749Y-80503664D01*
X49718753Y-80503666D01*
X49718755Y-80503667D01*
X49974540Y-80599070D01*
X50107919Y-80628085D01*
X50241292Y-80657099D01*
X50241294Y-80657099D01*
X50241298Y-80657100D01*
X50483282Y-80674406D01*
X50513599Y-80676575D01*
X50513600Y-80676575D01*
X50513601Y-80676575D01*
X50540880Y-80674623D01*
X50785902Y-80657100D01*
X51052660Y-80599070D01*
X51308445Y-80503667D01*
X51548049Y-80372833D01*
X51681792Y-80272713D01*
X51747253Y-80248298D01*
X51815526Y-80263150D01*
X51864932Y-80312555D01*
X51880100Y-80371982D01*
X51880100Y-102585598D01*
X51904443Y-102707977D01*
X51904445Y-102707985D01*
X51952198Y-102823272D01*
X51952203Y-102823281D01*
X52021528Y-102927032D01*
X52021531Y-102927036D01*
X59743781Y-110649285D01*
X59777266Y-110710608D01*
X59780100Y-110736966D01*
X59780100Y-126815912D01*
X59760415Y-126882951D01*
X59748250Y-126898884D01*
X59624559Y-127036257D01*
X59529073Y-127201643D01*
X59529070Y-127201650D01*
X59477361Y-127360796D01*
X59470058Y-127383272D01*
X59452619Y-127549197D01*
X59426034Y-127613811D01*
X59416979Y-127623916D01*
X59187515Y-127853381D01*
X59126192Y-127886866D01*
X59099834Y-127889700D01*
X52276201Y-127889700D01*
X52153822Y-127914043D01*
X52153814Y-127914045D01*
X52038527Y-127961798D01*
X52038518Y-127961803D01*
X51934767Y-128031128D01*
X51934763Y-128031131D01*
X51342775Y-128623121D01*
X51209767Y-128756129D01*
X51165647Y-128800249D01*
X51121527Y-128844368D01*
X51052203Y-128948118D01*
X51052198Y-128948127D01*
X51004445Y-129063414D01*
X51004443Y-129063422D01*
X50980100Y-129185801D01*
X50980100Y-129770405D01*
X50960415Y-129837444D01*
X50907611Y-129883199D01*
X50895105Y-129888111D01*
X50840862Y-129906085D01*
X50840853Y-129906089D01*
X50689952Y-129999167D01*
X50689948Y-129999170D01*
X50564570Y-130124548D01*
X50564567Y-130124552D01*
X50471484Y-130275461D01*
X50471483Y-130275464D01*
X50415713Y-130443771D01*
X50405100Y-130547648D01*
X50405100Y-131898751D01*
X50415713Y-132002628D01*
X50471483Y-132170935D01*
X50471484Y-132170938D01*
X50564567Y-132321847D01*
X50564570Y-132321851D01*
X50689948Y-132447229D01*
X50689952Y-132447232D01*
X50840861Y-132540315D01*
X50840864Y-132540316D01*
X51009171Y-132596086D01*
X51009172Y-132596086D01*
X51009175Y-132596087D01*
X51113056Y-132606700D01*
X51749834Y-132606700D01*
X51816873Y-132626385D01*
X51837515Y-132643019D01*
X52143781Y-132949285D01*
X52177266Y-133010608D01*
X52180100Y-133036966D01*
X52180100Y-134690700D01*
X52160415Y-134757739D01*
X52107611Y-134803494D01*
X52056100Y-134814700D01*
X51764945Y-134814700D01*
X51704397Y-134821211D01*
X51704395Y-134821211D01*
X51567395Y-134872311D01*
X51450339Y-134959939D01*
X51362711Y-135076995D01*
X51311611Y-135213995D01*
X51311611Y-135213997D01*
X51305100Y-135274545D01*
X51305100Y-137371854D01*
X51311611Y-137432402D01*
X51311611Y-137432404D01*
X51362711Y-137569404D01*
X51450339Y-137686461D01*
X51567396Y-137774089D01*
X51704399Y-137825189D01*
X51731650Y-137828118D01*
X51764945Y-137831699D01*
X51764962Y-137831700D01*
X53862238Y-137831700D01*
X53862254Y-137831699D01*
X53889292Y-137828791D01*
X53922801Y-137825189D01*
X54059804Y-137774089D01*
X54176861Y-137686461D01*
X54264489Y-137569404D01*
X54315589Y-137432401D01*
X54319191Y-137398892D01*
X54322099Y-137371854D01*
X54322100Y-137371837D01*
X54322100Y-135274562D01*
X54322099Y-135274545D01*
X54317293Y-135229849D01*
X54315589Y-135213999D01*
X54306274Y-135189026D01*
X54286434Y-135135833D01*
X54264489Y-135076996D01*
X54176861Y-134959939D01*
X54059804Y-134872311D01*
X54016419Y-134856129D01*
X53922803Y-134821211D01*
X53862254Y-134814700D01*
X53862238Y-134814700D01*
X53571100Y-134814700D01*
X53504061Y-134795015D01*
X53458306Y-134742211D01*
X53447100Y-134690700D01*
X53447100Y-132660805D01*
X53447099Y-132660801D01*
X53422757Y-132538423D01*
X53421293Y-132533598D01*
X53420664Y-132463731D01*
X53457908Y-132404615D01*
X53521200Y-132375020D01*
X53590446Y-132384341D01*
X53627632Y-132409913D01*
X53664948Y-132447229D01*
X53664952Y-132447232D01*
X53815861Y-132540315D01*
X53815864Y-132540316D01*
X53984171Y-132596086D01*
X53984172Y-132596086D01*
X53984175Y-132596087D01*
X54088056Y-132606700D01*
X54088061Y-132606700D01*
X55114139Y-132606700D01*
X55114144Y-132606700D01*
X55218025Y-132596087D01*
X55386338Y-132540315D01*
X55537251Y-132447230D01*
X55662630Y-132321851D01*
X55755715Y-132170938D01*
X55811487Y-132002625D01*
X55822100Y-131898744D01*
X55822100Y-131543163D01*
X55841785Y-131476124D01*
X55894589Y-131430369D01*
X55963747Y-131420425D01*
X55971880Y-131421872D01*
X56018113Y-131431700D01*
X56209087Y-131431700D01*
X56395888Y-131391994D01*
X56570352Y-131314318D01*
X56724853Y-131202066D01*
X56852640Y-131060144D01*
X56948127Y-130894756D01*
X57007142Y-130713128D01*
X57027104Y-130523200D01*
X57007142Y-130333272D01*
X56948127Y-130151644D01*
X56852640Y-129986256D01*
X56724853Y-129844334D01*
X56570352Y-129732082D01*
X56395888Y-129654406D01*
X56395886Y-129654405D01*
X56209087Y-129614700D01*
X56018113Y-129614700D01*
X55831314Y-129654405D01*
X55656846Y-129732083D01*
X55502345Y-129844335D01*
X55498440Y-129848673D01*
X55438954Y-129885321D01*
X55406291Y-129889700D01*
X55356899Y-129889700D01*
X55317895Y-129883406D01*
X55247688Y-129860142D01*
X55218026Y-129850313D01*
X55114151Y-129839700D01*
X55114144Y-129839700D01*
X54088056Y-129839700D01*
X54088048Y-129839700D01*
X53984171Y-129850313D01*
X53815864Y-129906083D01*
X53815861Y-129906084D01*
X53664952Y-129999167D01*
X53664948Y-129999170D01*
X53539570Y-130124548D01*
X53539567Y-130124552D01*
X53446484Y-130275461D01*
X53446483Y-130275464D01*
X53390713Y-130443771D01*
X53380100Y-130547648D01*
X53380100Y-131898751D01*
X53390713Y-132002628D01*
X53425259Y-132106884D01*
X53427660Y-132176713D01*
X53391928Y-132236754D01*
X53329407Y-132267946D01*
X53259948Y-132260385D01*
X53219872Y-132233568D01*
X52883419Y-131897115D01*
X52849934Y-131835792D01*
X52847100Y-131809434D01*
X52847100Y-130547661D01*
X52847099Y-130547648D01*
X52844601Y-130523200D01*
X52836487Y-130443775D01*
X52780715Y-130275462D01*
X52780715Y-130275461D01*
X52687632Y-130124552D01*
X52687629Y-130124548D01*
X52562251Y-129999170D01*
X52562247Y-129999167D01*
X52411346Y-129906089D01*
X52411340Y-129906086D01*
X52411338Y-129906085D01*
X52411332Y-129906083D01*
X52332096Y-129879827D01*
X52274651Y-129840054D01*
X52247828Y-129775538D01*
X52247100Y-129762121D01*
X52247100Y-129561966D01*
X52266785Y-129494927D01*
X52283419Y-129474285D01*
X52564685Y-129193019D01*
X52626008Y-129159534D01*
X52652366Y-129156700D01*
X59475995Y-129156700D01*
X59475996Y-129156699D01*
X59598385Y-129132355D01*
X59713675Y-129084600D01*
X59817433Y-129015271D01*
X60314685Y-128518019D01*
X60376008Y-128484534D01*
X60402366Y-128481700D01*
X60459087Y-128481700D01*
X60645888Y-128441994D01*
X60820352Y-128364318D01*
X60930708Y-128284139D01*
X60996512Y-128260660D01*
X61064566Y-128276485D01*
X61091273Y-128296777D01*
X62066978Y-129272482D01*
X62100463Y-129333805D01*
X62102618Y-129347201D01*
X62110203Y-129419363D01*
X62120058Y-129513128D01*
X62120059Y-129513131D01*
X62179070Y-129694749D01*
X62179073Y-129694756D01*
X62274560Y-129860144D01*
X62315929Y-129906089D01*
X62388112Y-129986257D01*
X62402347Y-130002066D01*
X62556848Y-130114318D01*
X62731312Y-130191994D01*
X62918113Y-130231700D01*
X63109087Y-130231700D01*
X63295888Y-130191994D01*
X63470352Y-130114318D01*
X63624853Y-130002066D01*
X63752640Y-129860144D01*
X63848127Y-129694756D01*
X63893778Y-129554256D01*
X63933215Y-129496582D01*
X63997574Y-129469383D01*
X64066420Y-129481298D01*
X64099390Y-129504894D01*
X64643781Y-130049285D01*
X64677266Y-130110608D01*
X64680100Y-130136966D01*
X64680100Y-138921441D01*
X64660415Y-138988480D01*
X64648250Y-139004413D01*
X64574563Y-139086250D01*
X64574558Y-139086257D01*
X64479073Y-139251643D01*
X64479070Y-139251650D01*
X64420059Y-139433268D01*
X64420058Y-139433272D01*
X64400096Y-139623200D01*
X64420058Y-139813128D01*
X64420059Y-139813131D01*
X64479070Y-139994749D01*
X64479073Y-139994756D01*
X64574560Y-140160144D01*
X64702347Y-140302066D01*
X64856848Y-140414318D01*
X65031312Y-140491994D01*
X65218113Y-140531700D01*
X65409087Y-140531700D01*
X65595888Y-140491994D01*
X65770352Y-140414318D01*
X65924853Y-140302066D01*
X66052640Y-140160144D01*
X66148127Y-139994756D01*
X66207142Y-139813128D01*
X66227104Y-139623200D01*
X66207142Y-139433272D01*
X66148127Y-139251644D01*
X66052640Y-139086256D01*
X66052636Y-139086250D01*
X65978950Y-139004413D01*
X65948720Y-138941421D01*
X65947100Y-138921441D01*
X65947100Y-129760805D01*
X65947099Y-129760801D01*
X65922757Y-129638422D01*
X65922754Y-129638413D01*
X65908768Y-129604647D01*
X65887896Y-129554257D01*
X65875001Y-129523125D01*
X65874999Y-129523123D01*
X65874999Y-129523121D01*
X65805672Y-129419367D01*
X65805669Y-129419363D01*
X62833419Y-126447113D01*
X62799934Y-126385790D01*
X62797100Y-126359432D01*
X62797100Y-110301966D01*
X62816785Y-110234927D01*
X62869589Y-110189172D01*
X62938747Y-110179228D01*
X63002303Y-110208253D01*
X63008781Y-110214285D01*
X64843781Y-112049285D01*
X64877266Y-112110608D01*
X64880100Y-112136966D01*
X64880100Y-125685598D01*
X64904443Y-125807977D01*
X64904445Y-125807985D01*
X64952198Y-125923272D01*
X64952203Y-125923281D01*
X65021528Y-126027032D01*
X65021531Y-126027036D01*
X68143781Y-129149285D01*
X68177266Y-129210608D01*
X68180100Y-129236966D01*
X68180100Y-135021441D01*
X68160415Y-135088480D01*
X68148250Y-135104413D01*
X68074563Y-135186250D01*
X68074558Y-135186257D01*
X67979073Y-135351643D01*
X67979070Y-135351650D01*
X67920059Y-135533268D01*
X67920058Y-135533272D01*
X67900096Y-135723200D01*
X67920058Y-135913128D01*
X67920059Y-135913131D01*
X67979070Y-136094749D01*
X67979073Y-136094756D01*
X68074560Y-136260144D01*
X68176890Y-136373794D01*
X68185409Y-136383255D01*
X68202347Y-136402066D01*
X68356848Y-136514318D01*
X68531312Y-136591994D01*
X68718113Y-136631700D01*
X68909087Y-136631700D01*
X69095888Y-136591994D01*
X69270352Y-136514318D01*
X69424853Y-136402066D01*
X69552640Y-136260144D01*
X69632214Y-136122318D01*
X69682780Y-136074104D01*
X69751387Y-136060880D01*
X69816251Y-136086848D01*
X69856780Y-136143762D01*
X69863600Y-136184319D01*
X69863600Y-136273200D01*
X70780588Y-136273200D01*
X70747675Y-136330207D01*
X70713600Y-136457374D01*
X70713600Y-136589026D01*
X70747675Y-136716193D01*
X70780588Y-136773200D01*
X69863600Y-136773200D01*
X69863600Y-137421044D01*
X69870001Y-137480572D01*
X69870003Y-137480579D01*
X69920245Y-137615286D01*
X69920249Y-137615293D01*
X70006409Y-137730387D01*
X70006412Y-137730390D01*
X70121506Y-137816550D01*
X70121513Y-137816554D01*
X70256220Y-137866796D01*
X70256227Y-137866798D01*
X70315755Y-137873199D01*
X70315772Y-137873200D01*
X70963600Y-137873200D01*
X70963600Y-136956212D01*
X71020607Y-136989125D01*
X71147774Y-137023200D01*
X71279426Y-137023200D01*
X71406593Y-136989125D01*
X71463600Y-136956212D01*
X71463600Y-137873200D01*
X72111428Y-137873200D01*
X72111444Y-137873199D01*
X72170972Y-137866798D01*
X72170979Y-137866796D01*
X72305686Y-137816554D01*
X72305693Y-137816550D01*
X72420787Y-137730390D01*
X72420790Y-137730387D01*
X72506950Y-137615293D01*
X72506954Y-137615286D01*
X72557196Y-137480579D01*
X72557198Y-137480572D01*
X72563599Y-137421044D01*
X72563600Y-137421027D01*
X72563600Y-136773200D01*
X71646612Y-136773200D01*
X71679525Y-136716193D01*
X71713600Y-136589026D01*
X71713600Y-136523198D01*
X76358443Y-136523198D01*
X76358443Y-136523201D01*
X76379030Y-136758515D01*
X76379032Y-136758526D01*
X76440166Y-136986683D01*
X76440170Y-136986692D01*
X76539998Y-137200776D01*
X76598673Y-137284572D01*
X77230637Y-136652608D01*
X77247675Y-136716193D01*
X77313501Y-136830207D01*
X77406593Y-136923299D01*
X77520607Y-136989125D01*
X77584191Y-137006162D01*
X76952226Y-137638126D01*
X77036017Y-137696798D01*
X77036021Y-137696800D01*
X77250107Y-137796629D01*
X77250116Y-137796633D01*
X77478273Y-137857767D01*
X77478284Y-137857769D01*
X77713598Y-137878357D01*
X77713602Y-137878357D01*
X77948915Y-137857769D01*
X77948926Y-137857767D01*
X78177083Y-137796633D01*
X78177092Y-137796629D01*
X78391180Y-137696799D01*
X78474971Y-137638125D01*
X77843008Y-137006162D01*
X77906593Y-136989125D01*
X78020607Y-136923299D01*
X78113699Y-136830207D01*
X78179525Y-136716193D01*
X78196562Y-136652608D01*
X78828525Y-137284571D01*
X78887199Y-137200780D01*
X78987029Y-136986692D01*
X78987033Y-136986683D01*
X79048167Y-136758526D01*
X79048169Y-136758515D01*
X79068757Y-136523201D01*
X79068757Y-136523198D01*
X79048169Y-136287884D01*
X79048167Y-136287873D01*
X78987033Y-136059716D01*
X78987029Y-136059707D01*
X78887201Y-135845624D01*
X78828525Y-135761826D01*
X78196562Y-136393790D01*
X78179525Y-136330207D01*
X78113699Y-136216193D01*
X78020607Y-136123101D01*
X77906593Y-136057275D01*
X77843009Y-136040237D01*
X78474972Y-135408273D01*
X78391176Y-135349598D01*
X78177092Y-135249770D01*
X78177083Y-135249766D01*
X77948926Y-135188632D01*
X77948915Y-135188630D01*
X77713602Y-135168043D01*
X77713598Y-135168043D01*
X77478284Y-135188630D01*
X77478273Y-135188632D01*
X77250116Y-135249766D01*
X77250107Y-135249770D01*
X77036023Y-135349599D01*
X77036021Y-135349600D01*
X76952227Y-135408273D01*
X76952226Y-135408273D01*
X77584191Y-136040237D01*
X77520607Y-136057275D01*
X77406593Y-136123101D01*
X77313501Y-136216193D01*
X77247675Y-136330207D01*
X77230637Y-136393790D01*
X76598673Y-135761826D01*
X76598673Y-135761827D01*
X76540000Y-135845621D01*
X76539999Y-135845623D01*
X76440170Y-136059707D01*
X76440166Y-136059716D01*
X76379032Y-136287873D01*
X76379030Y-136287884D01*
X76358443Y-136523198D01*
X71713600Y-136523198D01*
X71713600Y-136457374D01*
X71679525Y-136330207D01*
X71646612Y-136273200D01*
X72563600Y-136273200D01*
X72563600Y-135625372D01*
X72563599Y-135625355D01*
X72557198Y-135565827D01*
X72557196Y-135565820D01*
X72506954Y-135431113D01*
X72506950Y-135431106D01*
X72420790Y-135316012D01*
X72420787Y-135316009D01*
X72305693Y-135229849D01*
X72305686Y-135229845D01*
X72170979Y-135179603D01*
X72170972Y-135179601D01*
X72111444Y-135173200D01*
X71463600Y-135173200D01*
X71463600Y-136090188D01*
X71406593Y-136057275D01*
X71279426Y-136023200D01*
X71147774Y-136023200D01*
X71020607Y-136057275D01*
X70963600Y-136090188D01*
X70963600Y-135173200D01*
X70315755Y-135173200D01*
X70256227Y-135179601D01*
X70256220Y-135179603D01*
X70121513Y-135229845D01*
X70121506Y-135229849D01*
X70006412Y-135316009D01*
X70006409Y-135316012D01*
X69920249Y-135431106D01*
X69920244Y-135431116D01*
X69912862Y-135450908D01*
X69870990Y-135506841D01*
X69805526Y-135531257D01*
X69737253Y-135516404D01*
X69687848Y-135466999D01*
X69678750Y-135445891D01*
X69648129Y-135351649D01*
X69648126Y-135351643D01*
X69646946Y-135349600D01*
X69589308Y-135249766D01*
X69552641Y-135186257D01*
X69552636Y-135186250D01*
X69478950Y-135104413D01*
X69448720Y-135041421D01*
X69447100Y-135021441D01*
X69447100Y-131523200D01*
X69900096Y-131523200D01*
X69920058Y-131713128D01*
X69920059Y-131713131D01*
X69979070Y-131894749D01*
X69979073Y-131894756D01*
X70074560Y-132060144D01*
X70089770Y-132077036D01*
X70188112Y-132186257D01*
X70202347Y-132202066D01*
X70356848Y-132314318D01*
X70531312Y-132391994D01*
X70718113Y-132431700D01*
X70909087Y-132431700D01*
X71095888Y-132391994D01*
X71270352Y-132314318D01*
X71424853Y-132202066D01*
X71424854Y-132202064D01*
X71430110Y-132198246D01*
X71431690Y-132200421D01*
X71483908Y-132175318D01*
X71553249Y-132183896D01*
X71606945Y-132228600D01*
X71609510Y-132232586D01*
X71664569Y-132321850D01*
X71789948Y-132447229D01*
X71789952Y-132447232D01*
X71940861Y-132540315D01*
X71940864Y-132540316D01*
X72109171Y-132596086D01*
X72109172Y-132596086D01*
X72109175Y-132596087D01*
X72213056Y-132606700D01*
X72213061Y-132606700D01*
X73239139Y-132606700D01*
X73239144Y-132606700D01*
X73343025Y-132596087D01*
X73511338Y-132540315D01*
X73662251Y-132447230D01*
X73787630Y-132321851D01*
X73880715Y-132170938D01*
X73936487Y-132002625D01*
X73947100Y-131898744D01*
X73947100Y-130547656D01*
X73936487Y-130443775D01*
X73880715Y-130275462D01*
X73880715Y-130275461D01*
X73787632Y-130124552D01*
X73787629Y-130124548D01*
X73662251Y-129999170D01*
X73662247Y-129999167D01*
X73511338Y-129906084D01*
X73511335Y-129906083D01*
X73343028Y-129850313D01*
X73239151Y-129839700D01*
X73239144Y-129839700D01*
X72213056Y-129839700D01*
X72213048Y-129839700D01*
X72109171Y-129850313D01*
X71940864Y-129906083D01*
X71940861Y-129906084D01*
X71789952Y-129999167D01*
X71789948Y-129999170D01*
X71664570Y-130124548D01*
X71664567Y-130124552D01*
X71571484Y-130275461D01*
X71571483Y-130275464D01*
X71515713Y-130443771D01*
X71505100Y-130547648D01*
X71505100Y-130659272D01*
X71485415Y-130726311D01*
X71432611Y-130772066D01*
X71363453Y-130782010D01*
X71308215Y-130759591D01*
X71270353Y-130732083D01*
X71270352Y-130732082D01*
X71095888Y-130654406D01*
X71095886Y-130654405D01*
X70909087Y-130614700D01*
X70718113Y-130614700D01*
X70531314Y-130654405D01*
X70531312Y-130654406D01*
X70358989Y-130731129D01*
X70356846Y-130732083D01*
X70202345Y-130844335D01*
X70074559Y-130986257D01*
X69979073Y-131151643D01*
X69979070Y-131151650D01*
X69920059Y-131333268D01*
X69920058Y-131333272D01*
X69900096Y-131523200D01*
X69447100Y-131523200D01*
X69447100Y-128860805D01*
X69447099Y-128860801D01*
X69422757Y-128738422D01*
X69422754Y-128738413D01*
X69375001Y-128623125D01*
X69374999Y-128623123D01*
X69374999Y-128623121D01*
X69305672Y-128519367D01*
X69305669Y-128519363D01*
X66183419Y-125397113D01*
X66149934Y-125335790D01*
X66147100Y-125309432D01*
X66147100Y-111760805D01*
X66147099Y-111760801D01*
X66122757Y-111638422D01*
X66122754Y-111638413D01*
X66108768Y-111604647D01*
X66075001Y-111523125D01*
X66074999Y-111523123D01*
X66074999Y-111523121D01*
X66005672Y-111419367D01*
X66005669Y-111419363D01*
X56483419Y-101897113D01*
X56449934Y-101835790D01*
X56447100Y-101809432D01*
X56447100Y-86024956D01*
X56466785Y-85957917D01*
X56478946Y-85941988D01*
X56552640Y-85860144D01*
X56648127Y-85694756D01*
X56707142Y-85513128D01*
X56727104Y-85323200D01*
X56707142Y-85133272D01*
X56648127Y-84951644D01*
X56600383Y-84868950D01*
X56552641Y-84786257D01*
X56552636Y-84786250D01*
X56478950Y-84704413D01*
X56448720Y-84641421D01*
X56447100Y-84621441D01*
X56447100Y-78621737D01*
X56466785Y-78554698D01*
X56498213Y-78521421D01*
X56524853Y-78502066D01*
X56538863Y-78486507D01*
X56562937Y-78459769D01*
X56652640Y-78360144D01*
X56748127Y-78194756D01*
X56807142Y-78013128D01*
X56827104Y-77823200D01*
X56807142Y-77633272D01*
X56748127Y-77451644D01*
X56652640Y-77286256D01*
X56524853Y-77144334D01*
X56370352Y-77032082D01*
X56370351Y-77032081D01*
X56196647Y-76954743D01*
X56143410Y-76909493D01*
X56123089Y-76842644D01*
X56142134Y-76775420D01*
X56159398Y-76753787D01*
X56420167Y-76493019D01*
X56481490Y-76459534D01*
X56507848Y-76456700D01*
X70306291Y-76456700D01*
X70373330Y-76476385D01*
X70398440Y-76497727D01*
X70402347Y-76502066D01*
X70556848Y-76614318D01*
X70731312Y-76691994D01*
X70918113Y-76731700D01*
X71109087Y-76731700D01*
X71295888Y-76691994D01*
X71470352Y-76614318D01*
X71624853Y-76502066D01*
X71752640Y-76360144D01*
X71848127Y-76194756D01*
X71907142Y-76013128D01*
X71927104Y-75823200D01*
X71907142Y-75633272D01*
X71848127Y-75451644D01*
X71752640Y-75286256D01*
X71624853Y-75144334D01*
X71470352Y-75032082D01*
X71295888Y-74954406D01*
X71295886Y-74954405D01*
X71109087Y-74914700D01*
X70918113Y-74914700D01*
X70731314Y-74954405D01*
X70731312Y-74954406D01*
X70575192Y-75023915D01*
X70556844Y-75032084D01*
X70509656Y-75066368D01*
X70443850Y-75089847D01*
X70375796Y-75074021D01*
X70327102Y-75023915D01*
X70313227Y-74955437D01*
X70313436Y-74953239D01*
X70327104Y-74823200D01*
X70307142Y-74633272D01*
X70248127Y-74451644D01*
X70242961Y-74442697D01*
X70226490Y-74374799D01*
X70249343Y-74308772D01*
X70304265Y-74265582D01*
X70350350Y-74256700D01*
X75099834Y-74256700D01*
X75166873Y-74276385D01*
X75187515Y-74293019D01*
X76723781Y-75829285D01*
X76757266Y-75890608D01*
X76760100Y-75916966D01*
X76760100Y-76017493D01*
X76740415Y-76084532D01*
X76687611Y-76130287D01*
X76618453Y-76140231D01*
X76561789Y-76116759D01*
X76445693Y-76029849D01*
X76445686Y-76029845D01*
X76310979Y-75979603D01*
X76310972Y-75979601D01*
X76251444Y-75973200D01*
X75703600Y-75973200D01*
X75703600Y-76790188D01*
X75646593Y-76757275D01*
X75519426Y-76723200D01*
X75387774Y-76723200D01*
X75260607Y-76757275D01*
X75203600Y-76790188D01*
X75203600Y-75973200D01*
X74655755Y-75973200D01*
X74596227Y-75979601D01*
X74596220Y-75979603D01*
X74461513Y-76029845D01*
X74461506Y-76029849D01*
X74346412Y-76116009D01*
X74346409Y-76116012D01*
X74260249Y-76231106D01*
X74260245Y-76231113D01*
X74210003Y-76365820D01*
X74210001Y-76365827D01*
X74203600Y-76425355D01*
X74203600Y-76973200D01*
X75020588Y-76973200D01*
X74987675Y-77030207D01*
X74953600Y-77157374D01*
X74953600Y-77289026D01*
X74987675Y-77416193D01*
X75020588Y-77473200D01*
X74203600Y-77473200D01*
X74203600Y-78021044D01*
X74210001Y-78080572D01*
X74210003Y-78080579D01*
X74260245Y-78215286D01*
X74260249Y-78215293D01*
X74346409Y-78330387D01*
X74346412Y-78330390D01*
X74461506Y-78416550D01*
X74461513Y-78416554D01*
X74596220Y-78466796D01*
X74596227Y-78466798D01*
X74655755Y-78473199D01*
X74655772Y-78473200D01*
X75203600Y-78473200D01*
X75203600Y-77656212D01*
X75260607Y-77689125D01*
X75387774Y-77723200D01*
X75519426Y-77723200D01*
X75646593Y-77689125D01*
X75703600Y-77656212D01*
X75703600Y-78473200D01*
X76251428Y-78473200D01*
X76251444Y-78473199D01*
X76310972Y-78466798D01*
X76310979Y-78466796D01*
X76445686Y-78416554D01*
X76445693Y-78416550D01*
X76560787Y-78330390D01*
X76560790Y-78330387D01*
X76646950Y-78215293D01*
X76646954Y-78215286D01*
X76697196Y-78080579D01*
X76697198Y-78080572D01*
X76703599Y-78021044D01*
X76703600Y-78021027D01*
X76703600Y-77968294D01*
X76723285Y-77901255D01*
X76776089Y-77855500D01*
X76845247Y-77845556D01*
X76908803Y-77874581D01*
X76929171Y-77897165D01*
X77025851Y-78035238D01*
X77181562Y-78190949D01*
X77361946Y-78317256D01*
X77561524Y-78410320D01*
X77774229Y-78467315D01*
X77915691Y-78479691D01*
X77993598Y-78486507D01*
X77993600Y-78486507D01*
X77993602Y-78486507D01*
X78048442Y-78481709D01*
X78212971Y-78467315D01*
X78425676Y-78410320D01*
X78625254Y-78317256D01*
X78805638Y-78190949D01*
X78961349Y-78035238D01*
X79087656Y-77854854D01*
X79151218Y-77718544D01*
X79197390Y-77666104D01*
X79264583Y-77646952D01*
X79331465Y-77667167D01*
X79375982Y-77718544D01*
X79424783Y-77823200D01*
X79439544Y-77854854D01*
X79565851Y-78035238D01*
X79721562Y-78190949D01*
X79901946Y-78317256D01*
X80101524Y-78410320D01*
X80314229Y-78467315D01*
X80455691Y-78479691D01*
X80533598Y-78486507D01*
X80533600Y-78486507D01*
X80533602Y-78486507D01*
X80588442Y-78481709D01*
X80752971Y-78467315D01*
X80965676Y-78410320D01*
X81165254Y-78317256D01*
X81345638Y-78190949D01*
X81501349Y-78035238D01*
X81627656Y-77854854D01*
X81691218Y-77718544D01*
X81737390Y-77666104D01*
X81804583Y-77646952D01*
X81871465Y-77667167D01*
X81915982Y-77718544D01*
X81964783Y-77823200D01*
X81979544Y-77854854D01*
X82105851Y-78035238D01*
X82261562Y-78190949D01*
X82441946Y-78317256D01*
X82641524Y-78410320D01*
X82854229Y-78467315D01*
X82995691Y-78479691D01*
X83073598Y-78486507D01*
X83073600Y-78486507D01*
X83073601Y-78486507D01*
X83092296Y-78484871D01*
X83151506Y-78479691D01*
X83220006Y-78493458D01*
X83270189Y-78542073D01*
X83286123Y-78610101D01*
X83262748Y-78675945D01*
X83249995Y-78690900D01*
X83057515Y-78883381D01*
X82996192Y-78916866D01*
X82969834Y-78919700D01*
X71920909Y-78919700D01*
X71853870Y-78900015D01*
X71828760Y-78878673D01*
X71824854Y-78874335D01*
X71671891Y-78763200D01*
X71670352Y-78762082D01*
X71495888Y-78684406D01*
X71495886Y-78684405D01*
X71309087Y-78644700D01*
X71118113Y-78644700D01*
X70931314Y-78684405D01*
X70756846Y-78762083D01*
X70602345Y-78874335D01*
X70474559Y-79016257D01*
X70379073Y-79181643D01*
X70379070Y-79181650D01*
X70339884Y-79302253D01*
X70320058Y-79363272D01*
X70300096Y-79553200D01*
X70320058Y-79743128D01*
X70320059Y-79743131D01*
X70379070Y-79924749D01*
X70379073Y-79924756D01*
X70474560Y-80090144D01*
X70561499Y-80186700D01*
X70594431Y-80223275D01*
X70602347Y-80232066D01*
X70756848Y-80344318D01*
X70931312Y-80421994D01*
X71118113Y-80461700D01*
X71309087Y-80461700D01*
X71495888Y-80421994D01*
X71670352Y-80344318D01*
X71824853Y-80232066D01*
X71828760Y-80227727D01*
X71888246Y-80191079D01*
X71920909Y-80186700D01*
X83345995Y-80186700D01*
X83345996Y-80186699D01*
X83468385Y-80162355D01*
X83583675Y-80114600D01*
X83687433Y-80045271D01*
X85241994Y-78490708D01*
X85303315Y-78457225D01*
X85361768Y-78458616D01*
X85394229Y-78467315D01*
X85575214Y-78483148D01*
X85613598Y-78486507D01*
X85613600Y-78486507D01*
X85613602Y-78486507D01*
X85668442Y-78481709D01*
X85832971Y-78467315D01*
X86045676Y-78410320D01*
X86103696Y-78383264D01*
X86172773Y-78372773D01*
X86236557Y-78401293D01*
X86274796Y-78459769D01*
X86280100Y-78495647D01*
X86280100Y-79609433D01*
X86260415Y-79676472D01*
X86243781Y-79697114D01*
X85341826Y-80599070D01*
X84609767Y-81331129D01*
X84565647Y-81375249D01*
X84521527Y-81419368D01*
X84452203Y-81523118D01*
X84452198Y-81523127D01*
X84404445Y-81638414D01*
X84404443Y-81638422D01*
X84380100Y-81760801D01*
X84380100Y-82372754D01*
X84360415Y-82439793D01*
X84320890Y-82478481D01*
X84124189Y-82599020D01*
X84124186Y-82599021D01*
X83943631Y-82753231D01*
X83789421Y-82933786D01*
X83789420Y-82933789D01*
X83665359Y-83136237D01*
X83665357Y-83136240D01*
X83574495Y-83355602D01*
X83574495Y-83355604D01*
X83519065Y-83586485D01*
X83500435Y-83823200D01*
X83519065Y-84059914D01*
X83574495Y-84290795D01*
X83574495Y-84290797D01*
X83665357Y-84510159D01*
X83665359Y-84510162D01*
X83789420Y-84712610D01*
X83789421Y-84712613D01*
X83789424Y-84712616D01*
X83943631Y-84893169D01*
X84035277Y-84971442D01*
X84124186Y-85047378D01*
X84124189Y-85047379D01*
X84326637Y-85171440D01*
X84326640Y-85171442D01*
X84546003Y-85262304D01*
X84546004Y-85262304D01*
X84546006Y-85262305D01*
X84776889Y-85317735D01*
X85013600Y-85336365D01*
X85250311Y-85317735D01*
X85481194Y-85262305D01*
X85481196Y-85262304D01*
X85481197Y-85262304D01*
X85700559Y-85171442D01*
X85700560Y-85171441D01*
X85700563Y-85171440D01*
X85903016Y-85047376D01*
X86083569Y-84893169D01*
X86237776Y-84712616D01*
X86361840Y-84510163D01*
X86452705Y-84290794D01*
X86508135Y-84059911D01*
X86526765Y-83823200D01*
X86508135Y-83586489D01*
X86452705Y-83355606D01*
X86452704Y-83355603D01*
X86452704Y-83355602D01*
X86361842Y-83136240D01*
X86361840Y-83136237D01*
X86237779Y-82933789D01*
X86237778Y-82933786D01*
X86202940Y-82892997D01*
X86083569Y-82753231D01*
X85964196Y-82651276D01*
X85903013Y-82599021D01*
X85903010Y-82599020D01*
X85706310Y-82478481D01*
X85659435Y-82426669D01*
X85647100Y-82372754D01*
X85647100Y-82136966D01*
X85666785Y-82069927D01*
X85683419Y-82049285D01*
X87405669Y-80327036D01*
X87405669Y-80327035D01*
X87405672Y-80327033D01*
X87475001Y-80223275D01*
X87522755Y-80107985D01*
X87525194Y-80095726D01*
X87547099Y-79985598D01*
X87547100Y-79985595D01*
X87547100Y-78523625D01*
X87566785Y-78456586D01*
X87619589Y-78410831D01*
X87688747Y-78400887D01*
X87716211Y-78409072D01*
X87716432Y-78408467D01*
X87721513Y-78410316D01*
X87721518Y-78410317D01*
X87721524Y-78410320D01*
X87934229Y-78467315D01*
X88075691Y-78479691D01*
X88153598Y-78486507D01*
X88153600Y-78486507D01*
X88153602Y-78486507D01*
X88208442Y-78481709D01*
X88372971Y-78467315D01*
X88585676Y-78410320D01*
X88785254Y-78317256D01*
X88789975Y-78313949D01*
X88856181Y-78291622D01*
X88923948Y-78308631D01*
X88971762Y-78359578D01*
X88985100Y-78415524D01*
X88985100Y-81997653D01*
X88965415Y-82064692D01*
X88912611Y-82110447D01*
X88870831Y-82121271D01*
X88835864Y-82124023D01*
X88776889Y-82128665D01*
X88776885Y-82128666D01*
X88546004Y-82184095D01*
X88546002Y-82184095D01*
X88326640Y-82274957D01*
X88326637Y-82274959D01*
X88124189Y-82399020D01*
X88124186Y-82399021D01*
X87943631Y-82553231D01*
X87789421Y-82733786D01*
X87789420Y-82733789D01*
X87665359Y-82936237D01*
X87665357Y-82936240D01*
X87574495Y-83155602D01*
X87574495Y-83155604D01*
X87519065Y-83386485D01*
X87500435Y-83623200D01*
X87519065Y-83859914D01*
X87574495Y-84090795D01*
X87574495Y-84090797D01*
X87665357Y-84310159D01*
X87665359Y-84310162D01*
X87789420Y-84512610D01*
X87789421Y-84512613D01*
X87789424Y-84512616D01*
X87943631Y-84693169D01*
X88052615Y-84786250D01*
X88124186Y-84847378D01*
X88124189Y-84847379D01*
X88326637Y-84971440D01*
X88326640Y-84971442D01*
X88546003Y-85062304D01*
X88546004Y-85062304D01*
X88546006Y-85062305D01*
X88776889Y-85117735D01*
X89013600Y-85136365D01*
X89250311Y-85117735D01*
X89481194Y-85062305D01*
X89481196Y-85062304D01*
X89481197Y-85062304D01*
X89700559Y-84971442D01*
X89700560Y-84971441D01*
X89700563Y-84971440D01*
X89903016Y-84847376D01*
X90083569Y-84693169D01*
X90237776Y-84512616D01*
X90361840Y-84310163D01*
X90369863Y-84290795D01*
X90452704Y-84090797D01*
X90452704Y-84090796D01*
X90452705Y-84090794D01*
X90508135Y-83859911D01*
X90526765Y-83623200D01*
X90508135Y-83386489D01*
X90452705Y-83155606D01*
X90452704Y-83155603D01*
X90452704Y-83155602D01*
X90361842Y-82936240D01*
X90361840Y-82936237D01*
X90270373Y-82786976D01*
X90252100Y-82722186D01*
X90252100Y-78569395D01*
X90271785Y-78502356D01*
X90324589Y-78456601D01*
X90393747Y-78446657D01*
X90408179Y-78449616D01*
X90474229Y-78467315D01*
X90615691Y-78479691D01*
X90693598Y-78486507D01*
X90693600Y-78486507D01*
X90693602Y-78486507D01*
X90748442Y-78481709D01*
X90912971Y-78467315D01*
X91125676Y-78410320D01*
X91325254Y-78317256D01*
X91505638Y-78190949D01*
X91661349Y-78035238D01*
X91754526Y-77902168D01*
X91809102Y-77858544D01*
X91878601Y-77851352D01*
X91940955Y-77882874D01*
X91976369Y-77943104D01*
X91980100Y-77973293D01*
X91980100Y-82172754D01*
X91960415Y-82239793D01*
X91920890Y-82278481D01*
X91724189Y-82399020D01*
X91724186Y-82399021D01*
X91543631Y-82553231D01*
X91389421Y-82733786D01*
X91389420Y-82733789D01*
X91265359Y-82936237D01*
X91265357Y-82936240D01*
X91174495Y-83155602D01*
X91174495Y-83155604D01*
X91119065Y-83386485D01*
X91100435Y-83623200D01*
X91119065Y-83859914D01*
X91174495Y-84090795D01*
X91174495Y-84090797D01*
X91265357Y-84310159D01*
X91265359Y-84310162D01*
X91389420Y-84512610D01*
X91389421Y-84512613D01*
X91389424Y-84512616D01*
X91543631Y-84693169D01*
X91652615Y-84786250D01*
X91724186Y-84847378D01*
X91724189Y-84847379D01*
X91926637Y-84971440D01*
X91926640Y-84971442D01*
X92146003Y-85062304D01*
X92146004Y-85062304D01*
X92146006Y-85062305D01*
X92376889Y-85117735D01*
X92613600Y-85136365D01*
X92850311Y-85117735D01*
X93081194Y-85062305D01*
X93081196Y-85062304D01*
X93081197Y-85062304D01*
X93300559Y-84971442D01*
X93300560Y-84971441D01*
X93300563Y-84971440D01*
X93503016Y-84847376D01*
X93683569Y-84693169D01*
X93837776Y-84512616D01*
X93961840Y-84310163D01*
X93969863Y-84290795D01*
X94052704Y-84090797D01*
X94052704Y-84090796D01*
X94052705Y-84090794D01*
X94108135Y-83859911D01*
X94126765Y-83623200D01*
X94108135Y-83386489D01*
X94052705Y-83155606D01*
X94052704Y-83155603D01*
X94052704Y-83155602D01*
X93961842Y-82936240D01*
X93961840Y-82936237D01*
X93837779Y-82733789D01*
X93837778Y-82733786D01*
X93802940Y-82692997D01*
X93683569Y-82553231D01*
X93535384Y-82426669D01*
X93503013Y-82399021D01*
X93503010Y-82399020D01*
X93306310Y-82278481D01*
X93259435Y-82226669D01*
X93247100Y-82172754D01*
X93247100Y-74160805D01*
X93247099Y-74160801D01*
X93238043Y-74115272D01*
X93222755Y-74038415D01*
X93175000Y-73923125D01*
X93174999Y-73923124D01*
X93174996Y-73923118D01*
X93105672Y-73819368D01*
X93062689Y-73776385D01*
X93017433Y-73731129D01*
X89503419Y-70217115D01*
X89469934Y-70155792D01*
X89467100Y-70129434D01*
X89467100Y-69198929D01*
X89486785Y-69131890D01*
X89532084Y-69089874D01*
X89579166Y-69064395D01*
X89579172Y-69064391D01*
X89579176Y-69064389D01*
X89756840Y-68926106D01*
X89878194Y-68794282D01*
X89909315Y-68760476D01*
X89909315Y-68760475D01*
X89909322Y-68760468D01*
X90003349Y-68616547D01*
X90056494Y-68571194D01*
X90125725Y-68561770D01*
X90189061Y-68591272D01*
X90208730Y-68613248D01*
X90335490Y-68794278D01*
X90502517Y-68961305D01*
X90696021Y-69096800D01*
X90910107Y-69196629D01*
X90910116Y-69196633D01*
X91123600Y-69253834D01*
X91123600Y-68356212D01*
X91180607Y-68389125D01*
X91307774Y-68423200D01*
X91439426Y-68423200D01*
X91566593Y-68389125D01*
X91623600Y-68356212D01*
X91623600Y-69253833D01*
X91837083Y-69196633D01*
X91837092Y-69196629D01*
X92051178Y-69096800D01*
X92244682Y-68961305D01*
X92411705Y-68794282D01*
X92538468Y-68613248D01*
X92593045Y-68569623D01*
X92662544Y-68562431D01*
X92724898Y-68593953D01*
X92743851Y-68616550D01*
X92837876Y-68760465D01*
X92837884Y-68760476D01*
X92990356Y-68926102D01*
X92990360Y-68926106D01*
X93168024Y-69064389D01*
X93168025Y-69064389D01*
X93168027Y-69064391D01*
X93227914Y-69096800D01*
X93366026Y-69171542D01*
X93578965Y-69244644D01*
X93801031Y-69281700D01*
X94026169Y-69281700D01*
X94248235Y-69244644D01*
X94461174Y-69171542D01*
X94659176Y-69064389D01*
X94836840Y-68926106D01*
X94958194Y-68794282D01*
X94989315Y-68760476D01*
X94989315Y-68760475D01*
X94989322Y-68760468D01*
X95079793Y-68621990D01*
X95132938Y-68576637D01*
X95202169Y-68567213D01*
X95265505Y-68596715D01*
X95287404Y-68621987D01*
X95377878Y-68760468D01*
X95377883Y-68760473D01*
X95377884Y-68760476D01*
X95530356Y-68926102D01*
X95530360Y-68926106D01*
X95708024Y-69064389D01*
X95708025Y-69064389D01*
X95708027Y-69064391D01*
X95767914Y-69096800D01*
X95906026Y-69171542D01*
X96118965Y-69244644D01*
X96341031Y-69281700D01*
X96566169Y-69281700D01*
X96788235Y-69244644D01*
X97001174Y-69171542D01*
X97199176Y-69064389D01*
X97376840Y-68926106D01*
X97498194Y-68794282D01*
X97529315Y-68760476D01*
X97529315Y-68760475D01*
X97529322Y-68760468D01*
X97619793Y-68621990D01*
X97672938Y-68576637D01*
X97742169Y-68567213D01*
X97805505Y-68596715D01*
X97827404Y-68621987D01*
X97917878Y-68760468D01*
X97917883Y-68760473D01*
X97917884Y-68760476D01*
X98070356Y-68926102D01*
X98070360Y-68926106D01*
X98248024Y-69064389D01*
X98248025Y-69064389D01*
X98248027Y-69064391D01*
X98307914Y-69096800D01*
X98446026Y-69171542D01*
X98658965Y-69244644D01*
X98881031Y-69281700D01*
X99106169Y-69281700D01*
X99328235Y-69244644D01*
X99370836Y-69230019D01*
X99440635Y-69226869D01*
X99501057Y-69261955D01*
X99532917Y-69324137D01*
X99535100Y-69347300D01*
X99535100Y-72554434D01*
X99515415Y-72621473D01*
X99498781Y-72642115D01*
X99462515Y-72678381D01*
X99401192Y-72711866D01*
X99374834Y-72714700D01*
X99318113Y-72714700D01*
X99131314Y-72754405D01*
X98956846Y-72832083D01*
X98802345Y-72944335D01*
X98674559Y-73086257D01*
X98579073Y-73251643D01*
X98579070Y-73251650D01*
X98541979Y-73365806D01*
X98520058Y-73433272D01*
X98500096Y-73623200D01*
X98520058Y-73813128D01*
X98520059Y-73813131D01*
X98579070Y-73994749D01*
X98579073Y-73994756D01*
X98674560Y-74160144D01*
X98802347Y-74302066D01*
X98956848Y-74414318D01*
X99131312Y-74491994D01*
X99318113Y-74531700D01*
X99509087Y-74531700D01*
X99695888Y-74491994D01*
X99870352Y-74414318D01*
X100024853Y-74302066D01*
X100152640Y-74160144D01*
X100248127Y-73994756D01*
X100307142Y-73813128D01*
X100324581Y-73647197D01*
X100351164Y-73582587D01*
X100360201Y-73572501D01*
X100660671Y-73272033D01*
X100730000Y-73168275D01*
X100777755Y-73052985D01*
X100802100Y-72930594D01*
X100802100Y-72805806D01*
X100802100Y-69280105D01*
X100821785Y-69213066D01*
X100874589Y-69167311D01*
X100943747Y-69157367D01*
X100981206Y-69169757D01*
X100981328Y-69169481D01*
X100984264Y-69170769D01*
X100985121Y-69171052D01*
X100986026Y-69171542D01*
X101198965Y-69244644D01*
X101421031Y-69281700D01*
X101646171Y-69281700D01*
X101679757Y-69276095D01*
X101694642Y-69273611D01*
X101764006Y-69281991D01*
X101802734Y-69308238D01*
X111043781Y-78549285D01*
X111077266Y-78610608D01*
X111080100Y-78636966D01*
X111080100Y-82517694D01*
X111060415Y-82584733D01*
X111007611Y-82630488D01*
X110938453Y-82640432D01*
X110874897Y-82611407D01*
X110855787Y-82590586D01*
X110852643Y-82586259D01*
X110724854Y-82444335D01*
X110718603Y-82439793D01*
X110570352Y-82332082D01*
X110395888Y-82254406D01*
X110395886Y-82254405D01*
X110209087Y-82214700D01*
X110018113Y-82214700D01*
X109831314Y-82254405D01*
X109656846Y-82332083D01*
X109502345Y-82444335D01*
X109374559Y-82586257D01*
X109279073Y-82751643D01*
X109279070Y-82751650D01*
X109220059Y-82933268D01*
X109220058Y-82933272D01*
X109200096Y-83123200D01*
X109220058Y-83313128D01*
X109220059Y-83313131D01*
X109279070Y-83494749D01*
X109279073Y-83494756D01*
X109363487Y-83640965D01*
X109380100Y-83702965D01*
X109380100Y-102309434D01*
X109360415Y-102376473D01*
X109343781Y-102397115D01*
X93309767Y-118431129D01*
X93265647Y-118475249D01*
X93221527Y-118519368D01*
X93152203Y-118623118D01*
X93152198Y-118623127D01*
X93104445Y-118738414D01*
X93104443Y-118738422D01*
X93080100Y-118860801D01*
X93080100Y-133213763D01*
X93060415Y-133280802D01*
X93007611Y-133326557D01*
X92938453Y-133336501D01*
X92883215Y-133314081D01*
X92770356Y-133232084D01*
X92770352Y-133232082D01*
X92595888Y-133154406D01*
X92595886Y-133154405D01*
X92409087Y-133114700D01*
X92352366Y-133114700D01*
X92285327Y-133095015D01*
X92264685Y-133078381D01*
X89917436Y-130731131D01*
X89917432Y-130731128D01*
X89813681Y-130661803D01*
X89813672Y-130661798D01*
X89698385Y-130614045D01*
X89698377Y-130614043D01*
X89575998Y-130589700D01*
X89575994Y-130589700D01*
X77038373Y-130589700D01*
X76971334Y-130570015D01*
X76925579Y-130517211D01*
X76915015Y-130478304D01*
X76913713Y-130465568D01*
X76911487Y-130443775D01*
X76855715Y-130275462D01*
X76855715Y-130275461D01*
X76762632Y-130124552D01*
X76762629Y-130124548D01*
X76637251Y-129999170D01*
X76637247Y-129999167D01*
X76486338Y-129906084D01*
X76486335Y-129906083D01*
X76318028Y-129850313D01*
X76214151Y-129839700D01*
X76214144Y-129839700D01*
X75188056Y-129839700D01*
X75188048Y-129839700D01*
X75084171Y-129850313D01*
X74915864Y-129906083D01*
X74915861Y-129906084D01*
X74764952Y-129999167D01*
X74764948Y-129999170D01*
X74639570Y-130124548D01*
X74639567Y-130124552D01*
X74546484Y-130275461D01*
X74546483Y-130275464D01*
X74490713Y-130443771D01*
X74480100Y-130547648D01*
X74480100Y-131898751D01*
X74490713Y-132002628D01*
X74546483Y-132170935D01*
X74546484Y-132170938D01*
X74639567Y-132321847D01*
X74639570Y-132321851D01*
X74764948Y-132447229D01*
X74764952Y-132447232D01*
X74915861Y-132540315D01*
X74915864Y-132540316D01*
X75084171Y-132596086D01*
X75084172Y-132596086D01*
X75084175Y-132596087D01*
X75188056Y-132606700D01*
X75188061Y-132606700D01*
X76214139Y-132606700D01*
X76214144Y-132606700D01*
X76318025Y-132596087D01*
X76486338Y-132540315D01*
X76637251Y-132447230D01*
X76762630Y-132321851D01*
X76855715Y-132170938D01*
X76911487Y-132002625D01*
X76915015Y-131968096D01*
X76941412Y-131903404D01*
X76998594Y-131863254D01*
X77038373Y-131856700D01*
X89199834Y-131856700D01*
X89266873Y-131876385D01*
X89287515Y-131893019D01*
X91366978Y-133972482D01*
X91400463Y-134033805D01*
X91402618Y-134047201D01*
X91410592Y-134123068D01*
X91420058Y-134213128D01*
X91420059Y-134213131D01*
X91479070Y-134394749D01*
X91479073Y-134394756D01*
X91574560Y-134560144D01*
X91702347Y-134702066D01*
X91856848Y-134814318D01*
X92031312Y-134891994D01*
X92218113Y-134931700D01*
X92409086Y-134931700D01*
X92409087Y-134931700D01*
X92507731Y-134910732D01*
X92577395Y-134916047D01*
X92633129Y-134958184D01*
X92657235Y-135023764D01*
X92642059Y-135091965D01*
X92621191Y-135119703D01*
X87387515Y-140353381D01*
X87326192Y-140386866D01*
X87299834Y-140389700D01*
X78989556Y-140389700D01*
X78922517Y-140370015D01*
X78885748Y-140333522D01*
X78789323Y-140185934D01*
X78789315Y-140185923D01*
X78636843Y-140020297D01*
X78636838Y-140020292D01*
X78459177Y-139882012D01*
X78459172Y-139882008D01*
X78261180Y-139774861D01*
X78261177Y-139774859D01*
X78261174Y-139774858D01*
X78261171Y-139774857D01*
X78261169Y-139774856D01*
X78048237Y-139701756D01*
X77826169Y-139664700D01*
X77601031Y-139664700D01*
X77378962Y-139701756D01*
X77166030Y-139774856D01*
X77166019Y-139774861D01*
X76968027Y-139882008D01*
X76968022Y-139882012D01*
X76790361Y-140020292D01*
X76790356Y-140020297D01*
X76637884Y-140185923D01*
X76637876Y-140185934D01*
X76541452Y-140333522D01*
X76488306Y-140378879D01*
X76437644Y-140389700D01*
X72489556Y-140389700D01*
X72422517Y-140370015D01*
X72385748Y-140333522D01*
X72289323Y-140185934D01*
X72289315Y-140185923D01*
X72136843Y-140020297D01*
X72136838Y-140020292D01*
X71959177Y-139882012D01*
X71959172Y-139882008D01*
X71761180Y-139774861D01*
X71761177Y-139774859D01*
X71761174Y-139774858D01*
X71761171Y-139774857D01*
X71761169Y-139774856D01*
X71548237Y-139701756D01*
X71326169Y-139664700D01*
X71101031Y-139664700D01*
X70878962Y-139701756D01*
X70666030Y-139774856D01*
X70666019Y-139774861D01*
X70468027Y-139882008D01*
X70468022Y-139882012D01*
X70290361Y-140020292D01*
X70290356Y-140020297D01*
X70137884Y-140185923D01*
X70137876Y-140185934D01*
X70014740Y-140374407D01*
X69924303Y-140580585D01*
X69869036Y-140798828D01*
X69869034Y-140798840D01*
X69850444Y-141023194D01*
X69850444Y-141023205D01*
X69869034Y-141247559D01*
X69869036Y-141247571D01*
X69924303Y-141465814D01*
X70014740Y-141671992D01*
X70137876Y-141860465D01*
X70137884Y-141860476D01*
X70290356Y-142026102D01*
X70290360Y-142026106D01*
X70468024Y-142164389D01*
X70468025Y-142164389D01*
X70468027Y-142164391D01*
X70594735Y-142232961D01*
X70666026Y-142271542D01*
X70878965Y-142344644D01*
X71101031Y-142381700D01*
X71326169Y-142381700D01*
X71548235Y-142344644D01*
X71761174Y-142271542D01*
X71959176Y-142164389D01*
X72136840Y-142026106D01*
X72289322Y-141860468D01*
X72342723Y-141778731D01*
X72385748Y-141712878D01*
X72438894Y-141667521D01*
X72489556Y-141656700D01*
X76437644Y-141656700D01*
X76504683Y-141676385D01*
X76541452Y-141712878D01*
X76637876Y-141860465D01*
X76637884Y-141860476D01*
X76790356Y-142026102D01*
X76790360Y-142026106D01*
X76968024Y-142164389D01*
X76968025Y-142164389D01*
X76968027Y-142164391D01*
X77094735Y-142232961D01*
X77166026Y-142271542D01*
X77378965Y-142344644D01*
X77601031Y-142381700D01*
X77826169Y-142381700D01*
X78048235Y-142344644D01*
X78261174Y-142271542D01*
X78459176Y-142164389D01*
X78636840Y-142026106D01*
X78789322Y-141860468D01*
X78842723Y-141778731D01*
X78885748Y-141712878D01*
X78938894Y-141667521D01*
X78989556Y-141656700D01*
X87675995Y-141656700D01*
X87675996Y-141656699D01*
X87798385Y-141632355D01*
X87913675Y-141584600D01*
X88017433Y-141515271D01*
X94205672Y-135327033D01*
X94275001Y-135223275D01*
X94311220Y-135135833D01*
X94322755Y-135107985D01*
X94347100Y-134985594D01*
X94347100Y-126960806D01*
X94347100Y-119236966D01*
X94366785Y-119169927D01*
X94383419Y-119149285D01*
X110505668Y-103027036D01*
X110505671Y-103027033D01*
X110575000Y-102923275D01*
X110622755Y-102807985D01*
X110647100Y-102685594D01*
X110647100Y-102560806D01*
X110647100Y-83921737D01*
X110666785Y-83854698D01*
X110698213Y-83821421D01*
X110724853Y-83802066D01*
X110852640Y-83660144D01*
X110852643Y-83660137D01*
X110855783Y-83655818D01*
X110911114Y-83613153D01*
X110980727Y-83607175D01*
X111042522Y-83639782D01*
X111076878Y-83700622D01*
X111080100Y-83728705D01*
X111080100Y-103309433D01*
X111060415Y-103376472D01*
X111043780Y-103397114D01*
X101459767Y-112981129D01*
X101415647Y-113025249D01*
X101371527Y-113069368D01*
X101302203Y-113173118D01*
X101302198Y-113173127D01*
X101254445Y-113288414D01*
X101254443Y-113288422D01*
X101230100Y-113410801D01*
X101230100Y-131359434D01*
X101210415Y-131426473D01*
X101193781Y-131447115D01*
X100862515Y-131778381D01*
X100801192Y-131811866D01*
X100774834Y-131814700D01*
X100718113Y-131814700D01*
X100531314Y-131854405D01*
X100356846Y-131932083D01*
X100202345Y-132044335D01*
X100074559Y-132186257D01*
X99979073Y-132351643D01*
X99979070Y-132351650D01*
X99948014Y-132447232D01*
X99920058Y-132533272D01*
X99900096Y-132723200D01*
X99920058Y-132913128D01*
X99920059Y-132913131D01*
X99979070Y-133094749D01*
X99979073Y-133094756D01*
X100074560Y-133260144D01*
X100202347Y-133402066D01*
X100356848Y-133514318D01*
X100531312Y-133591994D01*
X100718113Y-133631700D01*
X100909087Y-133631700D01*
X101095888Y-133591994D01*
X101270352Y-133514318D01*
X101424853Y-133402066D01*
X101552640Y-133260144D01*
X101648127Y-133094756D01*
X101707142Y-132913128D01*
X101724581Y-132747197D01*
X101751164Y-132682587D01*
X101760210Y-132672492D01*
X102355671Y-132077033D01*
X102425000Y-131973275D01*
X102472755Y-131857985D01*
X102497100Y-131735594D01*
X102497100Y-131610806D01*
X102497100Y-113786966D01*
X102516785Y-113719927D01*
X102533419Y-113699285D01*
X112168419Y-104064286D01*
X112229742Y-104030801D01*
X112299434Y-104035785D01*
X112355367Y-104077657D01*
X112379784Y-104143121D01*
X112380100Y-104151967D01*
X112380100Y-105809434D01*
X112360415Y-105876473D01*
X112343781Y-105897115D01*
X107809767Y-110431129D01*
X107765647Y-110475249D01*
X107721527Y-110519368D01*
X107652203Y-110623118D01*
X107652198Y-110623127D01*
X107604445Y-110738414D01*
X107604443Y-110738422D01*
X107580100Y-110860801D01*
X107580100Y-134885598D01*
X107604443Y-135007977D01*
X107604445Y-135007985D01*
X107652198Y-135123272D01*
X107652203Y-135123281D01*
X107721527Y-135227031D01*
X107721528Y-135227032D01*
X107721529Y-135227033D01*
X107777282Y-135282786D01*
X107810766Y-135344107D01*
X107813600Y-135370466D01*
X107813600Y-136090188D01*
X107756593Y-136057275D01*
X107629426Y-136023200D01*
X107497774Y-136023200D01*
X107370607Y-136057275D01*
X107313600Y-136090188D01*
X107313600Y-135173200D01*
X106665755Y-135173200D01*
X106606227Y-135179601D01*
X106606220Y-135179603D01*
X106471513Y-135229845D01*
X106471506Y-135229849D01*
X106356412Y-135316009D01*
X106356409Y-135316012D01*
X106270249Y-135431106D01*
X106270245Y-135431113D01*
X106220003Y-135565820D01*
X106220001Y-135565827D01*
X106213600Y-135625355D01*
X106213600Y-136273200D01*
X107130588Y-136273200D01*
X107097675Y-136330207D01*
X107063600Y-136457374D01*
X107063600Y-136589026D01*
X107097675Y-136716193D01*
X107130588Y-136773200D01*
X106213600Y-136773200D01*
X106213600Y-137421044D01*
X106220001Y-137480572D01*
X106220003Y-137480579D01*
X106270245Y-137615286D01*
X106270249Y-137615293D01*
X106356409Y-137730387D01*
X106356412Y-137730390D01*
X106471506Y-137816550D01*
X106471513Y-137816554D01*
X106606220Y-137866796D01*
X106606227Y-137866798D01*
X106665755Y-137873199D01*
X106665772Y-137873200D01*
X107313600Y-137873200D01*
X107313600Y-136956212D01*
X107370607Y-136989125D01*
X107497774Y-137023200D01*
X107629426Y-137023200D01*
X107756593Y-136989125D01*
X107813600Y-136956212D01*
X107813600Y-137873200D01*
X107981100Y-137873200D01*
X108048139Y-137892885D01*
X108093894Y-137945689D01*
X108105100Y-137997200D01*
X108105100Y-139534432D01*
X108085415Y-139601471D01*
X108068781Y-139622113D01*
X108020591Y-139670303D01*
X107959268Y-139703788D01*
X107902476Y-139702829D01*
X107898241Y-139701756D01*
X107676169Y-139664700D01*
X107451031Y-139664700D01*
X107228962Y-139701756D01*
X107016030Y-139774856D01*
X107016019Y-139774861D01*
X106818027Y-139882008D01*
X106818022Y-139882012D01*
X106640361Y-140020292D01*
X106640356Y-140020297D01*
X106487884Y-140185923D01*
X106487876Y-140185934D01*
X106364740Y-140374407D01*
X106274303Y-140580585D01*
X106219036Y-140798828D01*
X106219034Y-140798840D01*
X106200444Y-141023194D01*
X106200444Y-141023205D01*
X106219034Y-141247559D01*
X106219036Y-141247571D01*
X106274303Y-141465814D01*
X106364740Y-141671992D01*
X106487876Y-141860465D01*
X106487884Y-141860476D01*
X106640356Y-142026102D01*
X106640360Y-142026106D01*
X106818024Y-142164389D01*
X106818025Y-142164389D01*
X106818027Y-142164391D01*
X106944735Y-142232961D01*
X107016026Y-142271542D01*
X107228965Y-142344644D01*
X107451031Y-142381700D01*
X107676169Y-142381700D01*
X107898235Y-142344644D01*
X108111174Y-142271542D01*
X108309176Y-142164389D01*
X108486840Y-142026106D01*
X108639322Y-141860468D01*
X108692723Y-141778731D01*
X108735748Y-141712878D01*
X108788894Y-141667521D01*
X108839556Y-141656700D01*
X112787644Y-141656700D01*
X112854683Y-141676385D01*
X112891452Y-141712878D01*
X112987876Y-141860465D01*
X112987884Y-141860476D01*
X113140356Y-142026102D01*
X113140360Y-142026106D01*
X113318024Y-142164389D01*
X113318025Y-142164389D01*
X113318027Y-142164391D01*
X113444735Y-142232961D01*
X113516026Y-142271542D01*
X113728965Y-142344644D01*
X113951031Y-142381700D01*
X114176169Y-142381700D01*
X114398235Y-142344644D01*
X114611174Y-142271542D01*
X114809176Y-142164389D01*
X114986840Y-142026106D01*
X115139322Y-141860468D01*
X115262460Y-141671991D01*
X115352896Y-141465816D01*
X115408164Y-141247568D01*
X115426756Y-141023200D01*
X115408164Y-140798832D01*
X115352896Y-140580584D01*
X115262460Y-140374409D01*
X115259589Y-140370015D01*
X115139323Y-140185934D01*
X115139315Y-140185923D01*
X114986843Y-140020297D01*
X114986838Y-140020292D01*
X114809177Y-139882012D01*
X114809172Y-139882008D01*
X114611180Y-139774861D01*
X114611177Y-139774859D01*
X114611174Y-139774858D01*
X114611171Y-139774857D01*
X114611169Y-139774856D01*
X114398237Y-139701756D01*
X114176169Y-139664700D01*
X113951031Y-139664700D01*
X113728962Y-139701756D01*
X113516030Y-139774856D01*
X113516019Y-139774861D01*
X113318027Y-139882008D01*
X113318022Y-139882012D01*
X113140361Y-140020292D01*
X113140356Y-140020297D01*
X112987884Y-140185923D01*
X112987876Y-140185934D01*
X112891452Y-140333522D01*
X112838306Y-140378879D01*
X112787644Y-140389700D01*
X109370673Y-140389700D01*
X109303634Y-140370015D01*
X109257879Y-140317211D01*
X109247935Y-140248053D01*
X109267571Y-140196809D01*
X109299996Y-140148281D01*
X109299996Y-140148280D01*
X109300000Y-140148275D01*
X109347755Y-140032985D01*
X109372100Y-139910594D01*
X109372100Y-139785806D01*
X109372100Y-136523198D01*
X112708443Y-136523198D01*
X112708443Y-136523201D01*
X112729030Y-136758515D01*
X112729032Y-136758526D01*
X112790166Y-136986683D01*
X112790170Y-136986692D01*
X112889998Y-137200776D01*
X112948673Y-137284572D01*
X113580637Y-136652608D01*
X113597675Y-136716193D01*
X113663501Y-136830207D01*
X113756593Y-136923299D01*
X113870607Y-136989125D01*
X113934191Y-137006162D01*
X113302226Y-137638126D01*
X113386017Y-137696798D01*
X113386021Y-137696800D01*
X113600107Y-137796629D01*
X113600116Y-137796633D01*
X113828273Y-137857767D01*
X113828284Y-137857769D01*
X114063598Y-137878357D01*
X114063602Y-137878357D01*
X114298915Y-137857769D01*
X114298926Y-137857767D01*
X114527083Y-137796633D01*
X114527092Y-137796629D01*
X114741180Y-137696799D01*
X114824971Y-137638125D01*
X114193008Y-137006162D01*
X114256593Y-136989125D01*
X114370607Y-136923299D01*
X114463699Y-136830207D01*
X114529525Y-136716193D01*
X114546562Y-136652608D01*
X115178525Y-137284571D01*
X115237199Y-137200780D01*
X115337029Y-136986692D01*
X115337033Y-136986683D01*
X115398167Y-136758526D01*
X115398169Y-136758515D01*
X115418757Y-136523201D01*
X115418757Y-136523198D01*
X115398169Y-136287884D01*
X115398167Y-136287873D01*
X115337033Y-136059716D01*
X115337029Y-136059707D01*
X115237201Y-135845624D01*
X115178525Y-135761826D01*
X114546562Y-136393790D01*
X114529525Y-136330207D01*
X114463699Y-136216193D01*
X114370607Y-136123101D01*
X114256593Y-136057275D01*
X114193009Y-136040237D01*
X114824972Y-135408273D01*
X114741176Y-135349598D01*
X114527092Y-135249770D01*
X114527083Y-135249766D01*
X114298926Y-135188632D01*
X114298915Y-135188630D01*
X114063602Y-135168043D01*
X114063598Y-135168043D01*
X113828284Y-135188630D01*
X113828273Y-135188632D01*
X113600116Y-135249766D01*
X113600107Y-135249770D01*
X113386023Y-135349599D01*
X113386021Y-135349600D01*
X113302227Y-135408273D01*
X113302226Y-135408273D01*
X113934191Y-136040237D01*
X113870607Y-136057275D01*
X113756593Y-136123101D01*
X113663501Y-136216193D01*
X113597675Y-136330207D01*
X113580637Y-136393790D01*
X112948673Y-135761826D01*
X112948673Y-135761827D01*
X112890000Y-135845621D01*
X112889999Y-135845623D01*
X112790170Y-136059707D01*
X112790166Y-136059716D01*
X112729032Y-136287873D01*
X112729030Y-136287884D01*
X112708443Y-136523198D01*
X109372100Y-136523198D01*
X109372100Y-135285806D01*
X109347755Y-135163415D01*
X109331095Y-135123194D01*
X119408459Y-135123194D01*
X119408459Y-135123205D01*
X119428985Y-135370929D01*
X119428987Y-135370938D01*
X119490012Y-135611917D01*
X119589867Y-135839567D01*
X119690162Y-135993081D01*
X120430637Y-135252608D01*
X120447675Y-135316193D01*
X120513501Y-135430207D01*
X120606593Y-135523299D01*
X120720607Y-135589125D01*
X120784191Y-135606162D01*
X120043543Y-136346809D01*
X120090368Y-136383255D01*
X120090371Y-136383257D01*
X120308985Y-136501564D01*
X120308996Y-136501569D01*
X120544106Y-136582283D01*
X120789307Y-136623200D01*
X121037893Y-136623200D01*
X121283093Y-136582283D01*
X121518203Y-136501569D01*
X121518214Y-136501564D01*
X121736830Y-136383256D01*
X121736836Y-136383251D01*
X121783655Y-136346810D01*
X121783656Y-136346809D01*
X121043008Y-135606162D01*
X121106593Y-135589125D01*
X121220607Y-135523299D01*
X121313699Y-135430207D01*
X121379525Y-135316193D01*
X121396562Y-135252609D01*
X122137035Y-135993082D01*
X122237333Y-135839564D01*
X122337187Y-135611917D01*
X122398212Y-135370938D01*
X122398214Y-135370929D01*
X122418741Y-135123205D01*
X122418741Y-135123194D01*
X122398214Y-134875470D01*
X122398212Y-134875461D01*
X122337187Y-134634482D01*
X122237332Y-134406832D01*
X122137035Y-134253316D01*
X121396562Y-134993790D01*
X121379525Y-134930207D01*
X121313699Y-134816193D01*
X121220607Y-134723101D01*
X121106593Y-134657275D01*
X121043009Y-134640237D01*
X121783655Y-133899589D01*
X121783655Y-133899588D01*
X121736836Y-133863147D01*
X121736831Y-133863144D01*
X121518214Y-133744835D01*
X121518203Y-133744830D01*
X121283093Y-133664116D01*
X121037893Y-133623200D01*
X120789307Y-133623200D01*
X120544106Y-133664116D01*
X120308996Y-133744830D01*
X120308985Y-133744835D01*
X120090370Y-133863143D01*
X120043543Y-133899589D01*
X120784191Y-134640237D01*
X120720607Y-134657275D01*
X120606593Y-134723101D01*
X120513501Y-134816193D01*
X120447675Y-134930207D01*
X120430637Y-134993791D01*
X119690163Y-134253317D01*
X119589867Y-134406833D01*
X119589865Y-134406837D01*
X119490012Y-134634482D01*
X119428987Y-134875461D01*
X119428985Y-134875470D01*
X119408459Y-135123194D01*
X109331095Y-135123194D01*
X109300000Y-135048125D01*
X109299999Y-135048124D01*
X109299996Y-135048118D01*
X109230672Y-134944368D01*
X109197036Y-134910732D01*
X109142433Y-134856129D01*
X108883419Y-134597115D01*
X108849934Y-134535792D01*
X108847100Y-134509434D01*
X108847100Y-123763198D01*
X117600225Y-123763198D01*
X117600225Y-123763201D01*
X117619700Y-124035507D01*
X117677728Y-124302253D01*
X117677730Y-124302260D01*
X117736964Y-124461073D01*
X117773133Y-124558046D01*
X117773135Y-124558050D01*
X117903963Y-124797643D01*
X117903968Y-124797651D01*
X118067561Y-125016186D01*
X118067577Y-125016204D01*
X118260595Y-125209222D01*
X118260613Y-125209238D01*
X118479148Y-125372831D01*
X118479156Y-125372836D01*
X118718749Y-125503664D01*
X118718753Y-125503666D01*
X118718755Y-125503667D01*
X118974540Y-125599070D01*
X119107919Y-125628085D01*
X119241292Y-125657099D01*
X119241294Y-125657099D01*
X119241298Y-125657100D01*
X119483282Y-125674406D01*
X119513599Y-125676575D01*
X119513600Y-125676575D01*
X119513601Y-125676575D01*
X119540880Y-125674623D01*
X119785902Y-125657100D01*
X120052660Y-125599070D01*
X120308445Y-125503667D01*
X120548049Y-125372833D01*
X120766594Y-125209232D01*
X120959632Y-125016194D01*
X121123233Y-124797649D01*
X121254067Y-124558045D01*
X121349470Y-124302260D01*
X121407500Y-124035502D01*
X121426975Y-123763200D01*
X121407500Y-123490898D01*
X121349470Y-123224140D01*
X121254067Y-122968355D01*
X121123233Y-122728751D01*
X121123231Y-122728748D01*
X120959638Y-122510213D01*
X120959622Y-122510195D01*
X120766604Y-122317177D01*
X120766586Y-122317161D01*
X120548051Y-122153568D01*
X120548043Y-122153563D01*
X120308450Y-122022735D01*
X120308446Y-122022733D01*
X120211473Y-121986564D01*
X120052660Y-121927330D01*
X120052656Y-121927329D01*
X120052653Y-121927328D01*
X119785907Y-121869300D01*
X119513601Y-121849825D01*
X119513599Y-121849825D01*
X119241292Y-121869300D01*
X118974546Y-121927328D01*
X118974541Y-121927329D01*
X118974540Y-121927330D01*
X118912697Y-121950396D01*
X118718753Y-122022733D01*
X118718749Y-122022735D01*
X118479156Y-122153563D01*
X118479148Y-122153568D01*
X118260613Y-122317161D01*
X118260595Y-122317177D01*
X118067577Y-122510195D01*
X118067561Y-122510213D01*
X117903968Y-122728748D01*
X117903963Y-122728756D01*
X117773135Y-122968349D01*
X117773133Y-122968353D01*
X117677728Y-123224146D01*
X117619700Y-123490892D01*
X117600225Y-123763198D01*
X108847100Y-123763198D01*
X108847100Y-115323197D01*
X110688680Y-115323197D01*
X110688680Y-115323202D01*
X110708346Y-115685928D01*
X110767117Y-116044414D01*
X110767119Y-116044422D01*
X110864295Y-116394420D01*
X110864297Y-116394427D01*
X110998752Y-116731884D01*
X110998761Y-116731902D01*
X111168916Y-117052847D01*
X111168918Y-117052851D01*
X111372770Y-117353509D01*
X111372777Y-117353519D01*
X111504569Y-117508675D01*
X111504570Y-117508675D01*
X112749347Y-116263897D01*
X112823188Y-116365530D01*
X113001270Y-116543612D01*
X113102900Y-116617451D01*
X111855488Y-117864862D01*
X111855488Y-117864864D01*
X111871670Y-117880192D01*
X111871671Y-117880193D01*
X112160866Y-118100032D01*
X112160882Y-118100043D01*
X112472122Y-118287309D01*
X112472135Y-118287316D01*
X112801805Y-118439839D01*
X112801810Y-118439840D01*
X113146061Y-118555832D01*
X113500835Y-118633924D01*
X113861966Y-118673199D01*
X113861974Y-118673200D01*
X114225226Y-118673200D01*
X114225233Y-118673199D01*
X114586364Y-118633924D01*
X114941138Y-118555832D01*
X115285389Y-118439840D01*
X115285394Y-118439839D01*
X115615064Y-118287316D01*
X115615077Y-118287309D01*
X115926317Y-118100043D01*
X115926333Y-118100032D01*
X116215529Y-117880192D01*
X116231710Y-117864864D01*
X116231710Y-117864863D01*
X114984298Y-116617451D01*
X115085930Y-116543612D01*
X115264012Y-116365530D01*
X115337851Y-116263898D01*
X116582628Y-117508675D01*
X116582629Y-117508675D01*
X116714427Y-117353511D01*
X116714438Y-117353497D01*
X116918281Y-117052851D01*
X116918283Y-117052847D01*
X117088438Y-116731902D01*
X117088447Y-116731884D01*
X117222902Y-116394427D01*
X117222904Y-116394420D01*
X117320080Y-116044422D01*
X117320082Y-116044414D01*
X117378853Y-115685928D01*
X117398520Y-115323202D01*
X117398520Y-115323197D01*
X117378853Y-114960471D01*
X117320082Y-114601985D01*
X117320080Y-114601977D01*
X117222904Y-114251979D01*
X117222902Y-114251972D01*
X117088447Y-113914515D01*
X117088438Y-113914497D01*
X116918283Y-113593552D01*
X116918281Y-113593548D01*
X116714429Y-113292890D01*
X116714422Y-113292880D01*
X116582629Y-113137723D01*
X116582628Y-113137723D01*
X115337851Y-114382500D01*
X115264012Y-114280870D01*
X115085930Y-114102788D01*
X114984297Y-114028947D01*
X116231710Y-112781536D01*
X116231710Y-112781534D01*
X116215529Y-112766207D01*
X116215528Y-112766206D01*
X115926333Y-112546367D01*
X115926317Y-112546356D01*
X115615077Y-112359090D01*
X115615064Y-112359083D01*
X115285394Y-112206560D01*
X115285389Y-112206559D01*
X114941138Y-112090567D01*
X114586364Y-112012475D01*
X114225233Y-111973200D01*
X113861966Y-111973200D01*
X113500835Y-112012475D01*
X113146061Y-112090567D01*
X112801810Y-112206559D01*
X112801805Y-112206560D01*
X112472135Y-112359083D01*
X112472122Y-112359090D01*
X112160882Y-112546356D01*
X112160866Y-112546367D01*
X111871675Y-112766202D01*
X111855488Y-112781535D01*
X111855487Y-112781535D01*
X113102901Y-114028948D01*
X113001270Y-114102788D01*
X112823188Y-114280870D01*
X112749348Y-114382501D01*
X111504570Y-113137722D01*
X111504569Y-113137723D01*
X111372777Y-113292880D01*
X111372770Y-113292890D01*
X111168918Y-113593548D01*
X111168916Y-113593552D01*
X110998761Y-113914497D01*
X110998752Y-113914515D01*
X110864297Y-114251972D01*
X110864295Y-114251979D01*
X110767119Y-114601977D01*
X110767117Y-114601985D01*
X110708346Y-114960471D01*
X110688680Y-115323197D01*
X108847100Y-115323197D01*
X108847100Y-111236966D01*
X108866785Y-111169927D01*
X108883419Y-111149285D01*
X113505668Y-106527036D01*
X113505671Y-106527033D01*
X113575000Y-106423275D01*
X113622755Y-106307985D01*
X113647100Y-106185594D01*
X113647100Y-106060806D01*
X113647100Y-78763198D01*
X117600225Y-78763198D01*
X117600225Y-78763201D01*
X117619700Y-79035507D01*
X117677728Y-79302253D01*
X117677730Y-79302260D01*
X117736964Y-79461073D01*
X117773133Y-79558046D01*
X117773135Y-79558050D01*
X117903963Y-79797643D01*
X117903968Y-79797651D01*
X118067561Y-80016186D01*
X118067577Y-80016204D01*
X118260595Y-80209222D01*
X118260613Y-80209238D01*
X118479148Y-80372831D01*
X118479156Y-80372836D01*
X118718749Y-80503664D01*
X118718753Y-80503666D01*
X118718755Y-80503667D01*
X118974540Y-80599070D01*
X119107919Y-80628085D01*
X119241292Y-80657099D01*
X119241294Y-80657099D01*
X119241298Y-80657100D01*
X119483282Y-80674406D01*
X119513599Y-80676575D01*
X119513600Y-80676575D01*
X119513601Y-80676575D01*
X119540880Y-80674623D01*
X119785902Y-80657100D01*
X120052660Y-80599070D01*
X120308445Y-80503667D01*
X120548049Y-80372833D01*
X120766594Y-80209232D01*
X120959632Y-80016194D01*
X121123233Y-79797649D01*
X121254067Y-79558045D01*
X121349470Y-79302260D01*
X121407500Y-79035502D01*
X121426975Y-78763200D01*
X121407500Y-78490898D01*
X121402257Y-78466798D01*
X121349471Y-78224146D01*
X121349470Y-78224140D01*
X121254067Y-77968355D01*
X121252827Y-77966085D01*
X121123236Y-77728756D01*
X121123231Y-77728748D01*
X120959638Y-77510213D01*
X120959622Y-77510195D01*
X120766604Y-77317177D01*
X120766586Y-77317161D01*
X120548051Y-77153568D01*
X120548043Y-77153563D01*
X120308450Y-77022735D01*
X120308446Y-77022733D01*
X120175642Y-76973200D01*
X120052660Y-76927330D01*
X120052656Y-76927329D01*
X120052653Y-76927328D01*
X119785907Y-76869300D01*
X119513601Y-76849825D01*
X119513599Y-76849825D01*
X119241292Y-76869300D01*
X118974546Y-76927328D01*
X118974541Y-76927329D01*
X118974540Y-76927330D01*
X118915001Y-76949537D01*
X118718753Y-77022733D01*
X118718749Y-77022735D01*
X118479156Y-77153563D01*
X118479148Y-77153568D01*
X118260613Y-77317161D01*
X118260595Y-77317177D01*
X118067577Y-77510195D01*
X118067561Y-77510213D01*
X117903968Y-77728748D01*
X117903963Y-77728756D01*
X117773135Y-77968349D01*
X117773133Y-77968353D01*
X117709704Y-78138415D01*
X117681033Y-78215286D01*
X117677728Y-78224146D01*
X117619700Y-78490892D01*
X117600225Y-78763198D01*
X113647100Y-78763198D01*
X113647100Y-76460806D01*
X113622755Y-76338415D01*
X113575000Y-76223125D01*
X113574999Y-76223124D01*
X113574996Y-76223118D01*
X113505672Y-76119368D01*
X113470836Y-76084532D01*
X113417433Y-76031129D01*
X110968891Y-73582587D01*
X108517436Y-71131131D01*
X108517432Y-71131128D01*
X108413681Y-71061803D01*
X108413672Y-71061798D01*
X108298385Y-71014045D01*
X108298377Y-71014043D01*
X108175998Y-70989700D01*
X108175994Y-70989700D01*
X108087366Y-70989700D01*
X108020327Y-70970015D01*
X107999685Y-70953381D01*
X106539685Y-69493381D01*
X106506200Y-69432058D01*
X106511184Y-69362366D01*
X106553056Y-69306433D01*
X106618520Y-69282016D01*
X106627366Y-69281700D01*
X106726169Y-69281700D01*
X106948235Y-69244644D01*
X107161174Y-69171542D01*
X107359176Y-69064389D01*
X107536840Y-68926106D01*
X107658194Y-68794282D01*
X107689315Y-68760476D01*
X107689315Y-68760475D01*
X107689322Y-68760468D01*
X107783349Y-68616547D01*
X107836494Y-68571194D01*
X107905725Y-68561770D01*
X107969061Y-68591272D01*
X107988730Y-68613248D01*
X108115490Y-68794278D01*
X108282517Y-68961305D01*
X108476021Y-69096800D01*
X108690107Y-69196629D01*
X108690116Y-69196633D01*
X108903600Y-69253834D01*
X108903600Y-68356212D01*
X108960607Y-68389125D01*
X109087774Y-68423200D01*
X109219426Y-68423200D01*
X109346593Y-68389125D01*
X109403600Y-68356212D01*
X109403600Y-69253833D01*
X109539007Y-69217553D01*
X109608857Y-69219216D01*
X109666719Y-69258379D01*
X109694223Y-69322607D01*
X109695100Y-69337328D01*
X109695100Y-69921441D01*
X109675415Y-69988480D01*
X109663250Y-70004413D01*
X109589563Y-70086250D01*
X109589558Y-70086257D01*
X109494073Y-70251643D01*
X109494070Y-70251650D01*
X109452105Y-70380806D01*
X109435058Y-70433272D01*
X109415096Y-70623200D01*
X109435058Y-70813128D01*
X109435059Y-70813131D01*
X109494070Y-70994749D01*
X109494073Y-70994756D01*
X109589560Y-71160144D01*
X109676499Y-71256700D01*
X109701620Y-71284600D01*
X109717347Y-71302066D01*
X109871848Y-71414318D01*
X110046312Y-71491994D01*
X110233113Y-71531700D01*
X110424087Y-71531700D01*
X110610888Y-71491994D01*
X110785352Y-71414318D01*
X110939853Y-71302066D01*
X111067640Y-71160144D01*
X111163127Y-70994756D01*
X111222142Y-70813128D01*
X111242104Y-70623200D01*
X111222142Y-70433272D01*
X111163127Y-70251644D01*
X111083683Y-70114043D01*
X111067641Y-70086257D01*
X111067636Y-70086250D01*
X110993950Y-70004413D01*
X110963720Y-69941421D01*
X110962100Y-69921441D01*
X110962100Y-68451662D01*
X110981785Y-68384623D01*
X111034589Y-68338868D01*
X111103747Y-68328924D01*
X111167303Y-68357949D01*
X111188733Y-68382075D01*
X111372770Y-68653509D01*
X111372777Y-68653519D01*
X111504569Y-68808675D01*
X111504570Y-68808675D01*
X112749347Y-67563897D01*
X112823188Y-67665530D01*
X113001270Y-67843612D01*
X113102900Y-67917451D01*
X111855488Y-69164862D01*
X111855488Y-69164864D01*
X111871670Y-69180192D01*
X111871671Y-69180193D01*
X112160866Y-69400032D01*
X112160882Y-69400043D01*
X112472122Y-69587309D01*
X112472135Y-69587316D01*
X112801805Y-69739839D01*
X112801810Y-69739840D01*
X113146061Y-69855832D01*
X113500835Y-69933924D01*
X113861966Y-69973199D01*
X113861974Y-69973200D01*
X114225226Y-69973200D01*
X114225233Y-69973199D01*
X114586364Y-69933924D01*
X114941138Y-69855832D01*
X115285389Y-69739840D01*
X115285394Y-69739839D01*
X115615064Y-69587316D01*
X115615077Y-69587309D01*
X115926317Y-69400043D01*
X115926333Y-69400032D01*
X116215529Y-69180192D01*
X116231710Y-69164864D01*
X116231710Y-69164863D01*
X114984298Y-67917451D01*
X115085930Y-67843612D01*
X115264012Y-67665530D01*
X115337851Y-67563898D01*
X116582628Y-68808675D01*
X116582629Y-68808675D01*
X116714427Y-68653511D01*
X116714438Y-68653497D01*
X116918281Y-68352851D01*
X116918283Y-68352847D01*
X117088438Y-68031902D01*
X117088447Y-68031884D01*
X117222902Y-67694427D01*
X117222904Y-67694420D01*
X117320080Y-67344422D01*
X117320082Y-67344414D01*
X117378853Y-66985928D01*
X117398520Y-66623202D01*
X117398520Y-66623197D01*
X117378853Y-66260471D01*
X117320082Y-65901985D01*
X117320080Y-65901977D01*
X117222904Y-65551979D01*
X117222902Y-65551972D01*
X117088447Y-65214515D01*
X117088438Y-65214497D01*
X116918283Y-64893552D01*
X116918281Y-64893548D01*
X116714429Y-64592890D01*
X116714422Y-64592880D01*
X116582629Y-64437723D01*
X116582628Y-64437723D01*
X115337851Y-65682500D01*
X115264012Y-65580870D01*
X115085930Y-65402788D01*
X114984297Y-65328947D01*
X116231710Y-64081536D01*
X116231710Y-64081534D01*
X116215529Y-64066207D01*
X116215528Y-64066206D01*
X115926333Y-63846367D01*
X115926317Y-63846356D01*
X115615077Y-63659090D01*
X115615064Y-63659083D01*
X115285394Y-63506560D01*
X115285389Y-63506559D01*
X114941138Y-63390567D01*
X114586364Y-63312475D01*
X114225233Y-63273200D01*
X113861966Y-63273200D01*
X113500835Y-63312475D01*
X113146061Y-63390567D01*
X112801810Y-63506559D01*
X112801805Y-63506560D01*
X112472135Y-63659083D01*
X112472122Y-63659090D01*
X112160882Y-63846356D01*
X112160866Y-63846367D01*
X111871675Y-64066202D01*
X111855488Y-64081535D01*
X111855487Y-64081535D01*
X113102901Y-65328948D01*
X113001270Y-65402788D01*
X112823188Y-65580870D01*
X112749348Y-65682501D01*
X111504570Y-64437722D01*
X111504569Y-64437723D01*
X111372777Y-64592880D01*
X111372770Y-64592890D01*
X111168918Y-64893548D01*
X111168916Y-64893552D01*
X110998761Y-65214497D01*
X110998752Y-65214515D01*
X110864297Y-65551972D01*
X110864295Y-65551979D01*
X110780773Y-65852800D01*
X110743871Y-65912130D01*
X110680751Y-65942091D01*
X110611453Y-65933170D01*
X110573612Y-65907308D01*
X110502663Y-65836359D01*
X110469178Y-65775036D01*
X110470139Y-65718237D01*
X110498161Y-65607580D01*
X110498163Y-65607571D01*
X110498164Y-65607568D01*
X110500377Y-65580870D01*
X110516756Y-65383200D01*
X110516756Y-65383194D01*
X110498165Y-65158840D01*
X110498163Y-65158828D01*
X110442896Y-64940585D01*
X110432671Y-64917275D01*
X110352460Y-64734409D01*
X110336306Y-64709684D01*
X110260001Y-64592890D01*
X110229322Y-64545932D01*
X110229319Y-64545929D01*
X110229315Y-64545923D01*
X110076843Y-64380297D01*
X110076838Y-64380292D01*
X109899177Y-64242012D01*
X109899172Y-64242008D01*
X109701180Y-64134861D01*
X109701177Y-64134859D01*
X109701174Y-64134858D01*
X109701171Y-64134857D01*
X109701169Y-64134856D01*
X109488237Y-64061756D01*
X109266169Y-64024700D01*
X109041031Y-64024700D01*
X108818962Y-64061756D01*
X108606030Y-64134856D01*
X108606019Y-64134861D01*
X108408027Y-64242008D01*
X108408022Y-64242012D01*
X108230361Y-64380292D01*
X108230356Y-64380297D01*
X108077884Y-64545923D01*
X108077876Y-64545934D01*
X107987408Y-64684406D01*
X107934262Y-64729762D01*
X107865031Y-64739186D01*
X107801695Y-64709684D01*
X107779792Y-64684406D01*
X107689323Y-64545934D01*
X107689315Y-64545923D01*
X107536843Y-64380297D01*
X107536838Y-64380292D01*
X107359177Y-64242012D01*
X107359172Y-64242008D01*
X107161180Y-64134861D01*
X107161177Y-64134859D01*
X107161174Y-64134858D01*
X107161171Y-64134857D01*
X107161169Y-64134856D01*
X106948237Y-64061756D01*
X106726169Y-64024700D01*
X106501031Y-64024700D01*
X106278962Y-64061756D01*
X106066030Y-64134856D01*
X106066019Y-64134861D01*
X105868027Y-64242008D01*
X105868022Y-64242012D01*
X105690361Y-64380292D01*
X105690356Y-64380297D01*
X105537884Y-64545923D01*
X105537876Y-64545934D01*
X105447408Y-64684406D01*
X105394262Y-64729762D01*
X105325031Y-64739186D01*
X105261695Y-64709684D01*
X105239792Y-64684406D01*
X105149323Y-64545934D01*
X105149315Y-64545923D01*
X104996843Y-64380297D01*
X104996838Y-64380292D01*
X104819177Y-64242012D01*
X104819172Y-64242008D01*
X104621180Y-64134861D01*
X104621177Y-64134859D01*
X104621174Y-64134858D01*
X104621171Y-64134857D01*
X104621169Y-64134856D01*
X104408237Y-64061756D01*
X104186169Y-64024700D01*
X103961031Y-64024700D01*
X103738962Y-64061756D01*
X103526030Y-64134856D01*
X103526019Y-64134861D01*
X103328027Y-64242008D01*
X103328022Y-64242012D01*
X103150361Y-64380292D01*
X103150356Y-64380297D01*
X102997884Y-64545923D01*
X102997876Y-64545934D01*
X102903851Y-64689850D01*
X102850705Y-64735207D01*
X102781473Y-64744630D01*
X102718138Y-64715128D01*
X102698468Y-64693151D01*
X102571713Y-64512126D01*
X102571708Y-64512120D01*
X102404682Y-64345094D01*
X102211178Y-64209599D01*
X101997092Y-64109770D01*
X101997086Y-64109767D01*
X101783600Y-64052564D01*
X101783600Y-64950188D01*
X101726593Y-64917275D01*
X101599426Y-64883200D01*
X101467774Y-64883200D01*
X101340607Y-64917275D01*
X101283600Y-64950188D01*
X101283600Y-64052564D01*
X101283599Y-64052564D01*
X101070113Y-64109767D01*
X101070107Y-64109770D01*
X100856022Y-64209599D01*
X100856020Y-64209600D01*
X100662526Y-64345086D01*
X100662520Y-64345091D01*
X100495491Y-64512120D01*
X100495490Y-64512122D01*
X100368731Y-64693152D01*
X100314154Y-64736777D01*
X100244655Y-64743969D01*
X100182301Y-64712447D01*
X100163352Y-64689856D01*
X100069322Y-64545932D01*
X100069315Y-64545925D01*
X100069315Y-64545923D01*
X99916843Y-64380297D01*
X99916838Y-64380292D01*
X99739177Y-64242012D01*
X99739172Y-64242008D01*
X99541180Y-64134861D01*
X99541177Y-64134859D01*
X99541174Y-64134858D01*
X99541171Y-64134857D01*
X99541169Y-64134856D01*
X99328237Y-64061756D01*
X99106169Y-64024700D01*
X98881031Y-64024700D01*
X98658962Y-64061756D01*
X98446030Y-64134856D01*
X98446019Y-64134861D01*
X98248027Y-64242008D01*
X98248022Y-64242012D01*
X98070361Y-64380292D01*
X98070356Y-64380297D01*
X97917884Y-64545923D01*
X97917876Y-64545934D01*
X97823851Y-64689850D01*
X97770705Y-64735207D01*
X97701473Y-64744630D01*
X97638138Y-64715128D01*
X97618468Y-64693151D01*
X97491713Y-64512126D01*
X97491708Y-64512120D01*
X97324682Y-64345094D01*
X97131178Y-64209599D01*
X96917092Y-64109770D01*
X96917086Y-64109767D01*
X96703600Y-64052564D01*
X96703600Y-64950188D01*
X96646593Y-64917275D01*
X96519426Y-64883200D01*
X96387774Y-64883200D01*
X96260607Y-64917275D01*
X96203600Y-64950188D01*
X96203600Y-64052564D01*
X96203599Y-64052564D01*
X95990113Y-64109767D01*
X95990107Y-64109770D01*
X95776022Y-64209599D01*
X95776020Y-64209600D01*
X95582526Y-64345086D01*
X95582520Y-64345091D01*
X95415491Y-64512120D01*
X95415490Y-64512122D01*
X95288731Y-64693152D01*
X95234154Y-64736777D01*
X95164655Y-64743969D01*
X95102301Y-64712447D01*
X95083352Y-64689856D01*
X94989322Y-64545932D01*
X94989315Y-64545925D01*
X94989315Y-64545923D01*
X94836843Y-64380297D01*
X94836838Y-64380292D01*
X94659177Y-64242012D01*
X94659172Y-64242008D01*
X94461180Y-64134861D01*
X94461177Y-64134859D01*
X94461174Y-64134858D01*
X94461171Y-64134857D01*
X94461169Y-64134856D01*
X94248237Y-64061756D01*
X94026169Y-64024700D01*
X93801031Y-64024700D01*
X93578962Y-64061756D01*
X93366030Y-64134856D01*
X93366019Y-64134861D01*
X93168027Y-64242008D01*
X93168022Y-64242012D01*
X92990361Y-64380292D01*
X92990356Y-64380297D01*
X92837884Y-64545923D01*
X92837876Y-64545934D01*
X92747408Y-64684406D01*
X92694262Y-64729762D01*
X92625031Y-64739186D01*
X92561695Y-64709684D01*
X92539792Y-64684406D01*
X92449323Y-64545934D01*
X92449315Y-64545923D01*
X92296843Y-64380297D01*
X92296838Y-64380292D01*
X92119177Y-64242012D01*
X92119172Y-64242008D01*
X91921180Y-64134861D01*
X91921177Y-64134859D01*
X91921174Y-64134858D01*
X91921171Y-64134857D01*
X91921169Y-64134856D01*
X91708237Y-64061756D01*
X91486169Y-64024700D01*
X91261031Y-64024700D01*
X91038962Y-64061756D01*
X90826030Y-64134856D01*
X90826019Y-64134861D01*
X90628027Y-64242008D01*
X90628022Y-64242012D01*
X90450361Y-64380292D01*
X90450356Y-64380297D01*
X90297884Y-64545923D01*
X90297876Y-64545934D01*
X90207408Y-64684406D01*
X90154262Y-64729762D01*
X90085031Y-64739186D01*
X90021695Y-64709684D01*
X89999792Y-64684406D01*
X89909323Y-64545934D01*
X89909315Y-64545923D01*
X89756843Y-64380297D01*
X89756838Y-64380292D01*
X89579177Y-64242012D01*
X89579172Y-64242008D01*
X89381180Y-64134861D01*
X89381177Y-64134859D01*
X89381174Y-64134858D01*
X89381171Y-64134857D01*
X89381169Y-64134856D01*
X89168237Y-64061756D01*
X88946169Y-64024700D01*
X88721031Y-64024700D01*
X88498962Y-64061756D01*
X88286030Y-64134856D01*
X88286019Y-64134861D01*
X88088027Y-64242008D01*
X88088022Y-64242012D01*
X87910361Y-64380292D01*
X87910356Y-64380297D01*
X87757884Y-64545923D01*
X87757876Y-64545934D01*
X87667408Y-64684406D01*
X87614262Y-64729762D01*
X87545031Y-64739186D01*
X87481695Y-64709684D01*
X87459792Y-64684406D01*
X87369323Y-64545934D01*
X87369315Y-64545923D01*
X87216843Y-64380297D01*
X87216838Y-64380292D01*
X87039177Y-64242012D01*
X87039172Y-64242008D01*
X86841180Y-64134861D01*
X86841177Y-64134859D01*
X86841174Y-64134858D01*
X86841171Y-64134857D01*
X86841169Y-64134856D01*
X86628237Y-64061756D01*
X86406169Y-64024700D01*
X86181031Y-64024700D01*
X85958962Y-64061756D01*
X85746030Y-64134856D01*
X85746019Y-64134861D01*
X85548027Y-64242008D01*
X85548022Y-64242012D01*
X85370361Y-64380292D01*
X85370356Y-64380297D01*
X85217884Y-64545923D01*
X85217876Y-64545934D01*
X85123851Y-64689850D01*
X85070705Y-64735207D01*
X85001473Y-64744630D01*
X84938138Y-64715128D01*
X84918468Y-64693151D01*
X84791713Y-64512126D01*
X84791708Y-64512120D01*
X84624682Y-64345094D01*
X84431178Y-64209599D01*
X84217092Y-64109770D01*
X84217086Y-64109767D01*
X84003600Y-64052564D01*
X84003600Y-64950188D01*
X83946593Y-64917275D01*
X83819426Y-64883200D01*
X83687774Y-64883200D01*
X83560607Y-64917275D01*
X83503600Y-64950188D01*
X83503600Y-64052564D01*
X83503599Y-64052564D01*
X83290113Y-64109767D01*
X83290107Y-64109770D01*
X83076022Y-64209599D01*
X83076020Y-64209600D01*
X82882526Y-64345086D01*
X82882520Y-64345091D01*
X82715491Y-64512120D01*
X82715490Y-64512122D01*
X82588731Y-64693152D01*
X82534154Y-64736777D01*
X82464655Y-64743969D01*
X82402301Y-64712447D01*
X82383352Y-64689856D01*
X82289322Y-64545932D01*
X82289315Y-64545925D01*
X82289315Y-64545923D01*
X82136843Y-64380297D01*
X82136838Y-64380292D01*
X81959177Y-64242012D01*
X81959172Y-64242008D01*
X81761180Y-64134861D01*
X81761177Y-64134859D01*
X81761174Y-64134858D01*
X81761171Y-64134857D01*
X81761169Y-64134856D01*
X81548237Y-64061756D01*
X81326169Y-64024700D01*
X81101031Y-64024700D01*
X80878962Y-64061756D01*
X80666030Y-64134856D01*
X80666019Y-64134861D01*
X80468027Y-64242008D01*
X80468022Y-64242012D01*
X80290361Y-64380292D01*
X80290356Y-64380297D01*
X80137884Y-64545923D01*
X80137876Y-64545934D01*
X80047408Y-64684406D01*
X79994262Y-64729762D01*
X79925031Y-64739186D01*
X79861695Y-64709684D01*
X79839792Y-64684406D01*
X79749323Y-64545934D01*
X79749315Y-64545923D01*
X79596843Y-64380297D01*
X79596838Y-64380292D01*
X79419177Y-64242012D01*
X79419172Y-64242008D01*
X79221180Y-64134861D01*
X79221177Y-64134859D01*
X79221174Y-64134858D01*
X79221171Y-64134857D01*
X79221169Y-64134856D01*
X79008237Y-64061756D01*
X78786169Y-64024700D01*
X78561031Y-64024700D01*
X78338962Y-64061756D01*
X78126030Y-64134856D01*
X78126019Y-64134861D01*
X77928027Y-64242008D01*
X77928022Y-64242012D01*
X77750361Y-64380292D01*
X77750356Y-64380297D01*
X77597884Y-64545923D01*
X77597876Y-64545934D01*
X77503851Y-64689850D01*
X77450705Y-64735207D01*
X77381473Y-64744630D01*
X77318138Y-64715128D01*
X77298468Y-64693151D01*
X77171713Y-64512126D01*
X77171708Y-64512120D01*
X77004682Y-64345094D01*
X76811178Y-64209599D01*
X76597092Y-64109770D01*
X76597086Y-64109767D01*
X76383600Y-64052564D01*
X76383600Y-64950188D01*
X76326593Y-64917275D01*
X76199426Y-64883200D01*
X76067774Y-64883200D01*
X75940607Y-64917275D01*
X75883600Y-64950188D01*
X75883600Y-64052564D01*
X75883599Y-64052564D01*
X75670113Y-64109767D01*
X75670107Y-64109770D01*
X75456022Y-64209599D01*
X75456020Y-64209600D01*
X75262526Y-64345086D01*
X75262520Y-64345091D01*
X75095491Y-64512120D01*
X75095490Y-64512122D01*
X74968731Y-64693152D01*
X74914154Y-64736777D01*
X74844655Y-64743969D01*
X74782301Y-64712447D01*
X74763352Y-64689856D01*
X74669322Y-64545932D01*
X74669315Y-64545925D01*
X74669315Y-64545923D01*
X74516843Y-64380297D01*
X74516838Y-64380292D01*
X74339177Y-64242012D01*
X74339172Y-64242008D01*
X74141180Y-64134861D01*
X74141177Y-64134859D01*
X74141174Y-64134858D01*
X74141171Y-64134857D01*
X74141169Y-64134856D01*
X73928237Y-64061756D01*
X73706169Y-64024700D01*
X73481031Y-64024700D01*
X73258962Y-64061756D01*
X73046030Y-64134856D01*
X73046019Y-64134861D01*
X72848027Y-64242008D01*
X72848022Y-64242012D01*
X72670361Y-64380292D01*
X72670356Y-64380297D01*
X72517884Y-64545923D01*
X72517876Y-64545934D01*
X72427408Y-64684406D01*
X72374262Y-64729762D01*
X72305031Y-64739186D01*
X72241695Y-64709684D01*
X72219792Y-64684406D01*
X72129323Y-64545934D01*
X72129315Y-64545923D01*
X71976843Y-64380297D01*
X71976838Y-64380292D01*
X71799177Y-64242012D01*
X71799172Y-64242008D01*
X71601180Y-64134861D01*
X71601177Y-64134859D01*
X71601174Y-64134858D01*
X71601171Y-64134857D01*
X71601169Y-64134856D01*
X71388237Y-64061756D01*
X71166169Y-64024700D01*
X70941031Y-64024700D01*
X70718962Y-64061756D01*
X70506030Y-64134856D01*
X70506019Y-64134861D01*
X70308027Y-64242008D01*
X70308022Y-64242012D01*
X70130361Y-64380292D01*
X70130356Y-64380297D01*
X69977884Y-64545923D01*
X69977876Y-64545934D01*
X69887408Y-64684406D01*
X69834262Y-64729762D01*
X69765031Y-64739186D01*
X69701695Y-64709684D01*
X69679792Y-64684406D01*
X69589323Y-64545934D01*
X69589315Y-64545923D01*
X69436843Y-64380297D01*
X69436838Y-64380292D01*
X69259177Y-64242012D01*
X69259172Y-64242008D01*
X69061180Y-64134861D01*
X69061177Y-64134859D01*
X69061174Y-64134858D01*
X69061171Y-64134857D01*
X69061169Y-64134856D01*
X68848237Y-64061756D01*
X68626169Y-64024700D01*
X68401031Y-64024700D01*
X68178962Y-64061756D01*
X67966030Y-64134856D01*
X67966019Y-64134861D01*
X67768027Y-64242008D01*
X67768022Y-64242012D01*
X67590361Y-64380292D01*
X67590356Y-64380297D01*
X67437884Y-64545923D01*
X67437876Y-64545934D01*
X67343851Y-64689850D01*
X67290705Y-64735207D01*
X67221473Y-64744630D01*
X67158138Y-64715128D01*
X67138468Y-64693151D01*
X67011713Y-64512126D01*
X67011708Y-64512120D01*
X66844682Y-64345094D01*
X66651178Y-64209599D01*
X66437092Y-64109770D01*
X66437086Y-64109767D01*
X66223600Y-64052564D01*
X66223600Y-64950188D01*
X66166593Y-64917275D01*
X66039426Y-64883200D01*
X65907774Y-64883200D01*
X65780607Y-64917275D01*
X65723600Y-64950188D01*
X65723600Y-64052564D01*
X65723599Y-64052564D01*
X65510113Y-64109767D01*
X65510107Y-64109770D01*
X65296022Y-64209599D01*
X65296020Y-64209600D01*
X65102526Y-64345086D01*
X65102520Y-64345091D01*
X64935491Y-64512120D01*
X64935490Y-64512122D01*
X64808731Y-64693152D01*
X64754154Y-64736777D01*
X64684655Y-64743969D01*
X64622301Y-64712447D01*
X64603352Y-64689856D01*
X64509322Y-64545932D01*
X64509315Y-64545925D01*
X64509315Y-64545923D01*
X64356843Y-64380297D01*
X64356838Y-64380292D01*
X64179177Y-64242012D01*
X64179172Y-64242008D01*
X63981180Y-64134861D01*
X63981177Y-64134859D01*
X63981174Y-64134858D01*
X63981171Y-64134857D01*
X63981169Y-64134856D01*
X63768237Y-64061756D01*
X63546169Y-64024700D01*
X63321031Y-64024700D01*
X63098962Y-64061756D01*
X62886030Y-64134856D01*
X62886019Y-64134861D01*
X62688027Y-64242008D01*
X62688022Y-64242012D01*
X62510361Y-64380292D01*
X62510356Y-64380297D01*
X62357884Y-64545923D01*
X62357876Y-64545934D01*
X62267408Y-64684406D01*
X62214262Y-64729762D01*
X62145031Y-64739186D01*
X62081695Y-64709684D01*
X62059792Y-64684406D01*
X61969323Y-64545934D01*
X61969315Y-64545923D01*
X61816843Y-64380297D01*
X61816838Y-64380292D01*
X61639177Y-64242012D01*
X61639172Y-64242008D01*
X61441180Y-64134861D01*
X61441177Y-64134859D01*
X61441174Y-64134858D01*
X61441171Y-64134857D01*
X61441169Y-64134856D01*
X61228237Y-64061756D01*
X61006169Y-64024700D01*
X60781031Y-64024700D01*
X60558962Y-64061756D01*
X60346030Y-64134856D01*
X60346019Y-64134861D01*
X60148027Y-64242008D01*
X60148022Y-64242012D01*
X59970361Y-64380292D01*
X59970356Y-64380297D01*
X59817884Y-64545923D01*
X59817876Y-64545934D01*
X59694740Y-64734407D01*
X59604303Y-64940585D01*
X59549036Y-65158828D01*
X59549034Y-65158840D01*
X59530444Y-65383194D01*
X59530444Y-65383200D01*
X59549034Y-65607559D01*
X59549036Y-65607571D01*
X59604303Y-65825814D01*
X59694740Y-66031992D01*
X59817876Y-66220465D01*
X59817884Y-66220476D01*
X59963089Y-66378208D01*
X59994012Y-66440862D01*
X59986152Y-66510288D01*
X59942005Y-66564444D01*
X59915196Y-66578372D01*
X59797394Y-66622311D01*
X59680338Y-66709939D01*
X59616683Y-66794972D01*
X59560749Y-66836842D01*
X59491058Y-66841826D01*
X59429735Y-66808340D01*
X59396250Y-66747017D01*
X59393599Y-66713945D01*
X59398520Y-66623200D01*
X59398520Y-66623197D01*
X59378853Y-66260471D01*
X59320082Y-65901985D01*
X59320080Y-65901977D01*
X59222904Y-65551979D01*
X59222902Y-65551972D01*
X59088447Y-65214515D01*
X59088438Y-65214497D01*
X58918283Y-64893552D01*
X58918281Y-64893548D01*
X58714429Y-64592890D01*
X58714422Y-64592880D01*
X58582629Y-64437723D01*
X58582628Y-64437723D01*
X57337851Y-65682500D01*
X57264012Y-65580870D01*
X57085930Y-65402788D01*
X56984297Y-65328947D01*
X58231710Y-64081536D01*
X58231710Y-64081534D01*
X58215529Y-64066207D01*
X58215528Y-64066206D01*
X57926333Y-63846367D01*
X57926317Y-63846356D01*
X57615077Y-63659090D01*
X57615064Y-63659083D01*
X57285394Y-63506560D01*
X57285389Y-63506559D01*
X56941138Y-63390567D01*
X56586364Y-63312475D01*
X56225233Y-63273200D01*
X55861966Y-63273200D01*
X55500835Y-63312475D01*
X55146061Y-63390567D01*
X54801810Y-63506559D01*
X54801805Y-63506560D01*
X54472135Y-63659083D01*
X54472122Y-63659090D01*
X54160882Y-63846356D01*
X54160866Y-63846367D01*
X53871675Y-64066202D01*
X53855488Y-64081535D01*
X53855487Y-64081535D01*
X55102901Y-65328948D01*
X55001270Y-65402788D01*
X54823188Y-65580870D01*
X54749348Y-65682501D01*
X53504570Y-64437722D01*
X53504569Y-64437723D01*
X53372777Y-64592880D01*
X53372770Y-64592890D01*
X53168918Y-64893548D01*
X53168916Y-64893552D01*
X52998761Y-65214497D01*
X52998752Y-65214515D01*
X52864297Y-65551972D01*
X52864295Y-65551979D01*
X52767119Y-65901977D01*
X52767117Y-65901985D01*
X52708346Y-66260471D01*
X52688680Y-66623197D01*
X52688680Y-66623202D01*
X52708346Y-66985928D01*
X52767117Y-67344414D01*
X52767119Y-67344422D01*
X52864295Y-67694420D01*
X52864297Y-67694427D01*
X52998752Y-68031884D01*
X52998761Y-68031902D01*
X53168916Y-68352847D01*
X53168918Y-68352851D01*
X53372770Y-68653509D01*
X53372777Y-68653519D01*
X53504569Y-68808675D01*
X53504570Y-68808675D01*
X54749347Y-67563897D01*
X54823188Y-67665530D01*
X55001270Y-67843612D01*
X55102900Y-67917451D01*
X53855488Y-69164862D01*
X53855488Y-69164864D01*
X53871670Y-69180192D01*
X53871671Y-69180193D01*
X54160866Y-69400032D01*
X54160882Y-69400043D01*
X54472122Y-69587309D01*
X54472135Y-69587316D01*
X54801805Y-69739839D01*
X54801810Y-69739840D01*
X55146061Y-69855832D01*
X55500835Y-69933924D01*
X55861966Y-69973199D01*
X55861974Y-69973200D01*
X56225059Y-69973200D01*
X56292098Y-69992885D01*
X56337853Y-70045689D01*
X56347797Y-70114847D01*
X56332446Y-70159200D01*
X56279073Y-70251643D01*
X56279070Y-70251650D01*
X56237105Y-70380806D01*
X56220058Y-70433272D01*
X56200096Y-70623200D01*
X56220058Y-70813128D01*
X56220059Y-70813131D01*
X56279070Y-70994749D01*
X56279073Y-70994756D01*
X56374560Y-71160144D01*
X56461499Y-71256700D01*
X56486620Y-71284600D01*
X56502347Y-71302066D01*
X56656848Y-71414318D01*
X56831312Y-71491994D01*
X57018113Y-71531700D01*
X57209087Y-71531700D01*
X57395888Y-71491994D01*
X57570352Y-71414318D01*
X57724853Y-71302066D01*
X57728760Y-71297727D01*
X57788246Y-71261079D01*
X57820909Y-71256700D01*
X58255995Y-71256700D01*
X58255996Y-71256699D01*
X58378385Y-71232355D01*
X58493675Y-71184600D01*
X58597433Y-71115271D01*
X60394686Y-69318019D01*
X60456009Y-69284534D01*
X60482367Y-69281700D01*
X61304834Y-69281700D01*
X61371873Y-69301385D01*
X61392515Y-69318019D01*
X66101529Y-74027033D01*
X66189767Y-74115271D01*
X66189768Y-74115272D01*
X66293518Y-74184596D01*
X66293524Y-74184599D01*
X66293525Y-74184600D01*
X66408815Y-74232355D01*
X66432985Y-74237162D01*
X66467773Y-74244083D01*
X66529684Y-74276468D01*
X66564258Y-74337183D01*
X66560519Y-74406953D01*
X66519652Y-74463625D01*
X66454634Y-74489206D01*
X66443582Y-74489700D01*
X55642367Y-74489700D01*
X55575328Y-74470015D01*
X55529573Y-74417211D01*
X55519629Y-74348053D01*
X55548654Y-74284497D01*
X55554686Y-74278019D01*
X56039686Y-73793019D01*
X56101009Y-73759534D01*
X56127367Y-73756700D01*
X57106291Y-73756700D01*
X57173330Y-73776385D01*
X57198440Y-73797727D01*
X57202347Y-73802066D01*
X57356848Y-73914318D01*
X57531312Y-73991994D01*
X57718113Y-74031700D01*
X57909087Y-74031700D01*
X58095888Y-73991994D01*
X58270352Y-73914318D01*
X58424853Y-73802066D01*
X58552640Y-73660144D01*
X58648127Y-73494756D01*
X58707142Y-73313128D01*
X58727104Y-73123200D01*
X58707142Y-72933272D01*
X58648127Y-72751644D01*
X58552640Y-72586256D01*
X58424853Y-72444334D01*
X58270352Y-72332082D01*
X58095888Y-72254406D01*
X58095886Y-72254405D01*
X57909087Y-72214700D01*
X57718113Y-72214700D01*
X57531314Y-72254405D01*
X57356846Y-72332083D01*
X57202345Y-72444335D01*
X57198440Y-72448673D01*
X57138954Y-72485321D01*
X57106291Y-72489700D01*
X55751201Y-72489700D01*
X55628822Y-72514042D01*
X55628813Y-72514045D01*
X55513524Y-72561799D01*
X55513521Y-72561800D01*
X55409767Y-72631127D01*
X55409763Y-72631130D01*
X52589253Y-75451643D01*
X52109767Y-75931129D01*
X52084943Y-75955953D01*
X52021527Y-76019368D01*
X51952203Y-76123118D01*
X51952198Y-76123127D01*
X51904445Y-76238414D01*
X51904443Y-76238422D01*
X51880100Y-76360801D01*
X51880100Y-77154417D01*
X51860415Y-77221456D01*
X51807611Y-77267211D01*
X51738453Y-77277155D01*
X51681790Y-77253684D01*
X51548051Y-77153568D01*
X51548043Y-77153563D01*
X51308450Y-77022735D01*
X51308446Y-77022733D01*
X51175642Y-76973200D01*
X51052660Y-76927330D01*
X51052656Y-76927329D01*
X51052653Y-76927328D01*
X50785907Y-76869300D01*
X50513601Y-76849825D01*
X50513599Y-76849825D01*
X50241292Y-76869300D01*
X49974546Y-76927328D01*
X49974541Y-76927329D01*
X49974540Y-76927330D01*
X49915001Y-76949537D01*
X49718753Y-77022733D01*
X49718749Y-77022735D01*
X49479156Y-77153563D01*
X49479148Y-77153568D01*
X49260613Y-77317161D01*
X49260595Y-77317177D01*
X49067577Y-77510195D01*
X49067561Y-77510213D01*
X48903968Y-77728748D01*
X48903963Y-77728756D01*
X48773135Y-77968349D01*
X48773133Y-77968353D01*
X48709704Y-78138415D01*
X48681033Y-78215286D01*
X48677728Y-78224146D01*
X48619700Y-78490892D01*
X48600225Y-78763198D01*
X45313600Y-78763198D01*
X45313600Y-61447200D01*
X45333285Y-61380161D01*
X45386089Y-61334406D01*
X45437600Y-61323200D01*
X125489744Y-61323200D01*
X125556783Y-61342885D01*
G37*
%TD.AperFunction*%
%TD*%
M02*
