M48
; DRILL file {KiCad 8.0.9-8.0.9-0~ubuntu24.04.1} date 2025-11-19T12:46:52-0800
; FORMAT={-:-/ absolute / inch / decimal}
; #@! TF.CreationDate,2025-11-19T12:46:52-08:00
; #@! TF.GenerationSoftware,Kicad,Pcbnew,8.0.9-8.0.9-0~ubuntu24.04.1
; #@! TF.FileFunction,Plated,1,2,PTH
FMAT,2
INCH
; #@! TA.AperFunction,Plated,PTH,ViaDrill
T1C0.0157
; #@! TA.AperFunction,Plated,PTH,ComponentDrill
T2C0.0394
; #@! TA.AperFunction,Plated,PTH,ComponentDrill
T3C0.1024
; #@! TA.AperFunction,Plated,PTH,ComponentDrill
T4C0.1260
%
G90
G05
T1
X1.847Y-2.4576
X1.8627Y-5.1426
X1.969Y-2.8946
X1.9769Y-3.3277
X2.1974Y-3.3592
X2.2013Y-3.0639
X2.2092Y-5.1387
X2.2289Y-4.7253
X2.2486Y-2.7804
X2.2761Y-2.8789
X2.3627Y-2.8907
X2.3765Y-5.0226
X2.3982Y-2.8041
X2.469Y-5.56
X2.4809Y-5.0915
X2.5478Y-2.623
X2.5675Y-5.0403
X2.5714Y-3.3946
X2.5714Y-5.497
X2.599Y-2.4891
X2.6265Y-5.2568
X2.6344Y-2.8198
X2.7092Y-5.3434
X2.7328Y-2.9458
X2.7879Y-5.1781
X2.7958Y-2.7529
X2.7958Y-2.9852
X2.8037Y-3.132
X2.8667Y-5.745
X2.9927Y-2.4852
X3.2131Y-5.3001
X3.2958Y-2.4655
X3.4848Y-5.4261
X3.595Y-2.7726
X3.6344Y-5.2765
X3.7958Y-2.4812
X3.8273Y-2.8041
X3.9021Y-4.6466
X3.9139Y-2.8986
X3.969Y-5.2253
X3.9966Y-2.4655
X4.1147Y-4.5757
X4.1777Y-2.4497
X4.2801Y-2.7529
X4.3352Y-3.2726
X4.3436Y-2.7804
X4.8627Y-5.3552
T2
X2.0793Y-5.3671
X2.0793Y-5.6663
X2.3974Y-2.5741
X2.3974Y-2.6741
X2.4974Y-2.5741
X2.4974Y-2.6741
X2.5974Y-2.5741
X2.5974Y-2.6741
X2.6974Y-2.5741
X2.6974Y-2.6741
X2.7974Y-2.5741
X2.7974Y-2.6741
X2.8037Y-5.3749
X2.8037Y-5.5521
X2.8974Y-2.5741
X2.8974Y-2.6741
X2.9706Y-3.0403
X2.9974Y-2.5741
X2.9974Y-2.6741
X3.0596Y-5.3749
X3.0596Y-5.5521
X3.0706Y-3.0403
X3.0974Y-2.5741
X3.0974Y-2.6741
X3.1706Y-3.0403
X3.1974Y-2.5741
X3.1974Y-2.6741
X3.2706Y-3.0403
X3.2974Y-2.5741
X3.2974Y-2.6741
X3.347Y-3.3001
X3.3706Y-3.0403
X3.3974Y-2.5741
X3.3974Y-2.6741
X3.4706Y-3.0403
X3.4974Y-2.5741
X3.4974Y-2.6741
X3.5045Y-3.2923
X3.5706Y-3.0403
X3.5974Y-2.5741
X3.5974Y-2.6741
X3.6462Y-3.2923
X3.6974Y-2.5741
X3.6974Y-2.6741
X3.7974Y-2.5741
X3.7974Y-2.6741
X3.8974Y-2.5741
X3.8974Y-2.6741
X3.9974Y-2.5741
X3.9974Y-2.6741
X4.0974Y-2.5741
X4.0974Y-2.6741
X4.1974Y-2.5741
X4.1974Y-2.6741
X4.2348Y-5.3749
X4.2348Y-5.5521
X4.2974Y-2.5741
X4.2974Y-2.6741
X4.4907Y-5.3749
X4.4907Y-5.5521
X4.7604Y-5.3198
X4.7761Y-5.6584
T3
X1.9887Y-3.1009
X1.9887Y-4.8726
X4.7053Y-3.1009
X4.7053Y-4.8726
T4
X2.2064Y-2.623
X2.2064Y-4.5403
X4.4899Y-2.623
X4.4899Y-4.5403
M30
